<svg width="25" height="24" viewBox="0 0 25 24" fill="none" xmlns="http://www.w3.org/2000/svg">
<circle cx="12.5" cy="12" r="12" fill="#F3F4F8"/>
<path d="M11.2132 5.88004L6.59318 9.58003C6.07318 9.99336 5.73985 10.8667 5.85318 11.5201L6.73985 16.8267C6.89985 17.7734 7.80651 18.54 8.76651 18.54H16.2332C17.1865 18.54 18.0999 17.7667 18.2599 16.8267L19.1465 11.5201C19.2532 10.8667 18.9199 9.99336 18.4065 9.58003L13.7865 5.88671C13.0732 5.31338 11.9199 5.31337 11.2132 5.88004Z" stroke="#404252" stroke-width="1.5" stroke-linecap="round" stroke-linejoin="round"/>
<path d="M12.5002 14.3333C13.4206 14.3333 14.1668 13.5871 14.1668 12.6667C14.1668 11.7462 13.4206 11 12.5002 11C11.5797 11 10.8335 11.7462 10.8335 12.6667C10.8335 13.5871 11.5797 14.3333 12.5002 14.3333Z" stroke="#404252" stroke-width="1.5" stroke-linecap="round" stroke-linejoin="round"/>
</svg>
