<svg width="24" height="24" viewBox="0 0 24 24" fill="none" xmlns="http://www.w3.org/2000/svg">
<g clip-path="url(#clip0_10_2220)">
<path d="M16.875 6.75H14.0625L13.8422 6.31172C13.7955 6.21802 13.7236 6.1392 13.6346 6.08414C13.5456 6.02907 13.443 5.99993 13.3383 6H10.6594C10.5549 5.9996 10.4525 6.02863 10.3638 6.08376C10.2751 6.13889 10.2037 6.2179 10.1578 6.31172L9.9375 6.75H7.125C7.02554 6.75 6.93016 6.78951 6.85983 6.85984C6.78951 6.93017 6.75 7.02555 6.75 7.125V7.875C6.75 7.97446 6.78951 8.06984 6.85983 8.14017C6.93016 8.2105 7.02554 8.25 7.125 8.25H16.875C16.9745 8.25 17.0698 8.2105 17.1402 8.14017C17.2105 8.06984 17.25 7.97446 17.25 7.875V7.125C17.25 7.02555 17.2105 6.93017 17.1402 6.85984C17.0698 6.78951 16.9745 6.75 16.875 6.75ZM7.99688 16.9453C8.01476 17.2309 8.14082 17.499 8.34939 17.6949C8.55796 17.8909 8.83336 18 9.11953 18H14.8805C15.1666 18 15.442 17.8909 15.6506 17.6949C15.8592 17.499 15.9852 17.2309 16.0031 16.9453L16.5 9H7.5L7.99688 16.9453Z" fill="#EE0018"/>
</g>
<rect x="0.5" y="0.5" width="23" height="23" rx="11.5" stroke="#EE0018"/>
<defs>
<clipPath id="clip0_10_2220">
<rect width="12" height="12" fill="white" transform="translate(6 6)"/>
</clipPath>
</defs>
</svg>
