<svg width="24" height="25" viewBox="0 0 24 25" fill="none" xmlns="http://www.w3.org/2000/svg">
<path d="M22 15.5601C22 19.4301 18.87 22.5601 15 22.5601L16.05 20.8101" stroke="#B3B5BD" stroke-width="1.5" stroke-linecap="round" stroke-linejoin="round"/>
<path d="M2 9.56006C2 5.69006 5.13 2.56006 9 2.56006L7.95 4.31006" stroke="#B3B5BD" stroke-width="1.5" stroke-linecap="round" stroke-linejoin="round"/>
<path d="M13.7002 5.01007L17.6802 7.31006L21.6202 5.02008" stroke="#B3B5BD" stroke-width="1.5" stroke-linecap="round" stroke-linejoin="round"/>
<path d="M17.6802 11.3801V7.30005" stroke="#B3B5BD" stroke-width="1.5" stroke-linecap="round" stroke-linejoin="round"/>
<path d="M16.7401 2.77006L14.3401 4.10001C13.8001 4.40001 13.3501 5.16001 13.3501 5.78001V8.32005C13.3501 8.94005 13.7901 9.70004 14.3401 10L16.7401 11.3301C17.2501 11.6201 18.0901 11.6201 18.6101 11.3301L21.0101 10C21.5501 9.70004 22.0001 8.94005 22.0001 8.32005V5.78001C22.0001 5.16001 21.5601 4.40001 21.0101 4.10001L18.6101 2.77006C18.1001 2.49006 17.2601 2.49006 16.7401 2.77006Z" stroke="#B3B5BD" stroke-width="1.5" stroke-linecap="round" stroke-linejoin="round"/>
<path d="M2.3501 16.0101L6.3201 18.3101L10.2701 16.0201" stroke="#B3B5BD" stroke-width="1.5" stroke-linecap="round" stroke-linejoin="round"/>
<path d="M6.32031 22.3801V18.3" stroke="#B3B5BD" stroke-width="1.5" stroke-linecap="round" stroke-linejoin="round"/>
<path d="M5.39 13.7701L2.99001 15.1C2.45001 15.4 2 16.16 2 16.78V19.32C2 19.94 2.44001 20.7 2.99001 21L5.39 22.3301C5.9 22.6201 6.73999 22.6201 7.25999 22.3301L9.66 21C10.2 20.7 10.65 19.94 10.65 19.32V16.78C10.65 16.16 10.21 15.4 9.66 15.1L7.25999 13.7701C6.73999 13.4901 5.9 13.4901 5.39 13.7701Z" stroke="#B3B5BD" stroke-width="1.5" stroke-linecap="round" stroke-linejoin="round"/>
</svg>
