<svg width="24" height="25" viewBox="0 0 24 25" fill="none" xmlns="http://www.w3.org/2000/svg">
<path d="M22 15.5601C22 19.4301 18.87 22.5601 15 22.5601L16.05 20.8101" stroke="#1B954C" stroke-width="1.5" stroke-linecap="round" stroke-linejoin="round"/>
<path d="M2 9.56006C2 5.69006 5.13 2.56006 9 2.56006L7.95 4.31006" stroke="#1B954C" stroke-width="1.5" stroke-linecap="round" stroke-linejoin="round"/>
<path d="M13.6992 5.01001L17.6792 7.31L21.6192 5.02002" stroke="#1B954C" stroke-width="1.5" stroke-linecap="round" stroke-linejoin="round"/>
<path d="M17.6797 11.3801V7.30005" stroke="#1B954C" stroke-width="1.5" stroke-linecap="round" stroke-linejoin="round"/>
<path d="M16.7396 2.77006L14.3396 4.10001C13.7996 4.40001 13.3496 5.16001 13.3496 5.78001V8.32005C13.3496 8.94005 13.7896 9.70004 14.3396 10L16.7396 11.3301C17.2496 11.6201 18.0896 11.6201 18.6096 11.3301L21.0096 10C21.5496 9.70004 21.9996 8.94005 21.9996 8.32005V5.78001C21.9996 5.16001 21.5596 4.40001 21.0096 4.10001L18.6096 2.77006C18.0996 2.49006 17.2596 2.49006 16.7396 2.77006Z" stroke="#1B954C" stroke-width="1.5" stroke-linecap="round" stroke-linejoin="round"/>
<path d="M2.34961 16.01L6.31961 18.31L10.2696 16.02" stroke="#1B954C" stroke-width="1.5" stroke-linecap="round" stroke-linejoin="round"/>
<path d="M6.32031 22.3801V18.3" stroke="#1B954C" stroke-width="1.5" stroke-linecap="round" stroke-linejoin="round"/>
<path d="M5.39 13.7701L2.99001 15.1C2.45001 15.4 2 16.16 2 16.78V19.32C2 19.94 2.44001 20.7 2.99001 21L5.39 22.3301C5.9 22.6201 6.73999 22.6201 7.25999 22.3301L9.66 21C10.2 20.7 10.65 19.94 10.65 19.32V16.78C10.65 16.16 10.21 15.4 9.66 15.1L7.25999 13.7701C6.73999 13.4901 5.9 13.4901 5.39 13.7701Z" stroke="#1B954C" stroke-width="1.5" stroke-linecap="round" stroke-linejoin="round"/>
</svg>
