<svg width="24" height="24" viewBox="0 0 24 24" fill="none" xmlns="http://www.w3.org/2000/svg">
<path d="M13.0059 8.63039L15.3675 10.992L10.5447 15.8154C10.4219 15.9381 10.2738 16.0326 10.1109 16.0926L10.0119 16.1244L7.57891 16.788C7.53178 16.801 7.48219 16.8022 7.43446 16.7917C7.38672 16.7811 7.34229 16.7591 7.30503 16.7274C7.26777 16.6958 7.2388 16.6555 7.22066 16.6101C7.20251 16.5647 7.19573 16.5156 7.20091 16.467L7.21051 16.419L7.87411 13.9866C7.91971 13.8186 8.00131 13.6626 8.11291 13.5306L8.18311 13.4538L13.0059 8.62979V8.63039ZM13.9467 7.69019C14.2529 7.3845 14.6658 7.20962 15.0985 7.20238C15.5311 7.19515 15.9496 7.35612 16.2659 7.65139C16.5822 7.94666 16.7715 8.35317 16.7939 8.78527C16.8164 9.21737 16.6703 9.64132 16.3863 9.96779L16.3083 10.0518L15.7917 10.5678L13.4301 8.20619L13.9467 7.69019Z" fill="#E5E514"/>
<rect x="0.5" y="0.5" width="23" height="23" rx="11.5" stroke="#E5E514"/>
</svg>
