<svg width="24" height="25" viewBox="0 0 24 25" fill="none" xmlns="http://www.w3.org/2000/svg">
<path d="M8 2.56006V5.56006" stroke="#1B954C" stroke-width="1.5" stroke-miterlimit="10" stroke-linecap="round" stroke-linejoin="round"/>
<path d="M16 2.56006V5.56006" stroke="#1B954C" stroke-width="1.5" stroke-miterlimit="10" stroke-linecap="round" stroke-linejoin="round"/>
<path d="M3.5 9.6499H20.5" stroke="#1B954C" stroke-width="1.5" stroke-miterlimit="10" stroke-linecap="round" stroke-linejoin="round"/>
<path d="M19.21 16.3298L15.6701 19.8699C15.5301 20.0099 15.4 20.2699 15.37 20.4599L15.18 21.8099C15.11 22.2999 15.45 22.6399 15.94 22.5699L17.29 22.3799C17.48 22.3499 17.75 22.2198 17.88 22.0798L21.4201 18.5399C22.0301 17.9299 22.3201 17.2199 21.4201 16.3199C20.5301 15.4299 19.82 15.7198 19.21 16.3298Z" stroke="#1B954C" stroke-width="1.5" stroke-miterlimit="10" stroke-linecap="round" stroke-linejoin="round"/>
<path d="M18.7002 16.8398C19.0002 17.9198 19.8402 18.7598 20.9202 19.0598" stroke="#1B954C" stroke-width="1.5" stroke-miterlimit="10" stroke-linecap="round" stroke-linejoin="round"/>
<path d="M12 22.5601H8C4.5 22.5601 3 20.5601 3 17.5601V9.06006C3 6.06006 4.5 4.06006 8 4.06006H16C19.5 4.06006 21 6.06006 21 9.06006V12.5601" stroke="#1B954C" stroke-width="1.5" stroke-miterlimit="10" stroke-linecap="round" stroke-linejoin="round"/>
<path d="M11.9955 14.2603H12.0045" stroke="#1B954C" stroke-width="2" stroke-linecap="round" stroke-linejoin="round"/>
<path d="M8.29431 14.2603H8.30329" stroke="#1B954C" stroke-width="2" stroke-linecap="round" stroke-linejoin="round"/>
<path d="M8.29431 17.2603H8.30329" stroke="#1B954C" stroke-width="2" stroke-linecap="round" stroke-linejoin="round"/>
</svg>
