<svg width="24" height="25" viewBox="0 0 24 25" fill="none" xmlns="http://www.w3.org/2000/svg">
<path d="M8 2.56006V5.56006" stroke="#B3B5BD" stroke-width="1.5" stroke-miterlimit="10" stroke-linecap="round" stroke-linejoin="round"/>
<path d="M16 2.56006V5.56006" stroke="#B3B5BD" stroke-width="1.5" stroke-miterlimit="10" stroke-linecap="round" stroke-linejoin="round"/>
<path d="M3.5 9.65002H20.5" stroke="#B3B5BD" stroke-width="1.5" stroke-miterlimit="10" stroke-linecap="round" stroke-linejoin="round"/>
<path d="M19.21 16.3301L15.6701 19.8701C15.5301 20.0101 15.4 20.2701 15.37 20.4601L15.18 21.8101C15.11 22.3001 15.45 22.6401 15.94 22.5701L17.29 22.3801C17.48 22.3501 17.75 22.2201 17.88 22.0801L21.4201 18.5401C22.0301 17.9301 22.3201 17.2201 21.4201 16.3201C20.5301 15.4301 19.82 15.7201 19.21 16.3301Z" stroke="#B3B5BD" stroke-width="1.5" stroke-miterlimit="10" stroke-linecap="round" stroke-linejoin="round"/>
<path d="M18.7002 16.8401C19.0002 17.9201 19.8402 18.7601 20.9202 19.0601" stroke="#B3B5BD" stroke-width="1.5" stroke-miterlimit="10" stroke-linecap="round" stroke-linejoin="round"/>
<path d="M12 22.5601H8C4.5 22.5601 3 20.5601 3 17.5601V9.06006C3 6.06006 4.5 4.06006 8 4.06006H16C19.5 4.06006 21 6.06006 21 9.06006V12.5601" stroke="#B3B5BD" stroke-width="1.5" stroke-miterlimit="10" stroke-linecap="round" stroke-linejoin="round"/>
<path d="M11.9955 14.2601H12.0045" stroke="#B3B5BD" stroke-width="2" stroke-linecap="round" stroke-linejoin="round"/>
<path d="M8.29431 14.2601H8.30329" stroke="#B3B5BD" stroke-width="2" stroke-linecap="round" stroke-linejoin="round"/>
<path d="M8.29431 17.2601H8.30329" stroke="#B3B5BD" stroke-width="2" stroke-linecap="round" stroke-linejoin="round"/>
</svg>
