<svg width="32" height="32" viewBox="0 0 32 32" fill="none" xmlns="http://www.w3.org/2000/svg">
<path d="M14.6055 0H17.3962C17.6443 0 17.7683 0.118519 17.7683 0.355556V31.6444C17.7683 31.8815 17.6443 32 17.3962 32H14.6055C14.3574 32 14.2334 31.8815 14.2334 31.6444V0.355556C14.2334 0.118519 14.3574 0 14.6055 0Z" fill="white"/>
<path d="M0.372093 14.311H31.6279C31.876 14.311 32 14.4296 32 14.6666V17.3333C32 17.5703 31.876 17.6888 31.6279 17.6888H0.372093C0.124031 17.6888 0 17.5703 0 17.3333V14.6666C0 14.4296 0.124031 14.311 0.372093 14.311Z" fill="white"/>
</svg>
