<svg width="24" height="25" viewBox="0 0 24 25" fill="none" xmlns="http://www.w3.org/2000/svg">
<path d="M3.16992 8.00006L11.9999 13.11L20.7699 8.03003" stroke="#B3B5BD" stroke-width="1.5" stroke-linecap="round" stroke-linejoin="round"/>
<path d="M12 22.17V13.1" stroke="#B3B5BD" stroke-width="1.5" stroke-linecap="round" stroke-linejoin="round"/>
<path d="M9.93011 3.04006L4.59012 6.01009C3.38012 6.68009 2.39014 8.36007 2.39014 9.74007V15.3901C2.39014 16.7701 3.38012 18.4501 4.59012 19.1201L9.93011 22.0901C11.0701 22.7201 12.9401 22.7201 14.0801 22.0901L19.4201 19.1201C20.6301 18.4501 21.6201 16.7701 21.6201 15.3901V9.74007C21.6201 8.36007 20.6301 6.68009 19.4201 6.01009L14.0801 3.04006C12.9301 2.40006 11.0701 2.40006 9.93011 3.04006Z" stroke="#B3B5BD" stroke-width="1.5" stroke-linecap="round" stroke-linejoin="round"/>
<path d="M16.9998 13.8V10.1401L7.50977 4.66003" stroke="#B3B5BD" stroke-width="1.5" stroke-linecap="round" stroke-linejoin="round"/>
</svg>
