<svg width="24" height="25" viewBox="0 0 24 25" fill="none" xmlns="http://www.w3.org/2000/svg">
<path d="M3.16992 8L11.9999 13.11L20.7699 8.02997" stroke="#1B954C" stroke-width="1.5" stroke-linecap="round" stroke-linejoin="round"/>
<path d="M12 22.1701V13.1001" stroke="#1B954C" stroke-width="1.5" stroke-linecap="round" stroke-linejoin="round"/>
<path d="M9.9306 3.04006L4.59061 6.01009C3.38061 6.68009 2.39062 8.36007 2.39062 9.74007V15.3901C2.39062 16.7701 3.38061 18.4501 4.59061 19.1201L9.9306 22.0901C11.0706 22.7201 12.9406 22.7201 14.0806 22.0901L19.4206 19.1201C20.6306 18.4501 21.6206 16.7701 21.6206 15.3901V9.74007C21.6206 8.36007 20.6306 6.68009 19.4206 6.01009L14.0806 3.04006C12.9306 2.40006 11.0706 2.40006 9.9306 3.04006Z" stroke="#1B954C" stroke-width="1.5" stroke-linecap="round" stroke-linejoin="round"/>
<path d="M16.9998 13.8002V10.1402L7.50977 4.66016" stroke="#1B954C" stroke-width="1.5" stroke-linecap="round" stroke-linejoin="round"/>
</svg>
