<svg width="24" height="25" viewBox="0 0 24 25" fill="none" xmlns="http://www.w3.org/2000/svg">
<path d="M12.0196 3.47021C8.7096 3.47021 6.0196 6.16021 6.0196 9.47021V12.3602C6.0196 12.9702 5.7596 13.9002 5.4496 14.4202L4.2996 16.3302C3.5896 17.5102 4.0796 18.8202 5.3796 19.2602C9.6896 20.7002 14.3396 20.7002 18.6496 19.2602C19.8596 18.8602 20.3896 17.4302 19.7296 16.3302L18.5796 14.4202C18.2796 13.9002 18.0196 12.9702 18.0196 12.3602V9.47021C18.0196 6.17021 15.3196 3.47021 12.0196 3.47021Z" stroke="#1B954C" stroke-width="1.5" stroke-miterlimit="10" stroke-linecap="round"/>
<path d="M13.8699 3.76C13.5599 3.67 13.2399 3.6 12.9099 3.56C11.9499 3.44 11.0299 3.51 10.1699 3.76C10.4599 3.02 11.1799 2.5 12.0199 2.5C12.8599 2.5 13.5799 3.02 13.8699 3.76Z" stroke="#1B954C" stroke-width="1.5" stroke-miterlimit="10" stroke-linecap="round" stroke-linejoin="round"/>
<path d="M15.0195 19.6201C15.0195 21.2701 13.6695 22.6201 12.0195 22.6201C11.1995 22.6201 10.4395 22.2801 9.89953 21.7401C9.35953 21.2001 9.01953 20.4401 9.01953 19.6201" stroke="#1B954C" stroke-width="1.5" stroke-miterlimit="10"/>
</svg>
