<svg width="24" height="25" viewBox="0 0 24 25" fill="none" xmlns="http://www.w3.org/2000/svg">
<path d="M12.0201 3.47003C8.71009 3.47003 6.02009 6.16003 6.02009 9.47003V12.36C6.02009 12.97 5.76009 13.9 5.45009 14.42L4.30009 16.33C3.59009 17.51 4.08009 18.82 5.38009 19.26C9.69009 20.7 14.3401 20.7 18.6501 19.26C19.8601 18.86 20.3901 17.43 19.7301 16.33L18.5801 14.42C18.2801 13.9 18.0201 12.97 18.0201 12.36V9.47003C18.0201 6.17003 15.3201 3.47003 12.0201 3.47003Z" stroke="#B3B5BD" stroke-width="1.5" stroke-miterlimit="10" stroke-linecap="round"/>
<path d="M13.8699 3.76006C13.5599 3.67006 13.2399 3.60006 12.9099 3.56006C11.9499 3.44006 11.0299 3.51006 10.1699 3.76006C10.4599 3.02006 11.1799 2.50006 12.0199 2.50006C12.8599 2.50006 13.5799 3.02006 13.8699 3.76006Z" stroke="#B3B5BD" stroke-width="1.5" stroke-miterlimit="10" stroke-linecap="round" stroke-linejoin="round"/>
<path d="M15.02 19.6201C15.02 21.2701 13.67 22.6201 12.02 22.6201C11.2 22.6201 10.44 22.2801 9.90002 21.7401C9.36002 21.2001 9.02002 20.4401 9.02002 19.6201" stroke="#B3B5BD" stroke-width="1.5" stroke-miterlimit="10"/>
</svg>
