<svg width="24" height="25" viewBox="0 0 24 25" fill="none" xmlns="http://www.w3.org/2000/svg">
<path d="M12 15.5601C13.6569 15.5601 15 14.2169 15 12.5601C15 10.9032 13.6569 9.56006 12 9.56006C10.3431 9.56006 9 10.9032 9 12.5601C9 14.2169 10.3431 15.5601 12 15.5601Z" stroke="#1B954C" stroke-width="1.5" stroke-miterlimit="10" stroke-linecap="round" stroke-linejoin="round"/>
<path d="M2 13.44V11.68C2 10.64 2.85 9.78 3.9 9.78C5.71 9.78 6.45 8.5 5.54 6.93C5.02 6.03 5.33 4.86 6.24 4.34L7.97 3.35C8.76 2.88 9.78 3.16 10.25 3.95L10.36 4.13999C11.26 5.71 12.74 5.71 13.65 4.13999L13.76 3.95C14.23 3.16 15.25 2.88 16.04 3.35L17.77 4.34C18.68 4.86 18.99 6.03 18.47 6.93C17.56 8.5 18.3 9.78 20.11 9.78C21.15 9.78 22.01 10.63 22.01 11.68V13.44C22.01 14.48 21.16 15.34 20.11 15.34C18.3 15.34 17.56 16.62 18.47 18.19C18.99 19.1 18.68 20.26 17.77 20.78L16.04 21.77C15.25 22.24 14.23 21.96 13.76 21.17L13.65 20.98C12.75 19.41 11.27 19.41 10.36 20.98L10.25 21.17C9.78 21.96 8.76 22.24 7.97 21.77L6.24 20.78C5.33 20.26 5.02 19.09 5.54 18.19C6.45 16.62 5.71 15.34 3.9 15.34C2.85 15.34 2 14.48 2 13.44Z" stroke="#1B954C" stroke-width="1.5" stroke-miterlimit="10" stroke-linecap="round" stroke-linejoin="round"/>
</svg>
