<svg width="24" height="25" viewBox="0 0 24 25" fill="none" xmlns="http://www.w3.org/2000/svg">
<path d="M12 15.5601C13.6569 15.5601 15 14.2169 15 12.5601C15 10.9032 13.6569 9.56006 12 9.56006C10.3431 9.56006 9 10.9032 9 12.5601C9 14.2169 10.3431 15.5601 12 15.5601Z" stroke="#B3B5BD" stroke-width="1.5" stroke-miterlimit="10" stroke-linecap="round" stroke-linejoin="round"/>
<path d="M2 13.4401V11.6801C2 10.6401 2.85 9.78006 3.9 9.78006C5.71 9.78006 6.45 8.50006 5.54 6.93006C5.02 6.03006 5.33 4.86006 6.24 4.34006L7.97 3.35006C8.76 2.88006 9.78 3.16006 10.25 3.95006L10.36 4.14006C11.26 5.71006 12.74 5.71006 13.65 4.14006L13.76 3.95006C14.23 3.16006 15.25 2.88006 16.04 3.35006L17.77 4.34006C18.68 4.86006 18.99 6.03006 18.47 6.93006C17.56 8.50006 18.3 9.78006 20.11 9.78006C21.15 9.78006 22.01 10.6301 22.01 11.6801V13.4401C22.01 14.4801 21.16 15.3401 20.11 15.3401C18.3 15.3401 17.56 16.6201 18.47 18.1901C18.99 19.1001 18.68 20.2601 17.77 20.7801L16.04 21.7701C15.25 22.2401 14.23 21.9601 13.76 21.1701L13.65 20.9801C12.75 19.4101 11.27 19.4101 10.36 20.9801L10.25 21.1701C9.78 21.9601 8.76 22.2401 7.97 21.7701L6.24 20.7801C5.33 20.2601 5.02 19.0901 5.54 18.1901C6.45 16.6201 5.71 15.3401 3.9 15.3401C2.85 15.3401 2 14.4801 2 13.4401Z" stroke="#B3B5BD" stroke-width="1.5" stroke-miterlimit="10" stroke-linecap="round" stroke-linejoin="round"/>
</svg>
