<svg width="293" height="219" viewBox="0 0 293 219" fill="none" xmlns="http://www.w3.org/2000/svg">
<path d="M293 191.856H0V192.003H293V191.856Z" fill="#EBEBEB"/>
<path d="M50.1505 197.435H30.7422V197.582H50.1505V197.435Z" fill="#EBEBEB"/>
<path d="M125.21 195.848H100.287V195.994H125.21V195.848Z" fill="#EBEBEB"/>
<path d="M66.0188 199.492H54.7734V199.639H66.0188V199.492Z" fill="#EBEBEB"/>
<path d="M263.642 201.895H254.717V202.041H263.642V201.895Z" fill="#EBEBEB"/>
<path d="M249.494 201.895H229.4V202.041H249.494V201.895Z" fill="#EBEBEB"/>
<path d="M194.451 197.675H180.486V197.821H194.451V197.675Z" fill="#EBEBEB"/>
<path d="M138.884 165.721H25.7386C24.8512 165.721 24.0001 165.368 23.3726 164.741C22.7451 164.113 22.3926 163.262 22.3926 162.375V3.31676C22.4003 2.43442 22.7562 1.59084 23.3829 0.969657C24.0096 0.348472 24.8563 -3.38274e-05 25.7386 2.46269e-09H138.884C139.771 2.4627e-09 140.622 0.35253 141.25 0.980038C141.877 1.60755 142.23 2.45863 142.23 3.34606V162.375C142.23 163.262 141.877 164.113 141.25 164.741C140.622 165.368 139.771 165.721 138.884 165.721ZM25.7386 0.1172C24.8905 0.118749 24.0776 0.456342 23.4779 1.05604C22.8782 1.65574 22.5406 2.46866 22.5391 3.31676V162.375C22.5406 163.223 22.8782 164.036 23.4779 164.635C24.0776 165.235 24.8905 165.573 25.7386 165.574H138.884C139.732 165.573 140.545 165.235 141.144 164.635C141.744 164.036 142.082 163.223 142.083 162.375V3.31676C142.082 2.46866 141.744 1.65574 141.144 1.05604C140.545 0.456342 139.732 0.118749 138.884 0.1172H25.7386Z" fill="#EBEBEB"/>
<path d="M265.639 165.721H152.483C151.596 165.719 150.746 165.366 150.118 164.739C149.491 164.112 149.138 163.262 149.137 162.375V3.31676C149.146 2.4349 149.502 1.59221 150.129 0.971349C150.755 0.350492 151.601 0.0014933 152.483 0H265.639C266.52 0.00304983 267.363 0.352918 267.988 0.973773C268.612 1.59463 268.966 2.43644 268.974 3.31676V162.375C268.974 163.26 268.623 164.109 267.998 164.737C267.373 165.364 266.525 165.718 265.639 165.721ZM152.483 0.1172C151.635 0.118749 150.822 0.456342 150.222 1.05604C149.622 1.65574 149.285 2.46866 149.283 3.31676V162.375C149.285 163.223 149.622 164.036 150.222 164.635C150.822 165.235 151.635 165.573 152.483 165.574H265.639C266.487 165.573 267.3 165.235 267.9 164.635C268.5 164.036 268.837 163.223 268.839 162.375V3.31676C268.837 2.46866 268.5 1.65574 267.9 1.05604C267.3 0.456342 266.487 0.118749 265.639 0.1172H152.483Z" fill="#EBEBEB"/>
<path d="M180.194 82.8428L243.406 82.8428V19.461L180.194 19.461V82.8428Z" fill="#F0F0F0"/>
<path d="M180.193 19.4678H179.104V82.8495H180.193V19.4678Z" fill="#E0E0E0"/>
<path d="M185.778 78.8398H237.826V23.4628L185.778 23.4628V78.8398Z" fill="#FAFAFA"/>
<path d="M206.273 66.8041H222.757C226.332 66.8041 228.723 63.9093 228.096 60.3581L224.89 41.9987C224.534 40.2223 223.587 38.6186 222.204 37.4483C220.821 36.278 219.083 35.61 217.272 35.5527H200.829C197.254 35.5527 194.863 38.4476 195.49 41.9987L198.696 60.3581C199.049 62.1284 199.99 63.7276 201.365 64.8973C202.74 66.0671 204.469 66.7389 206.273 66.8041Z" fill="#F0F0F0"/>
<path d="M61.5113 102.093H47.4473V188.85H61.5113V102.093Z" fill="#F0F0F0"/>
<path d="M123.225 188.855H48.8848V191.85H123.225V188.855Z" fill="#F0F0F0"/>
<path d="M61.5109 188.855H124.459L124.459 102.098L61.5109 102.098L61.5109 188.855Z" fill="#F5F5F5"/>
<path d="M64.0446 162.762H121.93V147.268H64.0446V162.762Z" fill="#F0F0F0"/>
<path d="M64.0446 183.037H121.93V167.543H64.0446V183.037Z" fill="#F0F0F0"/>
<path d="M115.079 146.318H70.8946C70.5127 146.318 70.2031 146.628 70.2031 147.01V147.754C70.2031 148.136 70.5127 148.445 70.8946 148.445H115.079C115.461 148.445 115.77 148.136 115.77 147.754V147.01C115.77 146.628 115.461 146.318 115.079 146.318Z" fill="#F5F5F5"/>
<path d="M115.079 166.6H70.8946C70.5127 166.6 70.2031 166.909 70.2031 167.291V168.035C70.2031 168.417 70.5127 168.727 70.8946 168.727H115.079C115.461 168.727 115.77 168.417 115.77 168.035V167.291C115.77 166.909 115.461 166.6 115.079 166.6Z" fill="#F5F5F5"/>
<path d="M64.0446 122.368H121.93V106.874H64.0446V122.368Z" fill="#F0F0F0"/>
<path d="M64.0446 142.492H121.93V126.998H64.0446V142.492Z" fill="#F0F0F0"/>
<path d="M115.079 105.931H70.8946C70.5127 105.931 70.2031 106.24 70.2031 106.622V107.366C70.2031 107.748 70.5127 108.058 70.8946 108.058H115.079C115.461 108.058 115.77 107.748 115.77 107.366V106.622C115.77 106.24 115.461 105.931 115.079 105.931Z" fill="#F5F5F5"/>
<path d="M115.079 126.043H70.8946C70.5127 126.043 70.2031 126.353 70.2031 126.734V127.479C70.2031 127.861 70.5127 128.17 70.8946 128.17H115.079C115.461 128.17 115.77 127.861 115.77 127.479V126.734C115.77 126.353 115.461 126.043 115.079 126.043Z" fill="#F5F5F5"/>
<path d="M122.18 14.6846H43.2402V83.9849H122.18V14.6846Z" fill="#E6E6E6"/>
<path d="M130.643 11.9893H38.131C38.0281 11.9893 37.9263 12.0096 37.8313 12.0491C37.7364 12.0887 37.6502 12.1466 37.5778 12.2196C37.5053 12.2926 37.448 12.3792 37.4092 12.4744C37.3704 12.5697 37.3508 12.6717 37.3516 12.7745C37.3516 12.9812 37.4337 13.1794 37.5799 13.3256C37.726 13.4718 37.9243 13.5539 38.131 13.5539H130.643C130.85 13.5539 131.049 13.472 131.196 13.326C131.343 13.18 131.426 12.9817 131.428 12.7745C131.428 12.5662 131.345 12.3665 131.198 12.2193C131.051 12.072 130.851 11.9893 130.643 11.9893Z" fill="#E6E6E6"/>
<path d="M125.534 14.6846H44.8066V83.9849H125.534V14.6846Z" fill="#F0F0F0"/>
<path d="M122.18 83.9854H43.2402V86.2063H124.489L122.18 83.9854Z" fill="#E6E6E6"/>
<path d="M131.112 83.9854H50.3906L52.6936 86.2063H133.421L131.112 83.9854Z" fill="#F0F0F0"/>
<path d="M120.846 79.2974V19.373L49.5002 19.373V79.2974H120.846Z" fill="#FAFAFA"/>
<path d="M65.6973 79.2975L93.2158 19.3732H106.213L78.6889 79.2975H65.6973Z" fill="white"/>
<path d="M81.4766 79.2975L109.001 19.3732H114.064L86.5455 79.2975H81.4766Z" fill="white"/>
<path d="M120.846 79.2974V19.373H120.248V79.2974H120.846Z" fill="#E6E6E6"/>
<g opacity="0.4">
<path d="M49.5516 10.5898H41.4824V67.7776H49.5516V10.5898Z" fill="#F0F0F0"/>
<path d="M52.6979 10.5898H46.4102V67.7776H52.6979V10.5898Z" fill="#E6E6E6"/>
<path d="M57.62 10.5898H49.5508V67.7776H57.62V10.5898Z" fill="#F0F0F0"/>
<path d="M60.7682 10.5898H54.4805V67.7776H60.7682V10.5898Z" fill="#E6E6E6"/>
<path d="M65.6903 10.5898H57.6211V67.7776H65.6903V10.5898Z" fill="#F0F0F0"/>
</g>
<g opacity="0.4">
<path d="M117.842 10.5898H113.189V67.7776H117.842V10.5898Z" fill="#F0F0F0"/>
<path d="M119.647 10.5898H116.025V67.7776H119.647V10.5898Z" fill="#E6E6E6"/>
<path d="M122.489 10.5898H117.836V67.7776H122.489V10.5898Z" fill="#F0F0F0"/>
<path d="M124.301 10.5898H120.68V67.7776H124.301V10.5898Z" fill="#E6E6E6"/>
<path d="M127.143 10.5898H122.49V67.7776H127.143V10.5898Z" fill="#F0F0F0"/>
</g>
<path d="M209.114 125.527C209.045 126.375 209.229 127.224 209.642 127.967C210.056 128.71 210.68 129.314 211.437 129.703C212.194 130.091 213.048 130.246 213.893 130.149C214.738 130.052 215.535 129.706 216.184 129.156C216.832 128.605 217.303 127.875 217.537 127.058C217.77 126.24 217.756 125.371 217.496 124.561C217.236 123.752 216.742 123.037 216.076 122.508C215.41 121.979 214.602 121.659 213.755 121.589C212.617 121.497 211.49 121.86 210.62 122.598C209.749 123.336 209.208 124.39 209.114 125.527Z" fill="#E0E0E0"/>
<path d="M221.074 132.377C223.427 132.031 225.054 129.842 224.708 127.489C224.362 125.135 222.173 123.508 219.82 123.854C217.466 124.201 215.839 126.389 216.186 128.743C216.532 131.096 218.72 132.723 221.074 132.377Z" fill="#E0E0E0"/>
<path d="M223.688 128.656C223.619 129.504 223.803 130.353 224.216 131.096C224.63 131.839 225.254 132.443 226.011 132.832C226.768 133.22 227.623 133.375 228.467 133.278C229.312 133.18 230.109 132.835 230.758 132.285C231.406 131.734 231.877 131.004 232.111 130.186C232.344 129.369 232.33 128.5 232.07 127.69C231.811 126.88 231.316 126.166 230.65 125.637C229.985 125.108 229.177 124.788 228.329 124.718C227.766 124.671 227.198 124.735 226.66 124.908C226.121 125.08 225.622 125.357 225.191 125.723C224.759 126.089 224.405 126.537 224.147 127.04C223.889 127.543 223.733 128.092 223.688 128.656Z" fill="#E0E0E0"/>
<path d="M201.116 127.783C201.047 128.631 201.231 129.48 201.644 130.223C202.058 130.966 202.682 131.57 203.439 131.959C204.195 132.347 205.05 132.502 205.895 132.405C206.74 132.307 207.537 131.962 208.186 131.412C208.834 130.861 209.305 130.131 209.539 129.313C209.772 128.496 209.758 127.627 209.498 126.817C209.238 126.007 208.744 125.293 208.078 124.764C207.412 124.235 206.604 123.915 205.757 123.845C204.619 123.753 203.492 124.116 202.622 124.854C201.751 125.592 201.21 126.646 201.116 127.783Z" fill="#E0E0E0"/>
<path d="M234.822 132.374C237.175 132.028 238.802 129.839 238.456 127.486C238.11 125.132 235.921 123.505 233.568 123.852C231.214 124.198 229.587 126.386 229.934 128.74C230.28 131.093 232.468 132.72 234.822 132.374Z" fill="#E0E0E0"/>
<path d="M202.402 127.767C204.21 126.221 204.422 123.502 202.876 121.694C201.33 119.886 198.611 119.674 196.803 121.22C194.995 122.766 194.783 125.485 196.329 127.293C197.875 129.101 200.594 129.313 202.402 127.767Z" fill="#E0E0E0"/>
<path d="M189.231 126.805C189.162 127.652 189.346 128.501 189.759 129.245C190.173 129.988 190.797 130.592 191.554 130.98C192.311 131.368 193.166 131.524 194.01 131.426C194.855 131.329 195.652 130.983 196.301 130.433C196.949 129.883 197.42 129.153 197.654 128.335C197.887 127.517 197.873 126.648 197.613 125.839C197.354 125.029 196.859 124.314 196.193 123.785C195.527 123.256 194.72 122.937 193.872 122.867C192.735 122.774 191.607 123.137 190.737 123.875C189.867 124.614 189.325 125.667 189.231 126.805Z" fill="#E0E0E0"/>
<path d="M184.314 127.965C184.314 127.965 185.053 145.586 213.368 145.586C241.684 145.586 242.422 127.965 242.422 127.965H184.314Z" fill="#F0F0F0"/>
<path d="M258.579 145.586H253.193V191.851H258.579V145.586Z" fill="#E6E6E6"/>
<path d="M260.014 145.586H256.844V191.851H260.014V145.586Z" fill="#F0F0F0"/>
<path d="M235.667 145.586H230.281V191.851H235.667V145.586Z" fill="#E6E6E6"/>
<path d="M236.674 145.586H233.504V191.851H236.674V145.586Z" fill="#F0F0F0"/>
<path d="M184.548 151.199H260.998V145.591H184.548V151.199Z" fill="#F0F0F0"/>
<path d="M161.186 145.586H155.801V191.851H161.186V145.586Z" fill="#E6E6E6"/>
<path d="M162.194 145.586H159.023V191.851H162.194V145.586Z" fill="#F0F0F0"/>
<path d="M154.839 151.199H182.246V145.591H154.839V151.199Z" fill="#E6E6E6"/>
<path d="M184.09 145.586H178.705V191.851H184.09V145.586Z" fill="#E6E6E6"/>
<path d="M185.534 145.586H182.363V191.851H185.534V145.586Z" fill="#F0F0F0"/>
<path d="M146.5 218.321C209.251 218.321 260.12 215.351 260.12 211.687C260.12 208.024 209.251 205.054 146.5 205.054C83.7501 205.054 32.8809 208.024 32.8809 211.687C32.8809 215.351 83.7501 218.321 146.5 218.321Z" fill="#F5F5F5"/>
<path d="M208.312 205.868C208.313 207.039 207.898 208.173 207.142 209.067C206.385 209.96 205.336 210.557 204.181 210.75C189.963 213.148 175.444 213.148 161.227 210.75C160.077 210.552 159.034 209.953 158.283 209.059C157.532 208.166 157.122 207.035 157.125 205.868V158.402H208.336L208.312 205.868Z" fill="#F97063"/>
<path opacity="0.3" d="M157.096 159.258V165.921C160.178 167.063 170.298 167.901 182.704 167.901C195.11 167.901 205.247 167.063 208.312 165.921V159.258H157.096Z" fill="black"/>
<path d="M209.273 164.337C209.273 165.843 197.647 167.062 182.704 167.062C167.761 167.062 156.135 165.843 156.135 164.337L155.648 158.419H209.789L209.273 164.337Z" fill="#F97063"/>
<path d="M182.704 161.138C197.646 161.138 209.76 159.921 209.76 158.419C209.76 156.918 197.646 155.7 182.704 155.7C167.762 155.7 155.648 156.918 155.648 158.419C155.648 159.921 167.762 161.138 182.704 161.138Z" fill="#F97063"/>
<path opacity="0.3" d="M182.704 161.138C197.646 161.138 209.76 159.921 209.76 158.419C209.76 156.918 197.646 155.7 182.704 155.7C167.762 155.7 155.648 156.918 155.648 158.419C155.648 159.921 167.762 161.138 182.704 161.138Z" fill="black"/>
<path opacity="0.2" d="M163.963 202.528C163.437 202.526 162.932 202.316 162.56 201.944C162.188 201.572 161.978 201.068 161.977 200.541V173.327C161.978 172.801 162.188 172.297 162.56 171.924C162.932 171.552 163.437 171.342 163.963 171.341C164.489 171.344 164.993 171.554 165.364 171.926C165.736 172.298 165.947 172.801 165.95 173.327V200.541C165.947 201.067 165.736 201.571 165.364 201.942C164.993 202.314 164.489 202.525 163.963 202.528Z" fill="black"/>
<path opacity="0.2" d="M201.451 202.528C200.925 202.526 200.421 202.316 200.048 201.944C199.676 201.572 199.466 201.068 199.465 200.541V173.327C199.466 172.801 199.676 172.297 200.048 171.924C200.421 171.552 200.925 171.342 201.451 171.341C201.977 171.344 202.481 171.554 202.853 171.926C203.225 172.298 203.435 172.801 203.438 173.327V200.541C203.435 201.067 203.225 201.571 202.853 201.942C202.481 202.314 201.977 202.525 201.451 202.528Z" fill="black"/>
<path opacity="0.2" d="M188.951 202.528C188.425 202.525 187.922 202.314 187.55 201.942C187.178 201.571 186.968 201.067 186.965 200.541V173.327C186.968 172.801 187.178 172.298 187.55 171.926C187.922 171.554 188.425 171.344 188.951 171.341C189.478 171.342 189.982 171.552 190.354 171.924C190.727 172.297 190.936 172.801 190.938 173.327V200.541C190.936 201.068 190.727 201.572 190.354 201.944C189.982 202.316 189.478 202.526 188.951 202.528Z" fill="black"/>
<path opacity="0.2" d="M176.457 202.528C175.931 202.525 175.428 202.314 175.056 201.942C174.684 201.571 174.474 201.067 174.471 200.541V173.327C174.474 172.801 174.684 172.298 175.056 171.926C175.428 171.554 175.931 171.344 176.457 171.341C176.984 171.342 177.488 171.552 177.86 171.924C178.232 172.297 178.442 172.801 178.444 173.327V200.541C178.442 201.068 178.232 201.572 177.86 201.944C177.488 202.316 176.984 202.526 176.457 202.528Z" fill="black"/>
<path d="M113.028 49.3177C113.028 49.8554 112.868 50.3811 112.57 50.8283C112.271 51.2754 111.846 51.6239 111.349 51.8297C110.853 52.0355 110.306 52.0894 109.778 51.9845C109.251 51.8796 108.766 51.6206 108.386 51.2403C108.006 50.8601 107.747 50.3756 107.642 49.8481C107.537 49.3207 107.591 48.774 107.797 48.2771C108.003 47.7803 108.351 47.3556 108.798 47.0569C109.245 46.7581 109.771 46.5986 110.309 46.5986C111.03 46.5986 111.722 46.8851 112.232 47.395C112.741 47.9049 113.028 48.5965 113.028 49.3177Z" fill="#263238"/>
<path d="M108.122 49.71C108.095 49.7107 108.069 49.704 108.046 49.6905C108.023 49.677 108.005 49.6574 107.993 49.6338C107.813 49.3037 107.7 48.9414 107.661 48.5676C107.621 48.1939 107.655 47.8159 107.762 47.4554C107.868 47.0949 108.044 46.7589 108.281 46.4666C108.517 46.1742 108.808 45.9313 109.138 45.7516C109.469 45.5719 109.831 45.459 110.205 45.4193C110.578 45.3796 110.956 45.414 111.317 45.5204C111.677 45.6267 112.013 45.8031 112.306 46.0393C112.598 46.2756 112.841 46.5671 113.021 46.8972C113.038 46.9317 113.041 46.9714 113.031 47.0084C113.02 47.0453 112.995 47.0768 112.962 47.0964C112.945 47.1057 112.927 47.1116 112.907 47.1137C112.888 47.1157 112.869 47.114 112.85 47.1085C112.832 47.1031 112.814 47.0941 112.799 47.0819C112.784 47.0698 112.772 47.0548 112.763 47.0378C112.437 46.4395 111.887 45.995 111.234 45.8021C110.581 45.6093 109.877 45.6838 109.279 46.0094C108.681 46.335 108.236 46.885 108.043 47.5383C107.85 48.1916 107.925 48.8948 108.251 49.4932C108.26 49.5101 108.266 49.5287 108.268 49.5479C108.27 49.5671 108.268 49.5865 108.263 49.605C108.257 49.6235 108.248 49.6407 108.236 49.6558C108.224 49.6708 108.209 49.6832 108.192 49.6924C108.17 49.7036 108.146 49.7097 108.122 49.71Z" fill="#263238"/>
<path d="M105.481 61.7403C104.951 61.7381 104.432 61.5892 103.982 61.31C103.532 61.0309 103.168 60.6324 102.931 60.1589C102.693 59.6854 102.592 59.1553 102.638 58.6276C102.683 58.0999 102.874 57.5952 103.19 57.1695C103.414 56.8685 103.696 56.6148 104.019 56.4227C104.342 56.2307 104.699 56.1041 105.071 56.0502C105.09 56.0469 105.109 56.0475 105.128 56.052C105.146 56.0564 105.164 56.0647 105.179 56.0762C105.195 56.0878 105.208 56.1023 105.217 56.119C105.227 56.1357 105.233 56.1542 105.235 56.1733C105.24 56.2113 105.23 56.2498 105.207 56.2804C105.184 56.3111 105.15 56.3315 105.112 56.3374C104.438 56.436 103.831 56.7983 103.424 57.3445C103.018 57.8907 102.845 58.576 102.943 59.2498C103.042 59.9235 103.404 60.5304 103.951 60.9371C104.497 61.3437 105.182 61.5167 105.856 61.418C105.895 61.4118 105.934 61.4212 105.966 61.4443C105.998 61.4674 106.02 61.5022 106.026 61.541C106.032 61.5799 106.023 61.6196 106 61.6515C105.976 61.6834 105.942 61.7048 105.903 61.711C105.763 61.7295 105.622 61.7393 105.481 61.7403Z" fill="#263238"/>
<path d="M120.252 66.1702C119.702 66.1694 119.165 66.0086 118.705 65.7073C118.672 65.6857 118.649 65.6523 118.641 65.6141C118.632 65.576 118.638 65.5359 118.658 65.5022C118.681 65.4705 118.714 65.4486 118.753 65.4409C118.791 65.4333 118.83 65.4406 118.863 65.4612C119.434 65.8319 120.129 65.9605 120.795 65.8187C121.461 65.6769 122.044 65.2764 122.414 64.7052C122.785 64.1341 122.914 63.4391 122.772 62.7731C122.63 62.1071 122.23 61.5248 121.659 61.1541C121.626 61.1325 121.603 61.0991 121.594 61.0609C121.585 61.0227 121.592 60.9826 121.612 60.949C121.634 60.9173 121.668 60.8954 121.706 60.8877C121.744 60.8801 121.784 60.8873 121.817 60.908C122.452 61.3216 122.897 61.9701 123.056 62.7114C123.214 63.4528 123.072 64.2266 122.661 64.8635C122.458 65.1803 122.193 65.4534 121.884 65.6668C121.574 65.8801 121.224 66.0294 120.856 66.1058C120.657 66.1475 120.455 66.1691 120.252 66.1702Z" fill="#263238"/>
<path d="M108.786 57.7967C110.909 57.7967 112.63 56.0756 112.63 53.9526C112.63 51.8295 110.909 50.1084 108.786 50.1084C106.662 50.1084 104.941 51.8295 104.941 53.9526C104.941 56.0756 106.662 57.7967 108.786 57.7967Z" fill="#263238"/>
<path d="M112.393 62.7321C114.384 60.7411 114.384 57.5131 112.393 55.5221C110.402 53.5311 107.174 53.5311 105.183 55.5221C103.192 57.5131 103.192 60.7411 105.183 62.732C107.174 64.723 110.402 64.723 112.393 62.7321Z" fill="#263238"/>
<path d="M109.323 71.2444C112.436 71.2444 114.96 68.7205 114.96 65.6071C114.96 62.4936 112.436 59.9697 109.323 59.9697C106.209 59.9697 103.686 62.4936 103.686 65.6071C103.686 68.7205 106.209 71.2444 109.323 71.2444Z" fill="#263238"/>
<path d="M120.45 67.285C121.165 64.2548 119.288 61.2186 116.258 60.5035C113.228 59.7883 110.192 61.6649 109.477 64.6951C108.761 67.7252 110.638 70.7614 113.668 71.4766C116.698 72.1918 119.735 70.3151 120.45 67.285Z" fill="#263238"/>
<path d="M133.661 77.6211C133.661 78.0782 133.661 78.6583 133.702 79.1857C133.743 79.7131 133.743 80.2757 133.778 80.8207C133.854 81.9106 133.93 83.0123 134.047 84.1081C134.258 86.3076 134.553 88.4973 134.932 90.6772C135.032 91.2163 135.12 91.7671 135.231 92.3063L135.489 93.6365C135.554 93.8474 135.489 93.8064 135.407 93.8006C135.325 93.7947 135.407 93.906 135.753 93.906C136.638 93.8173 137.499 93.5691 138.296 93.1735C138.765 92.9626 139.245 92.734 139.726 92.4879C140.206 92.2418 140.693 91.9605 141.132 91.7144L142.843 93.6892C142.435 94.1568 142.001 94.6009 141.542 95.0194C141.091 95.4491 140.614 95.8503 140.113 96.2207C139.588 96.6159 139.033 96.9705 138.454 97.2814C137.796 97.641 137.089 97.9054 136.356 98.0667C135.904 98.1652 135.441 98.2046 134.979 98.1838C134.415 98.1511 133.862 98.012 133.35 97.7737C132.805 97.5178 132.32 97.1505 131.926 96.6954C131.588 96.2998 131.311 95.8553 131.106 95.3769C130.947 95.0109 130.817 94.6327 130.719 94.2459L130.49 93.3904C130.326 92.8044 130.192 92.2477 130.051 91.6734C129.503 89.3697 129.08 87.0379 128.785 84.6883C128.639 83.5163 128.522 82.3443 128.451 81.143C128.416 80.557 128.387 79.971 128.369 79.3498C128.352 78.7287 128.369 78.1778 128.369 77.4805L133.661 77.6211Z" fill="#FFB573"/>
<path d="M130.819 71.3038C135.818 75.1304 135.619 82.344 135.619 82.344L126.676 84.4829C126.676 84.4829 123.934 77.2283 125.047 74.5737C126.207 71.8078 128.007 69.1473 130.819 71.3038Z" fill="#F97063"/>
<path opacity="0.7" d="M130.819 71.3038C135.818 75.1304 135.619 82.344 135.619 82.344L126.676 84.4829C126.676 84.4829 123.934 77.2283 125.047 74.5737C126.207 71.8078 128.007 69.1473 130.819 71.3038Z" fill="white"/>
<path d="M140.799 92.388L142.276 89.9033L145.979 93.8647C145.979 93.8647 143.325 95.5641 140.57 94.3511L140.799 92.388Z" fill="#FFB573"/>
<path d="M144.098 88.7139L148.85 91.5149L145.979 93.8648L142.275 89.9034L144.098 88.7139Z" fill="#FFB573"/>
<path d="M102.838 207.361L107.948 207.853L111.124 195.881L106.008 195.389L102.838 207.361Z" fill="#FFB573"/>
<path d="M76.6426 197.3L81.231 199.703L86.6866 188.885L82.0982 186.482L76.6426 197.3Z" fill="#FFB573"/>
<path d="M82.4561 197.598L78.3541 193.432C78.286 193.359 78.1931 193.314 78.0936 193.305C77.994 193.296 77.8948 193.325 77.815 193.385L74.047 196.157C73.9557 196.23 73.8807 196.322 73.8271 196.427C73.7735 196.531 73.7423 196.645 73.7357 196.762C73.7291 196.879 73.7471 196.997 73.7886 197.106C73.8301 197.216 73.8942 197.316 73.9767 197.399C75.43 198.829 76.2035 199.444 78.0084 201.279C79.1218 202.404 81.4072 205.058 82.9425 206.617C84.4778 208.176 86.0952 206.74 85.5971 205.955C83.3586 202.439 82.9835 200.23 82.8429 198.442C82.8175 198.124 82.6805 197.825 82.4561 197.598Z" fill="#263238"/>
<path d="M108.745 206.3H102.551C102.44 206.301 102.333 206.339 102.245 206.406C102.158 206.474 102.094 206.568 102.065 206.675L100.741 211.545C100.707 211.661 100.702 211.783 100.725 211.901C100.747 212.019 100.798 212.13 100.871 212.225C100.945 212.321 101.04 212.397 101.148 212.449C101.257 212.501 101.376 212.526 101.496 212.524C103.671 212.524 104.702 212.524 107.415 212.524H115.719C117.975 212.524 118.449 210.244 117.512 210.033C113.328 209.107 110.914 207.83 109.624 206.611C109.38 206.402 109.067 206.291 108.745 206.3Z" fill="#263238"/>
<path opacity="0.2" d="M111.118 195.888L109.483 202.058H104.238L106.002 195.395L111.118 195.888Z" fill="black"/>
<path opacity="0.2" d="M82.0941 186.482L86.6883 188.891L83.8755 194.464L79.2812 192.055L82.0941 186.482Z" fill="black"/>
<path d="M129.306 70.5657C129.306 70.5657 131.568 71.5561 123.985 101.559L102.924 99.7368C104.02 91.1988 104.483 85.9131 101.91 67.9639C104.913 67.6123 107.936 67.4772 110.958 67.5595C114.161 67.608 117.357 67.8841 120.522 68.3858C123.485 68.9636 126.416 69.6912 129.306 70.5657Z" fill="#F97063"/>
<path opacity="0.7" d="M129.306 70.5657C129.306 70.5657 131.568 71.5561 123.985 101.559L102.924 99.7368C104.02 91.1988 104.483 85.9131 101.91 67.9639C104.913 67.6123 107.936 67.4772 110.958 67.5595C114.161 67.608 117.357 67.8841 120.522 68.3858C123.485 68.9636 126.416 69.6912 129.306 70.5657Z" fill="white"/>
<path d="M110.96 67.3887C110.96 67.3887 109.788 67.3887 108.352 67.3887C107.502 68.6955 111.088 72.5103 115.648 76.2607C116.749 72.8443 118.484 72.8561 118.484 72.8561L110.96 67.3887Z" fill="white"/>
<path d="M120.516 68.3096C120.516 68.3096 121.049 68.3857 122.327 68.6787C123.17 69.9855 123.645 73.2554 121.155 76.1034C120.176 72.5874 118.488 72.9038 118.488 72.9038L120.516 68.3096Z" fill="white"/>
<path d="M112.834 56.8701C113.174 59.9994 113.285 65.6601 110.959 67.5588C110.959 67.5588 113.444 70.102 118.483 72.9031C122.14 70.3716 120.523 68.385 120.523 68.385C117.159 67.2716 117.469 64.7342 118.272 62.3902L112.834 56.8701Z" fill="#FFB573"/>
<path opacity="0.2" d="M115.055 59.126L118.272 62.39C118.074 62.9325 117.925 63.4914 117.827 64.0601C116.537 63.7612 114.662 62.4134 114.639 61.0305C114.661 60.3757 114.802 59.7304 115.055 59.126Z" fill="black"/>
<path d="M124.918 46.6624C127.075 48.5727 127.708 53.2256 125.657 56.3841C125.041 53.1822 124.793 49.9205 124.918 46.6624Z" fill="#263238"/>
<path d="M112.179 50.3015C111.804 55.4524 111.54 57.6265 113.767 60.5975C117.119 65.0687 123.529 64.3948 125.434 59.4607C127.151 55.0129 127.473 47.3363 122.744 44.629C121.705 44.0224 120.528 43.6926 119.325 43.6712C118.121 43.6497 116.933 43.9373 115.873 44.5065C114.813 45.0757 113.916 45.9073 113.27 46.9219C112.623 47.9366 112.247 49.1002 112.179 50.3015Z" fill="#FFB573"/>
<path d="M111.492 54.4504C115.301 54.3039 117.411 49.3229 116.456 47.2192C120.775 49.4694 127.314 51.2391 126.588 48.3443C125.609 44.4357 120.88 41.5701 115.061 43.6563C111.692 45.1213 108.809 48.3443 111.492 54.4504Z" fill="#263238"/>
<path d="M110.334 54.4438C110.497 55.4287 111.039 56.3104 111.846 56.8991C112.924 57.6668 113.908 56.8112 113.985 55.5631C114.055 54.4321 113.58 52.6741 112.314 52.4045C112.037 52.3495 111.751 52.3647 111.481 52.4487C111.211 52.5327 110.967 52.683 110.77 52.8857C110.573 53.0884 110.43 53.3372 110.354 53.6093C110.278 53.8815 110.271 54.1683 110.334 54.4438Z" fill="#FFB573"/>
<path d="M123.987 101.559C123.987 101.559 128.751 132.646 126.096 152.617C124.086 167.706 111.118 200.265 111.118 200.265L102.697 200.036C102.697 200.036 111.394 168.48 113.193 156.086C116.269 134.861 108.563 100.246 108.563 100.246L123.987 101.559Z" fill="#263238"/>
<path opacity="0.2" d="M115.77 107.929L111.275 115.013C112.629 123.414 113.488 131.886 113.848 140.387C120.165 129.077 117.2 113.912 115.77 107.929Z" fill="black"/>
<path d="M112.431 200.734L101.848 200.447L102.492 197.042L113.427 197.106L112.431 200.734Z" fill="#F97063"/>
<path d="M119.381 101.225C119.381 101.225 115.865 135.646 107.831 154.375C101.332 169.494 85.8385 193.678 85.8385 193.678L79.6504 190.056C79.6504 190.056 89.6124 163.165 94.5289 153.086C106.524 128.374 95.3669 108.55 102.926 99.7598L119.381 101.225Z" fill="#263238"/>
<path d="M86.5126 194.206L78.6191 189.875L79.9025 186.5L88.3116 191.247L86.5126 194.206Z" fill="#F97063"/>
<path d="M102.715 98.4772L101.602 100.282C101.52 100.417 101.678 100.587 101.924 100.604L124.011 102.515C124.198 102.515 124.368 102.45 124.386 102.333L124.743 100.464C124.743 100.335 124.608 100.212 124.403 100.194L103.073 98.3483C103.007 98.3383 102.94 98.3449 102.878 98.3674C102.815 98.3899 102.759 98.4276 102.715 98.4772Z" fill="#F97063"/>
<path d="M105.374 101.108L104.788 101.061C104.677 101.061 104.595 100.984 104.607 100.914L105.087 98.4881C105.087 98.4119 105.21 98.3651 105.322 98.3768L105.908 98.4237C106.025 98.4237 106.107 98.4998 106.089 98.5702L105.615 100.996C105.591 101.067 105.48 101.119 105.374 101.108Z" fill="#263238"/>
<path d="M122.387 102.579L121.801 102.532C121.684 102.532 121.602 102.456 121.62 102.386L122.1 99.9597C122.1 99.8893 122.217 99.8366 122.329 99.8483L122.915 99.8952C123.026 99.8952 123.108 99.9714 123.096 100.042L122.616 102.468C122.604 102.55 122.475 102.591 122.387 102.579Z" fill="#263238"/>
<path d="M113.878 101.846L113.292 101.793C113.181 101.793 113.099 101.717 113.11 101.646L113.591 99.2204C113.591 99.1501 113.708 99.0973 113.825 99.1091L114.411 99.1618C114.523 99.1618 114.605 99.238 114.593 99.3083L114.113 101.734C114.101 101.805 113.995 101.852 113.878 101.846Z" fill="#263238"/>
<path d="M120.248 52.8622C120.189 53.2783 120.365 53.6475 120.634 53.6826C120.904 53.7178 121.173 53.4131 121.22 52.997C121.267 52.5809 121.097 52.2117 120.828 52.1766C120.558 52.1414 120.3 52.4462 120.248 52.8622Z" fill="#263238"/>
<path d="M124.947 53.496C124.894 53.9121 125.07 54.2812 125.339 54.3164C125.609 54.3516 125.879 54.0468 125.925 53.6308C125.972 53.2147 125.808 52.8455 125.539 52.8104C125.269 52.7752 125.005 53.0799 124.947 53.496Z" fill="#263238"/>
<path d="M125.404 52.8153L126.447 52.663C126.447 52.663 125.838 53.372 125.404 52.8153Z" fill="#263238"/>
<path d="M123.1 53.9521C123.344 54.9499 123.722 55.91 124.225 56.806C123.993 56.9292 123.737 57.0004 123.475 57.0145C123.213 57.0287 122.951 56.9855 122.707 56.888L123.1 53.9521Z" fill="#ED893E"/>
<path d="M120.271 58.1302C119.446 57.8616 118.755 57.2897 118.337 56.5304C118.326 56.5061 118.325 56.4788 118.334 56.4539C118.343 56.4289 118.36 56.4081 118.384 56.3956C118.409 56.3834 118.437 56.3814 118.464 56.3902C118.49 56.399 118.512 56.4178 118.524 56.4425C118.785 56.899 119.149 57.2877 119.588 57.5769C120.027 57.8661 120.528 58.0476 121.05 58.1067C121.076 58.1067 121.102 58.1172 121.12 58.1359C121.139 58.1546 121.15 58.1799 121.15 58.2064C121.15 58.2328 121.139 58.2581 121.12 58.2768C121.102 58.2955 121.076 58.306 121.05 58.306C120.784 58.2767 120.523 58.2177 120.271 58.1302Z" fill="#263238"/>
<path d="M118.108 50.4534C118.074 50.4393 118.044 50.4172 118.02 50.3889C118.001 50.3703 117.985 50.348 117.975 50.3234C117.964 50.2987 117.959 50.2722 117.959 50.2453C117.959 50.2185 117.964 50.192 117.975 50.1673C117.985 50.1427 118.001 50.1204 118.02 50.1018C118.307 49.845 118.652 49.6618 119.026 49.5679C119.4 49.474 119.79 49.4722 120.165 49.5627C120.19 49.57 120.214 49.5824 120.235 49.5992C120.256 49.6159 120.273 49.6367 120.285 49.6602C120.298 49.6837 120.306 49.7094 120.308 49.736C120.311 49.7625 120.308 49.7892 120.3 49.8146C120.285 49.8665 120.25 49.9104 120.203 49.9368C120.155 49.9631 120.1 49.9698 120.048 49.9553C119.739 49.8867 119.419 49.8923 119.114 49.9718C118.808 50.0513 118.525 50.2023 118.29 50.4124C118.264 50.4319 118.235 50.4457 118.203 50.4528C118.172 50.4599 118.139 50.4601 118.108 50.4534Z" fill="#263238"/>
<path d="M126.923 51.7021C126.892 51.6901 126.864 51.6722 126.841 51.6493C126.635 51.4082 126.376 51.2189 126.084 51.0968C125.792 50.9746 125.475 50.923 125.159 50.9461C125.132 50.9521 125.104 50.9523 125.078 50.9467C125.051 50.9412 125.025 50.93 125.003 50.9139C124.981 50.8979 124.963 50.8773 124.949 50.8535C124.935 50.8298 124.927 50.8034 124.924 50.7762C124.916 50.7226 124.929 50.6678 124.961 50.6239C124.993 50.58 125.041 50.5504 125.094 50.5418C125.477 50.5074 125.862 50.5649 126.218 50.7097C126.574 50.8544 126.89 51.0822 127.139 51.3739C127.168 51.4078 127.185 51.4499 127.187 51.4941C127.19 51.5383 127.178 51.5821 127.154 51.619C127.129 51.6559 127.094 51.6839 127.052 51.6989C127.01 51.7139 126.965 51.715 126.923 51.7021Z" fill="#263238"/>
<path d="M131.557 95.9158C131.936 94.7338 132.545 93.6381 133.348 92.6912C134.151 91.7443 135.132 90.9649 136.236 90.3973C137.34 89.8298 138.545 89.4853 139.783 89.3834C141.02 89.2816 142.265 89.4244 143.447 89.8038C144.629 90.1832 145.725 90.7917 146.672 91.5945C147.618 92.3974 148.398 93.3789 148.965 94.483C149.533 95.5871 149.878 96.7921 149.979 98.0293C150.081 99.2666 149.938 100.512 149.559 101.694L145.914 113.097L127.912 107.314L131.557 95.9158Z" fill="#F97063"/>
<path opacity="0.3" d="M131.557 95.9158C131.936 94.7338 132.545 93.6381 133.348 92.6912C134.151 91.7443 135.132 90.9649 136.236 90.3973C137.34 89.8298 138.545 89.4853 139.783 89.3834C141.02 89.2816 142.265 89.4244 143.447 89.8038C144.629 90.1832 145.725 90.7917 146.672 91.5945C147.618 92.3974 148.398 93.3789 148.965 94.483C149.533 95.5871 149.878 96.7921 149.979 98.0293C150.081 99.2666 149.938 100.512 149.559 101.694L145.914 113.097L127.912 107.314L131.557 95.9158Z" fill="black"/>
<path d="M113.795 90.2078L110.502 100.463C110.453 100.61 110.435 100.766 110.447 100.92C110.459 101.075 110.502 101.225 110.573 101.363C110.644 101.501 110.741 101.623 110.86 101.723C110.978 101.823 111.115 101.899 111.263 101.945L127.906 107.29L131.562 95.9095C132.33 93.5246 134.012 91.5418 136.241 90.3969C138.469 89.2519 141.061 89.0385 143.446 89.8034L125.685 84.0958C123.298 83.3325 120.705 83.5474 118.476 84.6932C116.247 85.839 114.563 87.8222 113.795 90.2078Z" fill="#F97063"/>
<path d="M122.725 97.9841L127.313 83.7033C127.329 83.652 127.333 83.5979 127.327 83.5448C127.32 83.4916 127.301 83.4405 127.273 83.3949C127.245 83.3494 127.207 83.3105 127.162 83.2807C127.118 83.251 127.067 83.2313 127.014 83.2227L122.326 82.5312L121.74 84.383L125.157 85.4788L121.289 97.5153L122.725 97.9841Z" fill="#263238"/>
<path d="M120.289 97.1996C120.183 97.5306 120.177 97.8855 120.273 98.2195C120.369 98.5536 120.561 98.8518 120.826 99.0765C121.091 99.3012 121.417 99.4423 121.762 99.482C122.107 99.5217 122.457 99.4582 122.766 99.2996C123.075 99.1409 123.33 98.8942 123.499 98.5906C123.668 98.287 123.743 97.9401 123.715 97.5937C123.687 97.2474 123.557 96.9171 123.342 96.6446C123.126 96.3721 122.834 96.1697 122.504 96.0628C122.284 95.9916 122.052 95.9646 121.821 95.9833C121.591 96.0019 121.366 96.0659 121.16 96.1715C120.955 96.2771 120.772 96.4223 120.622 96.5987C120.473 96.7751 120.359 96.9793 120.289 97.1996Z" fill="#263238"/>
<path d="M128.773 108.995L151.862 116.408C151.946 116.436 152.034 116.446 152.122 116.439C152.21 116.432 152.295 116.408 152.374 116.367C152.452 116.327 152.522 116.271 152.579 116.204C152.636 116.137 152.679 116.059 152.706 115.975C152.734 115.891 152.745 115.802 152.738 115.714C152.731 115.626 152.707 115.54 152.667 115.461C152.626 115.382 152.571 115.313 152.503 115.256C152.435 115.199 152.356 115.157 152.272 115.131L127.906 107.308C127.797 107.646 127.828 108.015 127.99 108.331C128.153 108.648 128.434 108.886 128.773 108.995Z" fill="#F97063"/>
<path opacity="0.2" d="M128.773 108.995L138.208 112.025C138.292 112.052 138.381 112.063 138.469 112.056C138.558 112.049 138.644 112.025 138.723 111.984C138.802 111.944 138.872 111.889 138.929 111.821C138.987 111.754 139.03 111.676 139.058 111.591C139.111 111.422 139.096 111.238 139.014 111.08C138.933 110.922 138.793 110.803 138.624 110.747L127.906 107.308C127.797 107.646 127.828 108.015 127.99 108.331C128.153 108.648 128.434 108.886 128.773 108.995Z" fill="black"/>
<path d="M104.39 76.2387L104.067 76.5961L103.704 77.0122C103.458 77.2935 103.212 77.5982 102.977 77.8853C102.497 78.4713 102.04 79.0984 101.612 79.7312C99.8414 82.2375 98.4476 84.9897 97.4749 87.9001C97.2405 88.6267 97.0236 89.3534 96.8537 90.0976C96.7951 90.3144 96.7892 90.4023 96.7599 90.5019C96.7554 90.5878 96.7554 90.6739 96.7599 90.7598C96.7505 90.8513 96.7505 90.9436 96.7599 91.0352C96.7599 91.1407 96.9592 91.3868 97.4397 91.6212C98.0174 91.8811 98.6259 92.0662 99.2504 92.172C100.758 92.4116 102.284 92.5117 103.81 92.4709C105.403 92.4709 107.021 92.3302 108.638 92.1603C110.256 91.9904 111.896 91.7794 113.484 91.5391L114.123 94.0765C110.852 95.141 107.487 95.8887 104.073 96.3092C102.276 96.5431 100.459 96.5824 98.6527 96.4264C97.6203 96.3295 96.6065 96.0889 95.6407 95.7115C95.0613 95.4792 94.517 95.1676 94.0233 94.7856C93.4419 94.3297 92.9627 93.7567 92.6169 93.1038C92.0217 91.879 91.8625 90.4876 92.1657 89.16C92.3063 88.2634 92.5114 87.402 92.7517 86.4995C93.2116 84.7672 93.8234 83.0789 94.58 81.4541C95.3387 79.8255 96.2223 78.2582 97.2229 76.7661C97.7269 76.0219 98.266 75.3011 98.8285 74.592C99.1157 74.2404 99.4145 73.8947 99.7075 73.5489L100.182 73.0391C100.352 72.8575 100.487 72.711 100.721 72.4883L104.39 76.2387Z" fill="#FFB573"/>
<path d="M112.207 92.0774L116.309 89.9033L116.491 94.31C116.491 94.31 113.561 95.5231 111.885 94.187L112.207 92.0774Z" fill="#FFB573"/>
<path d="M119.692 89.5693L119.076 93.6303L116.498 94.3101L116.316 89.9034L119.692 89.5693Z" fill="#FFB573"/>
<path d="M101.911 67.9759C99.3266 68.433 95.7109 75.84 95.7109 75.84L102.221 81.7C102.221 81.7 107.396 76.051 107.12 72.6873C106.886 69.8452 105.198 67.3899 101.911 67.9759Z" fill="#F97063"/>
<path opacity="0.7" d="M101.911 67.9759C99.3266 68.433 95.7109 75.84 95.7109 75.84L102.221 81.7C102.221 81.7 107.396 76.051 107.12 72.6873C106.886 69.8452 105.198 67.3899 101.911 67.9759Z" fill="white"/>
<path d="M84.4723 199.86C84.4042 199.869 84.3353 199.869 84.2672 199.86C83.6167 199.825 82.9252 198.829 82.5678 198.243C82.5567 198.226 82.5508 198.207 82.5508 198.187C82.5508 198.167 82.5567 198.148 82.5678 198.131C82.5785 198.114 82.5946 198.101 82.6136 198.093C82.6327 198.086 82.6536 198.085 82.6733 198.09C82.8842 198.131 84.7067 198.542 84.9352 199.157C84.959 199.224 84.9649 199.296 84.9526 199.365C84.9403 199.435 84.9101 199.501 84.8649 199.555C84.7711 199.697 84.6331 199.805 84.4723 199.86ZM82.8725 198.372C83.3941 199.175 83.9097 199.655 84.2789 199.678C84.363 199.68 84.4461 199.66 84.52 199.62C84.594 199.58 84.6563 199.521 84.7008 199.45C84.7261 199.424 84.7434 199.392 84.7507 199.356C84.758 199.321 84.7549 199.284 84.7419 199.251C84.6012 198.876 83.5054 198.524 82.8725 198.372Z" fill="#F97063"/>
<path d="M84.2842 198.243C83.7438 198.392 83.1768 198.416 82.6258 198.314C82.6085 198.308 82.5929 198.298 82.5806 198.285C82.5683 198.271 82.5596 198.255 82.5555 198.237C82.5473 198.222 82.543 198.205 82.543 198.188C82.543 198.17 82.5473 198.153 82.5555 198.138C82.6023 198.097 83.6689 197.054 84.4131 197.106C84.5051 197.108 84.5954 197.131 84.6769 197.174C84.7583 197.216 84.8285 197.278 84.8819 197.353C84.9459 197.421 84.9853 197.509 84.9937 197.602C85.0022 197.696 84.9794 197.789 84.9288 197.868C84.7605 198.06 84.5341 198.192 84.2842 198.243ZM82.8719 198.15C83.4579 198.232 84.5537 198.085 84.7823 197.751C84.8174 197.698 84.8467 197.616 84.7412 197.481C84.7058 197.43 84.6586 197.388 84.6036 197.358C84.5486 197.329 84.4873 197.313 84.4248 197.312C83.915 197.276 83.1766 197.874 82.8719 198.15Z" fill="#F97063"/>
<path d="M110.929 207.086C110.363 207.072 109.799 207 109.248 206.869C109.228 206.862 109.212 206.85 109.2 206.833C109.188 206.816 109.182 206.796 109.182 206.775C109.182 206.755 109.188 206.735 109.2 206.718C109.212 206.701 109.228 206.689 109.248 206.682C109.5 206.559 111.744 205.51 112.307 205.908C112.357 205.943 112.398 205.99 112.423 206.046C112.449 206.102 112.459 206.164 112.453 206.225C112.45 206.339 112.421 206.451 112.369 206.553C112.316 206.655 112.24 206.743 112.148 206.811C111.781 207.027 111.354 207.124 110.929 207.086ZM109.599 206.734C110.261 206.858 111.492 207.022 112.002 206.641C112.067 206.589 112.121 206.525 112.159 206.451C112.198 206.377 112.22 206.296 112.224 206.213C112.23 206.187 112.227 206.16 112.216 206.136C112.206 206.112 112.188 206.092 112.166 206.078C111.849 205.861 110.525 206.324 109.582 206.734H109.599Z" fill="#F97063"/>
<path d="M109.265 206.857C109.244 206.863 109.222 206.863 109.201 206.857C109.187 206.844 109.176 206.827 109.17 206.809C109.164 206.791 109.162 206.771 109.166 206.752C109.166 206.658 109.699 204.449 110.924 204.589C111.229 204.63 111.311 204.777 111.328 204.9C111.404 205.486 109.992 206.594 109.318 206.875L109.265 206.857ZM110.801 204.765C110.027 204.765 109.576 206.054 109.424 206.57C110.156 206.183 111.182 205.263 111.117 204.906C111.117 204.877 111.117 204.795 110.889 204.771L110.801 204.765Z" fill="#F97063"/>
<path d="M120.717 52.1826L121.754 52.0303C121.754 52.0303 121.139 52.7393 120.717 52.1826Z" fill="#263238"/>
<path d="M156.772 101.208L134.082 105.896C133.694 105.969 133.293 105.887 132.965 105.668C132.636 105.449 132.406 105.11 132.324 104.724L131.264 99.8015L130.883 97.9849L131.551 95.9105C131.644 95.6127 131.755 95.3211 131.885 95.0373C131.899 94.9923 131.919 94.949 131.943 94.9084C132.318 94.0547 132.822 93.2641 133.438 92.5644L134.61 92.3183L154.065 88.2807C154.453 88.2079 154.854 88.2897 155.183 88.5087C155.511 88.7277 155.741 89.0665 155.823 89.4527L157.892 99.4147C157.976 99.8006 157.907 100.204 157.697 100.539C157.488 100.875 157.156 101.115 156.772 101.208Z" fill="#F97063"/>
<path opacity="0.3" d="M155.647 88.925L144.701 100.059L142.357 99.1097L133.238 95.412L131.955 94.8905C132.329 94.0368 132.833 93.2461 133.449 92.5465L134.621 92.3003L154.077 88.2628C154.375 88.2033 154.684 88.2346 154.964 88.3526C155.244 88.4707 155.482 88.6701 155.647 88.925Z" fill="black"/>
<path d="M155.647 88.925L142.357 99.1273L141.489 99.7953L133.139 95.6523L131.896 95.0663C131.911 95.0213 131.931 94.978 131.955 94.9374C132.329 94.0837 132.833 93.293 133.449 92.5934L134.621 92.3473L154.077 88.3097C154.37 88.2454 154.676 88.2696 154.955 88.3791C155.235 88.4887 155.475 88.6786 155.647 88.925Z" fill="#F97063"/>
<path opacity="0.2" d="M155.647 88.925L142.357 99.1273L141.489 99.7953L133.139 95.6523L131.896 95.0663C131.911 95.0213 131.931 94.978 131.955 94.9374C132.329 94.0837 132.833 93.293 133.449 92.5934L134.621 92.3473L154.077 88.3097C154.37 88.2454 154.676 88.2696 154.955 88.3791C155.235 88.4887 155.475 88.6786 155.647 88.925Z" fill="white"/>
<path d="M184.472 121.758L177.557 129.212C177.285 129.502 176.908 129.674 176.51 129.688C176.111 129.702 175.723 129.558 175.43 129.288L158.471 113.495C158.179 113.223 158.007 112.846 157.993 112.448C157.979 112.049 158.123 111.661 158.395 111.368L165.333 103.914C165.468 103.768 165.63 103.65 165.81 103.567C165.991 103.484 166.186 103.438 166.384 103.431C166.582 103.424 166.78 103.456 166.966 103.526C167.152 103.596 167.322 103.702 167.467 103.838L184.419 119.631C184.639 119.835 184.793 120.101 184.861 120.393C184.929 120.685 184.908 120.991 184.8 121.272C184.727 121.455 184.615 121.621 184.472 121.758Z" fill="#F97063"/>
<path opacity="0.3" d="M184.777 121.302L169.354 118.788L165.773 103.552C166.047 103.426 166.351 103.384 166.648 103.431C166.946 103.478 167.222 103.612 167.444 103.816L184.397 119.608C184.627 119.817 184.787 120.091 184.855 120.395C184.924 120.698 184.896 121.015 184.777 121.302Z" fill="black"/>
<path d="M184.777 121.302L169.758 116.824L165.773 103.604C166.047 103.478 166.351 103.436 166.648 103.483C166.946 103.53 167.222 103.664 167.444 103.868L184.397 119.661C184.616 119.865 184.77 120.131 184.838 120.423C184.906 120.715 184.885 121.021 184.777 121.302Z" fill="#F97063"/>
<path opacity="0.2" d="M184.777 121.302L169.758 116.824L165.773 103.604C166.047 103.478 166.351 103.436 166.648 103.483C166.946 103.53 167.222 103.664 167.444 103.868L184.397 119.661C184.616 119.865 184.77 120.131 184.838 120.423C184.906 120.715 184.885 121.021 184.777 121.302Z" fill="white"/>
<path d="M190.502 134.035L198.12 142.931C198.266 143.101 198.375 143.299 198.441 143.513C198.508 143.727 198.53 143.952 198.506 144.174C198.483 144.397 198.414 144.613 198.304 144.808C198.195 145.003 198.046 145.174 197.868 145.31L181.32 158.202C181.041 158.369 180.711 158.427 180.393 158.364C180.074 158.302 179.79 158.122 179.597 157.862L173.637 151.064C173.525 150.934 173.432 150.788 173.362 150.631C173.251 150.415 173.205 150.172 173.229 149.931C173.253 149.69 173.346 149.461 173.496 149.271L188.146 133.971C188.375 133.723 188.677 133.555 189.009 133.492C189.34 133.429 189.683 133.473 189.986 133.619C190.183 133.724 190.358 133.865 190.502 134.035Z" fill="#F97063"/>
<path opacity="0.3" d="M189.987 133.637L186.347 149.822L173.385 150.648C173.274 150.433 173.228 150.19 173.252 149.949C173.276 149.708 173.369 149.478 173.52 149.289L188.17 133.988C188.397 133.746 188.695 133.581 189.021 133.518C189.347 133.455 189.685 133.496 189.987 133.637Z" fill="black"/>
<path d="M189.986 133.637L183.886 150.812L173.373 150.648C173.263 150.433 173.217 150.19 173.241 149.949C173.264 149.708 173.357 149.478 173.508 149.289L188.158 133.988C188.386 133.743 188.686 133.577 189.015 133.514C189.344 133.451 189.684 133.494 189.986 133.637Z" fill="#F97063"/>
<path opacity="0.2" d="M189.986 133.637L183.886 150.812L173.373 150.648C173.263 150.433 173.217 150.19 173.241 149.949C173.264 149.708 173.357 149.478 173.508 149.289L188.158 133.988C188.386 133.743 188.686 133.577 189.015 133.514C189.344 133.451 189.684 133.494 189.986 133.637Z" fill="white"/>
</svg>
