<svg width="1229" height="1244" viewBox="0 0 1229 1244" fill="none" xmlns="http://www.w3.org/2000/svg">
<path d="M308.365 7.19238H70.1182V255.54H308.365V7.19238Z" fill="#E0E0E0"/>
<path d="M292.231 7.19238H53.9844V255.54H292.231V7.19238Z" fill="#EBEBEB"/>
<path d="M260.217 40.5823H86.0283V222.15H260.217V40.5823Z" fill="#FAFAFA"/>
<path d="M86.0281 223.357C84.7465 225.187 83.2899 226.888 81.679 228.436C78.8731 231.241 74.9449 235.31 70.4555 239.659C65.9661 244.008 62.0379 247.852 59.232 250.574C57.7144 252.149 56.0516 253.577 54.2656 254.839C55.497 253.003 56.917 251.301 58.5025 249.76C61.3084 246.954 65.2366 242.858 69.726 238.537C74.2154 234.216 78.1436 230.344 81.0898 227.594C82.576 226.005 84.232 224.584 86.0281 223.357Z" fill="#E0E0E0"/>
<path d="M260.217 222.824C261.998 224.113 263.652 225.569 265.155 227.173C267.961 229.979 272.03 233.907 276.379 238.396C280.728 242.886 284.544 246.814 287.293 249.62C288.876 251.13 290.305 252.793 291.558 254.586C289.763 253.325 288.108 251.877 286.62 250.265C283.814 247.459 279.746 243.531 275.397 239.042C271.047 234.552 267.231 230.624 264.482 227.818C262.888 226.308 261.458 224.634 260.217 222.824Z" fill="#E0E0E0"/>
<path d="M259.739 41.0591C261.017 39.2695 262.475 37.6148 264.088 36.1208C266.894 33.3149 270.794 29.2464 275.172 24.8973C279.549 20.5482 283.589 16.7042 286.535 13.9825C288.058 12.4025 289.731 10.9741 291.53 9.71753C290.246 11.4941 288.789 13.1389 287.181 14.6278C284.375 17.4337 280.475 21.5303 275.957 25.8513C271.44 30.1723 267.54 34.0445 264.565 36.7942C263.105 38.3752 261.488 39.8041 259.739 41.0591Z" fill="#E0E0E0"/>
<path d="M85.5506 41.5081C83.7695 40.2193 82.1158 38.7629 80.6122 37.159C77.8064 34.3531 73.7098 30.4249 69.3887 25.9355C65.0677 21.4461 61.1956 17.5179 58.4458 14.712C56.8659 13.2073 55.446 11.5429 54.209 9.74561C55.9833 11.0216 57.628 12.4689 59.1193 14.0666C61.9251 16.8725 66.0217 20.8007 70.3428 25.2901C74.6638 29.7795 78.5359 33.7078 81.2857 36.5136C82.8794 38.0235 84.3089 39.6976 85.5506 41.5081Z" fill="#E0E0E0"/>
<path d="M259.74 222.15C259.74 222.15 259.74 221.842 259.74 221.281C259.74 220.719 259.74 219.821 259.74 218.755C259.74 216.483 259.74 213.144 259.74 208.963C259.74 200.377 259.74 187.863 259.74 171.953C259.74 140.163 259.572 94.8479 259.431 40.5823L260.021 41.1435H86.3089L86.9542 40.4981C86.9542 107.138 86.9542 169.568 86.9542 222.066L86.3931 221.505L212.208 221.786L247.506 221.954H256.85H247.647H212.433L86.1686 222.235H85.6074V221.673C85.6074 169.091 85.6074 106.633 85.6074 40.1053V39.4319H86.2808H259.992H260.554V40.0211C260.554 94.427 260.329 139.882 260.273 171.897C260.273 187.75 260.273 200.208 260.105 208.766C260.105 212.975 260.105 216.23 260.105 218.447C260.105 219.513 260.105 220.327 260.105 220.916C260.105 221.505 259.74 222.15 259.74 222.15Z" fill="#E0E0E0"/>
<path d="M131.988 116.425C131.988 116.425 128.256 161.319 176.882 161.319C176.938 137.385 157.157 118.445 131.988 116.425Z" fill="#EBEBEB"/>
<path d="M221.075 116.453C221.075 116.453 176.181 112.721 176.181 161.347C200.115 161.431 219.054 141.622 221.075 116.453Z" fill="#EBEBEB"/>
<path d="M174.778 91.8455C174.778 91.8455 138.049 124.814 176.798 161.375C194.811 142.295 193.184 112.356 174.778 91.8455Z" fill="#E0E0E0"/>
<path d="M921.757 916.604C906.931 907.337 890.184 901.579 872.794 899.769C864.797 898.955 855.959 899.18 849.618 904.034C848.883 904.468 848.275 905.088 847.857 905.832C847.438 906.576 847.223 907.417 847.233 908.271C847.632 909.447 848.438 910.441 849.506 911.077C869.427 926.256 899.562 928.192 921.757 916.548" fill="#E0E0E0"/>
<path d="M920.495 915.201C909.156 906.882 898.574 897.577 888.873 887.395C879.134 877.14 872.289 864.485 869.035 850.722C868.194 846.541 867.941 841.771 870.607 838.46C895.859 858.102 915.501 883.607 920.495 915.201Z" fill="#E0E0E0"/>
<path d="M921.504 916.408C919.164 902.646 919.354 888.574 922.066 874.881C925.236 861.328 932.616 848.365 944.204 840.621C948.553 850.806 946.673 862.535 943.615 873.169C938.861 889.655 931.449 905.254 921.673 919.354" fill="#E0E0E0"/>
<path d="M946.196 960.768C931.213 962.592 918.137 970.505 906.914 980.634C895.67 990.891 887.837 1004.35 884.467 1019.19C899.198 1018.29 911.684 1007.96 920.719 996.291C929.754 984.618 936.067 971.88 945.972 960.993" fill="#E0E0E0"/>
<path d="M951.584 967.755C945.682 952.762 943.618 936.533 945.578 920.54C947.538 904.546 953.46 889.296 962.807 876.171C971.365 906.559 968.223 940.903 951.584 967.755Z" fill="#E0E0E0"/>
<path d="M984.216 1006.64C970.504 1005.79 956.844 1008.99 944.939 1015.85C933.034 1022.7 923.41 1032.91 917.267 1045.2C916.426 1046.85 915.696 1048.96 916.819 1050.44C917.396 1051 918.102 1051.41 918.875 1051.64C919.648 1051.86 920.464 1051.9 921.252 1051.73C934.439 1050.89 946.14 1042.95 955.792 1033.92C965.444 1024.88 973.862 1014.42 984.524 1006.62" fill="#E0E0E0"/>
<path d="M983.178 1004.54C976.152 981.906 975.724 957.739 981.943 934.87C984.384 925.891 988.509 916.464 996.814 912.255C997.144 912.032 997.517 911.882 997.908 911.814C998.3 911.746 998.702 911.763 999.087 911.862C999.755 912.214 1000.27 912.805 1000.52 913.518C1003.3 919.791 1004.5 926.65 1004.03 933.495C1003.53 940.313 1002.48 947.078 1000.88 953.726C998.273 966.1 996.898 979.399 990.108 990.062C988.498 992.622 987.055 995.284 985.787 998.03C984.497 1000.84 984.497 1001.71 983.318 1003.87" fill="#E0E0E0"/>
<path d="M1069.6 1017.42C1063.2 993.036 1069.99 963.518 1085.34 943.54C1086.49 942.081 1087.98 940.51 1089.83 940.734C1092.63 940.987 1093.39 944.775 1093.25 947.609C1092.1 972.66 1083.9 996.877 1069.6 1017.48" fill="#E0E0E0"/>
<path d="M1077.4 1022.72C1107 1030.44 1140.95 1022.95 1165.56 1004.79C1150.81 997.399 1133.96 995.337 1117.86 998.956C1101.92 1002.6 1087.36 1009.73 1077.43 1022.72" fill="#E0E0E0"/>
<path d="M1083.96 1006.5C1100.55 979.484 1132.31 961.863 1163.99 960.263C1160.34 973.142 1149.73 983.131 1137.81 989.192C1125.88 995.253 1112.56 997.862 1099.4 1000.42C1094.29 1001.4 1087.28 1002.49 1083.96 1006.5Z" fill="#E0E0E0"/>
<path d="M1071.25 927.828C1075.74 912.451 1080.26 896.963 1081.5 880.969C1082.73 864.976 1080.43 848.337 1072.15 834.616C1056.66 864.583 1055.12 899.572 1070.78 929.427" fill="#E0E0E0"/>
<path d="M1123.39 901.48C1141.48 868.567 1178.41 842.304 1215.78 838.601C1201.36 874.516 1162.05 902.238 1123.39 901.48Z" fill="#E0E0E0"/>
<path d="M1112 907.934C1138.99 912.03 1162 929.287 1187.22 939.724C1192.5 942.288 1198.37 943.411 1204.22 942.979C1206.95 942.965 1209.62 942.111 1211.84 940.533C1214.07 938.955 1215.76 936.729 1216.68 934.158C1217.6 931.586 1217.71 928.794 1216.98 926.161C1216.26 923.527 1214.74 921.18 1212.64 919.438C1209.07 916.143 1204.87 913.596 1200.3 911.946C1172.8 900.498 1143.34 900.218 1114.38 907.148" fill="#E0E0E0"/>
<path d="M1096.37 926.873C1102.48 928.613 1104.56 931.784 1109.41 935.908C1125.92 949.936 1145.44 959.96 1166.46 965.202C1168.65 965.735 1171.48 965.959 1172.57 963.995C1173.67 962.031 1172.32 960.179 1171.09 958.664C1161.92 947.91 1150.03 939.826 1136.66 935.263C1123.47 930.381 1112.08 924.46 1096.37 925.723" fill="#E0E0E0"/>
<path d="M1078.72 812.478C1089.8 822.673 1102.89 830.436 1117.15 835.268C1131.41 840.1 1146.52 841.895 1161.52 840.537C1162.9 840.564 1164.23 840.085 1165.28 839.19C1167.36 836.917 1164.86 833.41 1162.47 831.53C1138.12 812.562 1108.66 804.678 1078.75 812.366" fill="#E0E0E0"/>
<path d="M1099.62 804.846C1114.28 794.056 1131.28 786.886 1149.23 783.921C1167.19 780.956 1185.59 782.281 1202.93 787.786C1189.91 800.609 1171.87 807.427 1153.69 809.392C1135.54 811.054 1117.24 809.515 1099.62 804.846Z" fill="#E0E0E0"/>
<path d="M1091.32 752.292C1088.93 727.993 1090.47 708.829 1088.79 684.418C1088.79 682.454 1088.26 680.125 1086.43 679.424C1083.88 678.441 1081.78 681.556 1080.82 684.137C1077.28 695.453 1076.38 707.427 1078.17 719.147C1079.97 730.866 1084.41 742.02 1091.18 751.759" fill="#E0E0E0"/>
<path d="M1089.58 754.958C1106.05 744.772 1118.39 731.5 1129.81 715.872C1137.75 704.985 1144.46 691.966 1142.66 678.61C1131.44 678.385 1120.89 684.53 1113.62 693.032C1106.7 701.832 1101.66 711.967 1098.84 722.802C1095.61 733.493 1093.36 744.464 1089.58 754.958Z" fill="#E0E0E0"/>
<path d="M1129.11 743.987C1165.33 730.573 1198.86 710.799 1228.13 685.596C1216.32 680.826 1202.88 683.688 1190.95 688.402C1163.93 699.317 1141.85 717.724 1128.61 743.65" fill="#E0E0E0"/>
<path d="M1100.69 768.257C1118.98 770.25 1137.56 771.568 1155.68 768.538C1173.81 765.508 1190.36 758.493 1207 751.478C1208.49 751.024 1209.74 750.021 1210.51 748.672C1210.77 747.901 1210.79 747.069 1210.56 746.287C1210.33 745.505 1209.88 744.811 1209.25 744.295C1207.97 743.276 1206.47 742.574 1204.87 742.247C1186.77 737.168 1167.21 739.441 1149.4 745.558C1132.42 751.318 1116.1 758.841 1100.69 768.005" fill="#E0E0E0"/>
<path d="M996.309 813.32C983.851 788.067 984.665 758.774 995.411 732.819C1003.01 744.38 1003.83 759.082 1002.54 772.859C1001.25 786.636 996.926 800.749 996.702 814.582" fill="#E0E0E0"/>
<path d="M946.477 788.179C930.865 787.976 915.382 791.033 901.018 797.155C886.654 803.276 873.725 812.327 863.059 823.73C878.603 826.171 894.597 822.158 908.738 815.312C922.88 808.466 935.45 798.729 948.02 789.105" fill="#E0E0E0"/>
<path d="M913.003 776.984C897.767 775.749 883.092 773.869 868.445 778.359C853.799 782.848 840.387 793.033 834.522 807.147C848.894 808.301 863.313 805.578 876.274 799.262C889.156 792.945 901.448 785.489 913.003 776.984Z" fill="#E0E0E0"/>
<path d="M962.582 777.489C948.89 768.51 934.804 759.391 918.867 755.659C902.93 751.927 884.411 754.677 873.271 766.714C886.207 774.29 901.863 775.132 916.847 775.132C931.83 775.132 950.18 774.935 964.294 779.93" fill="#E0E0E0"/>
<path d="M962.667 778.218C939.238 755.21 930.371 713.88 939.799 682.454C958.287 710.762 966.37 744.611 962.667 778.218Z" fill="#E0E0E0"/>
<path d="M1027.09 713.038C1031.52 702.768 1034.61 691.994 1038.59 681.528C1042.2 670.919 1047.75 661.071 1054.95 652.487C1062.29 643.863 1072.72 638.462 1083.99 637.448C1080.38 653.294 1073.51 668.214 1063.81 681.258C1054.12 694.302 1041.81 705.182 1027.68 713.206" fill="#E0E0E0"/>
<path d="M1015.45 726.618C1008.12 716.573 999.677 702.909 989.772 695.389C979.867 687.869 966.932 683.324 954.839 686.214C961.107 697.194 969.848 706.563 980.369 713.576C990.889 720.59 1002.9 725.055 1015.45 726.618Z" fill="#E0E0E0"/>
<path d="M1017.77 713.852C1012.98 701.674 1008.15 689.356 1006.21 676.421C1004.28 663.486 1005.46 649.653 1012.08 638.374C1024.93 662.672 1029.08 688.879 1018.42 714.132" fill="#E0E0E0"/>
<path d="M1027.2 638.402C1034.5 614.299 1056.55 596.538 1080.37 588.401C1083.33 587.202 1086.54 586.722 1089.72 586.998C1091.3 587.182 1092.79 587.824 1094.01 588.846C1095.24 589.868 1096.13 591.225 1096.59 592.75C1097.46 596.847 1094.07 600.522 1090.98 603.244C1072.35 619.142 1050.69 631.102 1027.31 638.402" fill="#E0E0E0"/>
<path d="M1027.48 618.676C1028.41 603.16 1029.36 587.391 1034.41 572.66C1039.46 557.929 1049.23 544.124 1063.4 537.699C1065.81 553.384 1058.88 568.984 1050.52 582.593C1042.16 596.201 1032.11 608.828 1027.09 623.895" fill="#E0E0E0"/>
<path d="M1027.09 629.395C1021.09 611.83 1020.44 589.523 1009.95 574.203C1002.59 563.513 990.81 556.218 984.469 544.91C980.645 555.768 981.178 567.686 985.956 578.16C990.734 588.527 997.318 597.961 1005.4 606.022C1013.2 614.439 1019.85 620.584 1027.09 629.395Z" fill="#E0E0E0"/>
<path d="M1027.2 1146.6C1026.75 1146.6 1026.33 1029.43 1026.3 884.954C1026.28 740.479 1026.61 623.25 1027.09 623.25C1027.57 623.25 1027.96 740.395 1027.99 884.954C1028.02 1029.51 1027.68 1146.6 1027.2 1146.6Z" fill="#E0E0E0"/>
<path d="M1129.59 795.643C1128.18 796.332 1126.7 796.886 1125.18 797.298L1113.06 801.395C1102.85 804.874 1088.79 809.812 1073.56 816.154C1058.32 822.495 1044.23 827.882 1036.12 834.897C1032.9 837.606 1030.33 841.012 1028.61 844.858C1027.45 847.664 1027.26 849.291 1027.09 849.263C1027.02 848.854 1027.02 848.437 1027.09 848.029C1027.27 846.863 1027.56 845.717 1027.96 844.605C1029.49 840.52 1032 836.876 1035.28 833.999C1040.18 829.866 1045.65 826.472 1051.53 823.926C1058.01 820.896 1065.22 817.725 1072.85 814.582C1088.15 808.325 1102.32 803.359 1112.64 800.244C1117.8 798.645 1122.01 797.439 1124.96 796.653C1126.47 796.17 1128.02 795.832 1129.59 795.643Z" fill="#E0E0E0"/>
<path d="M1163.15 713.206C1163.15 713.206 1162.78 713.711 1161.91 714.525L1158.15 718.06L1144.12 730.799L1097.4 772.41C1079.17 788.628 1063.43 804.145 1052.51 815.817C1047.04 821.653 1042.72 826.479 1039.77 829.846C1038.43 831.418 1037.3 832.652 1036.38 833.718C1035.45 834.785 1035.17 835.065 1035.11 835.009C1035.4 834.484 1035.74 833.986 1036.12 833.522C1036.83 832.568 1037.86 831.165 1039.27 829.425C1042.07 825.918 1046.25 821.008 1051.61 815.003C1065.71 799.6 1080.62 784.961 1096.28 771.148C1114.58 754.93 1131.24 740.283 1143.34 729.901L1157.73 717.555L1161.69 714.272C1162.13 713.862 1162.62 713.505 1163.15 713.206Z" fill="#E0E0E0"/>
<path d="M1077.74 788.909C1077.26 788.684 1081.05 779.902 1084.86 768.763C1088.68 757.623 1090.47 748.252 1090.98 748.336C1091.48 748.42 1090.33 758.044 1086.46 769.324C1084.84 774.097 1082.97 778.78 1080.85 783.353C1080.08 785.344 1079.03 787.216 1077.74 788.909Z" fill="#E0E0E0"/>
<path d="M1027.31 859.757C1026.27 858.774 1025.33 857.683 1024.51 856.502L1017.3 847.271C1011.26 839.442 1002.9 828.668 993.531 816.855C984.159 805.042 975.545 794.408 969.316 786.804L961.993 777.741C961.031 776.674 960.185 775.507 959.468 774.262C960.579 775.176 961.594 776.201 962.498 777.32C964.378 779.341 967.044 782.343 970.27 786.075C976.752 793.566 985.534 804.032 994.906 815.873C1004.28 827.714 1012.53 838.601 1018.33 846.597C1021.14 850.61 1023.53 853.865 1025.1 856.165C1025.94 857.296 1026.68 858.498 1027.31 859.757Z" fill="#E0E0E0"/>
<path d="M1004.87 830.997C1004.59 831.305 998.61 824.179 995.467 813.404C993.698 807.659 992.976 801.643 993.335 795.643H994.064C993.755 796.99 993.503 797.719 993.363 797.691C993.222 797.663 993.222 796.905 993.363 795.531H994.12C994.471 801.377 995.478 807.165 997.123 812.787C1000.12 823.281 1005.32 830.716 1004.87 830.997Z" fill="#E0E0E0"/>
<path d="M976.022 794.549C974.005 793.003 971.798 791.721 969.457 790.733C963.548 788.966 957.333 788.469 951.219 789.273C945.029 789.751 938.891 790.746 932.868 792.248C930.402 793.038 927.878 793.638 925.32 794.043C927.574 792.708 930.014 791.716 932.56 791.097C938.588 789.224 944.81 788.047 951.106 787.59C957.444 786.746 963.892 787.439 969.906 789.61C972.462 790.485 974.629 792.234 976.022 794.549Z" fill="#E0E0E0"/>
<path d="M969.008 785.71C969.008 785.962 965.192 784.167 958.963 782.034C942.666 776.451 925.213 775.127 908.261 778.19C901.779 779.341 897.851 780.547 897.767 780.267C898.588 779.749 899.488 779.37 900.432 779.144C902.919 778.273 905.459 777.561 908.036 777.012C925.155 773.251 943.002 774.608 959.356 780.912C961.812 781.853 964.211 782.94 966.539 784.167C968.194 785.065 969.064 785.598 969.008 785.71Z" fill="#E0E0E0"/>
<path d="M1027.09 748.336C1026.64 748.336 1023.36 737.112 1019.77 722.858C1016.18 708.605 1013.59 697.073 1014.15 696.96C1014.72 696.848 1017.89 708.184 1021.48 722.438C1025.07 736.691 1027.54 748.224 1027.09 748.336Z" fill="#E0E0E0"/>
<path d="M1027.57 748.336C1027.06 748.504 1024.93 740.872 1019.43 733.072C1015.98 728.461 1011.95 724.312 1007.45 720.726C1009.16 721.152 1010.74 721.968 1012.08 723.111C1015.47 725.599 1018.42 728.645 1020.8 732.118C1024.43 736.841 1026.77 742.433 1027.57 748.336Z" fill="#E0E0E0"/>
<path d="M1027.2 1084.23C1027.03 1084.23 1026.67 1081.42 1025.35 1076.43C1023.42 1069.42 1020.8 1062.63 1017.52 1056.14C1009.44 1039.61 994.71 1018.63 975.995 997.638C966.707 987.031 957.728 977.043 950.096 967.475C943.242 959.047 937.042 950.107 931.55 940.734C927.876 934.41 924.75 927.782 922.206 920.925C921.336 918.456 920.719 916.576 920.354 915.313C920.113 914.586 919.962 913.832 919.905 913.069C920.074 913.069 920.915 915.874 922.851 920.532C925.623 927.254 928.887 933.763 932.616 940.005C938.21 949.228 944.464 958.033 951.331 966.352C958.991 975.808 967.998 985.769 977.285 996.375C996.057 1017.45 1010.76 1038.66 1018.64 1055.49C1021.84 1062.09 1024.32 1069.02 1026.02 1076.15C1026.49 1078.08 1026.84 1080.04 1027.06 1082.01C1027.19 1082.74 1027.24 1083.49 1027.2 1084.23Z" fill="#E0E0E0"/>
<path d="M1119.74 979.652C1118.18 980.683 1116.56 981.62 1114.89 982.458C1110.5 984.956 1106.3 987.769 1102.32 990.875C1096.42 995.457 1090.89 1000.49 1085.79 1005.94C1079.98 1012.06 1074 1019.19 1067.92 1026.79C1055.74 1042.08 1044.35 1055.61 1037.53 1066.41C1034.05 1071.77 1031.52 1076.29 1029.87 1079.46C1029.1 1081.15 1028.21 1082.78 1027.2 1084.34C1027.28 1083.86 1027.43 1083.4 1027.65 1082.96C1028.02 1082.09 1028.52 1080.78 1029.28 1079.18C1031.42 1074.57 1033.83 1070.09 1036.49 1065.76C1043.14 1054.71 1054.45 1040.99 1066.6 1025.72C1072.71 1018.09 1078.75 1010.97 1084.67 1004.85C1089.86 999.417 1095.49 994.424 1101.5 989.921C1105.59 986.898 1109.94 984.241 1114.49 981.981C1116.09 981.167 1117.3 980.662 1118.28 980.297C1118.72 979.984 1119.21 979.764 1119.74 979.652Z" fill="#E0E0E0"/>
<path d="M1121.53 1013.55C1118.16 1014.3 1114.74 1014.8 1111.29 1015.03C1103.07 1015.89 1094.93 1017.48 1086.99 1019.8C1079.15 1022.36 1071.79 1026.23 1065.22 1031.22C1060.2 1035.12 1057.84 1038.32 1057.62 1038.13C1057.97 1037.25 1058.48 1036.45 1059.13 1035.77C1060.72 1033.73 1062.51 1031.85 1064.46 1030.16C1070.95 1024.75 1078.42 1020.65 1086.46 1018.06C1094.51 1015.68 1102.8 1014.21 1111.18 1013.69C1114.62 1013.32 1118.09 1013.28 1121.53 1013.55Z" fill="#E0E0E0"/>
<path d="M1060.59 1034.42C1060.06 1034.11 1064.69 1027.04 1068.25 1017.59C1071.82 1008.13 1072.4 999.63 1073.02 999.714C1073.29 1001.58 1073.23 1003.48 1072.85 1005.33C1072.34 1009.75 1071.33 1014.09 1069.85 1018.29C1068.3 1022.45 1066.31 1026.43 1063.9 1030.16C1063.04 1031.75 1061.92 1033.19 1060.59 1034.42Z" fill="#E0E0E0"/>
<path d="M1149.71 888.629C1149.18 888.968 1148.63 889.26 1148.05 889.499L1143.23 891.688C1141.12 892.586 1138.57 893.736 1135.68 895.251C1132.79 896.766 1129.42 898.282 1125.88 900.414L1120.27 903.585C1118.34 904.707 1116.4 906.026 1114.38 907.288C1110.26 909.814 1106.13 912.9 1101.73 916.015C1082.85 930.108 1066.38 947.164 1052.96 966.52C1049.99 971.038 1047.04 975.275 1044.68 979.484C1043.48 981.56 1042.21 983.524 1041.18 985.488L1038.17 991.1C1036.18 994.691 1034.78 998.115 1033.38 1001.06C1031.97 1004.01 1030.88 1006.67 1030.06 1008.75L1028.04 1013.63C1027.84 1014.22 1027.56 1014.79 1027.23 1015.31C1027.31 1014.7 1027.47 1014.1 1027.71 1013.52C1028.18 1012.2 1028.75 1010.54 1029.45 1008.5C1030.34 1005.85 1031.36 1003.24 1032.51 1000.7C1033.82 997.694 1035.17 994.214 1037.11 990.567L1039.91 984.787C1040.92 982.794 1042.16 980.802 1043.36 978.67C1045.67 974.405 1048.58 970.252 1051.56 965.566C1064.92 945.966 1081.53 928.782 1100.66 914.752C1105.15 911.609 1109.33 908.551 1113.51 906.082C1115.59 904.819 1117.52 903.529 1119.49 902.434L1125.1 899.32C1128.66 897.271 1132.11 895.784 1135.06 894.381C1137.56 893.135 1140.13 892.021 1142.75 891.042L1147.71 889.163C1148.35 888.89 1149.02 888.71 1149.71 888.629Z" fill="#E0E0E0"/>
<path d="M1076.47 937.676C1077.16 935.316 1078.56 933.228 1080.49 931.7C1084.99 927.764 1090.75 925.557 1096.73 925.47C1102.58 925.431 1108.38 926.566 1113.79 928.809C1116.08 929.533 1118.25 930.582 1120.24 931.924C1117.94 931.467 1115.69 930.79 1113.51 929.904C1108.15 928.072 1102.53 927.124 1096.87 927.098C1091.26 927.216 1085.83 929.124 1081.38 932.541C1079.63 934.135 1077.99 935.851 1076.47 937.676Z" fill="#E0E0E0"/>
<path d="M1065.53 948.984C1065.05 948.731 1069.18 942.671 1070.13 934C1071.09 925.33 1068.59 918.484 1069.09 918.344C1069.6 918.203 1070.22 919.859 1071 922.721C1073 930.264 1072.07 938.284 1068.39 945.168C1066.96 947.749 1065.81 949.096 1065.53 948.984Z" fill="#E0E0E0"/>
<path d="M946.28 1101.06C948.806 1145.96 962.302 1191.38 983.065 1237.43H1073.3C1093.11 1191.69 1105.65 1146.24 1107.9 1101.06H946.28Z" fill="#E0E0E0"/>
<path d="M1093.28 1173.37C1093.28 1173.85 1063.57 1174.24 1026.89 1174.24C990.22 1174.24 960.534 1173.85 960.534 1173.37C960.534 1172.89 990.248 1172.53 1026.89 1172.53C1063.54 1172.53 1093.28 1172.92 1093.28 1173.37Z" fill="#FAFAFA"/>
<path d="M1091.26 1189.59C1091.26 1190.06 1063.4 1190.46 1029.05 1190.46C994.71 1190.46 966.819 1190.06 966.819 1189.59C966.819 1189.11 994.682 1188.75 1029.05 1188.75C1063.43 1188.75 1091.26 1189.14 1091.26 1189.59Z" fill="#FAFAFA"/>
<path d="M984.44 1130.33C985.563 1144.17 985.563 1158.07 984.44 1171.91C983.963 1171.91 983.599 1162.59 983.599 1151.12C983.599 1139.64 984.048 1130.33 984.44 1130.33Z" fill="#FAFAFA"/>
<path d="M1032.87 1130.33C1033.35 1130.33 1033.71 1139.95 1033.71 1151.85C1033.71 1163.75 1033.35 1173.37 1032.87 1173.37C1032.39 1173.37 1032.03 1163.75 1032.03 1151.85C1032.03 1139.95 1032.39 1130.33 1032.87 1130.33Z" fill="#FAFAFA"/>
<path d="M1078.27 1129.96C1078.75 1129.96 1079.11 1139.78 1079.11 1151.9C1079.11 1164.03 1078.75 1173.87 1078.27 1173.87C1077.79 1173.87 1077.43 1164.05 1077.43 1151.9C1077.43 1139.76 1077.79 1129.96 1078.27 1129.96Z" fill="#FAFAFA"/>
<path d="M1105.09 1130.33C1105.09 1130.8 1070.24 1131.17 1027.26 1131.17C984.272 1131.17 949.423 1130.8 949.423 1130.33C949.423 1129.85 984.244 1129.49 1027.26 1129.49C1070.27 1129.49 1105.09 1129.85 1105.09 1130.33Z" fill="#FAFAFA"/>
<path d="M1056.61 683.632H33.9229V715.142H1056.61V683.632Z" fill="#EBEBEB"/>
<path d="M122.392 711.27L45.7637 1237.29H62.2061L156.708 715.142L122.392 711.27Z" fill="#EBEBEB"/>
<path d="M984.384 707.931L1065.22 1237.29H1048.81L950.04 712.757L984.384 707.931Z" fill="#EBEBEB"/>
<path d="M72.7558 556.723V627.655H60.915V635.287H72.7558V682.763H294.195V639.552H277.809V630.124H294.195V616.095H301.491V609.698H292.792V556.723H72.7558Z" fill="#F5F5F5"/>
<path d="M235.356 556.835V681.949H294.139V638.766H277.753V630.152L294.139 630.433V616.319H301.575L301.435 609.024L292.793 608.828V556.638L235.356 556.835Z" fill="#E0E0E0"/>
<path d="M239.537 634.249C239.537 634.698 199.497 635.035 150.086 635.035C100.674 635.035 60.6064 634.698 60.6064 634.249C60.6064 633.8 100.674 633.463 150.086 633.463C199.497 633.463 239.537 633.828 239.537 634.249Z" fill="#E0E0E0"/>
<path d="M239.537 627.038C239.537 627.487 199.497 627.823 150.086 627.823C100.674 627.823 60.6064 627.487 60.6064 627.038C60.6064 626.589 100.674 626.252 150.086 626.252C199.497 626.252 239.537 626.617 239.537 627.038Z" fill="#E0E0E0"/>
<path d="M251.041 607.649C251.041 608.098 210.973 608.435 161.59 608.435C112.206 608.435 72.1104 608.098 72.1104 607.649C72.1104 607.2 112.15 606.864 161.59 606.864C211.029 606.864 251.041 607.228 251.041 607.649Z" fill="#E0E0E0"/>
<path d="M252.107 660.54C252.107 660.989 212.067 661.354 162.656 661.354C113.245 661.354 73.1768 660.989 73.1768 660.54C73.1768 660.091 113.217 659.754 162.656 659.754C212.096 659.754 252.107 660.063 252.107 660.54Z" fill="#E0E0E0"/>
<path d="M310.554 509.135H271.945V555.039H310.554V509.135Z" fill="#F5F5F5"/>
<path d="M273.264 506.133H98.7949V557.901H273.264V506.133Z" fill="#E0E0E0"/>
<path d="M311.704 510.51H268.578V506.217H311.704C312.285 506.217 312.842 506.447 313.252 506.858C313.662 507.268 313.893 507.825 313.893 508.405C313.871 508.971 313.631 509.507 313.223 509.899C312.815 510.291 312.271 510.51 311.704 510.51Z" fill="#E0E0E0"/>
<path d="M311.704 557.929H268.578V553.552H311.704C312.285 553.552 312.842 553.783 313.252 554.193C313.662 554.603 313.893 555.16 313.893 555.741C313.893 556.321 313.662 556.878 313.252 557.288C312.842 557.699 312.285 557.929 311.704 557.929Z" fill="#E0E0E0"/>
<path d="M259.571 506.133H238.948V557.901H259.571V506.133Z" fill="#EBEBEB"/>
<path d="M136.028 506.722H115.405V558.49H136.028V506.722Z" fill="#EBEBEB"/>
<path d="M310.554 516.739C310.554 516.739 302.137 516.963 291.895 516.963C281.654 516.963 273.208 516.963 273.208 516.739C273.208 516.514 281.626 516.486 291.895 516.486C302.165 516.486 310.554 516.599 310.554 516.739Z" fill="#E0E0E0"/>
<path d="M310.554 523.613C310.554 523.613 302.137 523.838 291.895 523.838C281.654 523.838 273.208 523.838 273.208 523.613C273.208 523.389 281.626 523.389 291.895 523.389C302.165 523.389 310.554 523.473 310.554 523.613Z" fill="#E0E0E0"/>
<path d="M310.554 532.087C310.554 532.087 302.137 532.312 291.895 532.312C281.654 532.312 273.208 532.312 273.208 532.087C273.208 531.863 281.626 531.863 291.895 531.863C302.165 531.863 310.554 531.947 310.554 532.087Z" fill="#E0E0E0"/>
<path d="M310.554 540.561C310.554 540.561 302.137 540.785 291.895 540.785C281.654 540.785 273.208 540.785 273.208 540.561C273.208 540.336 281.626 540.336 291.895 540.336C302.165 540.336 310.554 540.421 310.554 540.561Z" fill="#E0E0E0"/>
<path d="M310.554 549.035C310.554 549.035 302.137 549.259 291.895 549.259C281.654 549.259 273.208 549.259 273.208 549.035C273.208 548.81 281.626 548.81 291.895 548.81C302.165 548.81 310.554 548.894 310.554 549.035Z" fill="#E0E0E0"/>
<path d="M227.837 527.429H149.356V536.745H227.837V527.429Z" fill="#EBEBEB"/>
<path d="M236.619 455.88L258.336 506.89H244.363L234.711 479.645L236.619 455.88Z" fill="#E0E0E0"/>
<path d="M169.952 409.751L161.562 506.89H232.523L240.323 409.751H169.952Z" fill="#EBEBEB"/>
<path d="M176.882 417.439L169.53 498.809L222.814 499.511L229.997 416.962L176.882 417.439Z" fill="#FAFAFA"/>
<path d="M188.19 428.719L184.009 484.696H212.432L217.427 428.719H188.19Z" fill="#E0E0E0"/>
<path d="M1003.64 48.6801L977.402 48.822L978.109 179.377L1004.34 179.235L1003.64 48.6801Z" fill="#E0E0E0"/>
<path d="M818.033 49.0117L750.076 49.3794L750.466 121.461L818.423 121.094L818.033 49.0117Z" fill="#EBEBEB"/>
<path d="M885.652 48.6738L817.695 49.0415L818.085 121.123L886.042 120.756L885.652 48.6738Z" fill="#F5F5F5"/>
<path d="M750.178 69.3425C795.325 69.7353 840.611 69.3425 885.758 68.7252C885.923 68.6923 886.072 68.603 886.18 68.4725C886.287 68.3421 886.345 68.1785 886.345 68.0097C886.345 67.841 886.287 67.6774 886.18 67.5469C886.072 67.4165 885.923 67.3272 885.758 67.2942C840.621 67.0324 795.437 67.3036 750.206 68.1079C750.042 68.1079 749.885 68.173 749.77 68.2887C749.654 68.4045 749.589 68.5615 749.589 68.7252C749.589 68.889 749.654 69.046 749.77 69.1617C749.885 69.2775 750.042 69.3425 750.206 69.3425H750.178Z" fill="#E0E0E0"/>
<path d="M831.185 119.928L707.729 120.596L708.046 179.322L831.503 178.654L831.185 119.928Z" fill="#EBEBEB"/>
<path d="M954.048 119.236L830.592 119.904L830.91 178.63L954.366 177.962L954.048 119.236Z" fill="#F5F5F5"/>
<path d="M707.781 136.964C789.797 137.89 872.093 136.964 954.109 135.757C954.302 135.757 954.488 135.681 954.625 135.544C954.762 135.407 954.839 135.221 954.839 135.028C954.839 134.834 954.762 134.649 954.625 134.512C954.488 134.375 954.302 134.298 954.109 134.298C872.093 133.878 789.769 133.906 707.781 135.729C707.618 135.729 707.461 135.794 707.345 135.91C707.229 136.026 707.164 136.183 707.164 136.347C707.164 136.51 707.229 136.667 707.345 136.783C707.461 136.899 707.618 136.964 707.781 136.964Z" fill="#E0E0E0"/>
<path d="M1139.91 179.361H661.625V200.405H1139.91V179.361Z" fill="#E0E0E0"/>
<path d="M759.353 189.49H739.937V261.292H759.353V189.49Z" fill="#E0E0E0"/>
<path d="M1049.2 189.49H1029.78V261.292H1049.2V189.49Z" fill="#E0E0E0"/>
<path d="M1029.22 -9.82584e-05L1002.98 0.141846L1003.95 179.715L1030.19 179.573L1029.22 -9.82584e-05Z" fill="#EBEBEB"/>
<path d="M1070.22 33.4486L1029.45 33.6692L1030.24 179.18L1071.01 178.959L1070.22 33.4486Z" fill="#F5F5F5"/>
<path d="M1069.96 61.5142C1063.19 62.2169 1056.37 62.4513 1049.56 62.2157C1042.77 62.4519 1035.96 62.2175 1029.19 61.5142C1042.77 60.5789 1056.39 60.5789 1069.96 61.5142Z" fill="#E0E0E0"/>
<path d="M1069.96 55.3972C1063.19 56.1 1056.37 56.3344 1049.56 56.0987C1042.77 56.335 1035.96 56.1006 1029.19 55.3972C1042.77 54.462 1056.39 54.462 1069.96 55.3972Z" fill="#E0E0E0"/>
<path d="M1069.96 157.11C1056.39 158.045 1042.77 158.045 1029.19 157.11C1042.77 156.175 1056.39 156.175 1069.96 157.11Z" fill="#E0E0E0"/>
<path d="M1069.96 150.993C1056.39 151.929 1042.77 151.929 1029.19 150.993C1042.77 150.058 1056.39 150.058 1069.96 150.993Z" fill="#E0E0E0"/>
<path d="M1050.24 137.666C1049.85 137.666 1049.51 122.991 1049.51 104.865C1049.51 86.7389 1049.85 72.0923 1050.24 72.0923C1050.63 72.0923 1050.94 86.767 1050.94 104.865C1050.94 122.963 1050.6 137.666 1050.24 137.666Z" fill="#E0E0E0"/>
<path d="M1114.77 69.2302H1070.38V179.08H1114.77V69.2302Z" fill="#EBEBEB"/>
<path d="M1023.27 30.7055C1023.28 32.1995 1022.84 33.6616 1022.01 34.9065C1021.19 36.1514 1020.01 37.1232 1018.63 37.6988C1017.25 38.2743 1015.74 38.4278 1014.27 38.1398C1012.8 37.8517 1011.46 37.1351 1010.4 36.0806C1009.34 35.0262 1008.62 33.6813 1008.32 32.2164C1008.03 30.7516 1008.18 29.2325 1008.75 27.8517C1009.32 26.4709 1010.29 25.2904 1011.53 24.4598C1012.77 23.6292 1014.23 23.1858 1015.73 23.1858C1017.72 23.1858 1019.64 23.9771 1021.05 25.3866C1022.47 26.796 1023.27 28.7086 1023.27 30.7055Z" fill="#E0E0E0"/>
<path d="M1018.06 51.469H1013.4V158.289H1018.06V51.469Z" fill="#E0E0E0"/>
<path d="M1177.62 1237.29C1177.62 1237.68 913.873 1238.02 588.84 1238.02C263.808 1238.02 0 1237.68 0 1237.29C0 1236.89 263.584 1236.56 588.84 1236.56C914.097 1236.56 1177.62 1236.87 1177.62 1237.29Z" fill="#263238"/>
<path d="M584.014 881.839L699.7 1237.29H678.628L543.104 881.839H584.014Z" fill="#E0E0E0"/>
<path d="M584.014 881.839H581.208H573.352L542.992 882.008L543.273 881.587C566.505 942.109 616.59 1073 674.616 1224.52C676.187 1228.67 677.758 1232.94 679.33 1236.89L678.656 1236.45H699.7L698.999 1237.4C666.703 1137.76 637.887 1048.96 617.151 985.039C606.826 953.024 598.52 927.266 592.796 909.449C589.99 900.554 587.746 893.652 586.231 888.938L584.547 883.579C584.182 882.372 584.014 881.727 584.014 881.727C584.014 881.727 584.238 882.288 584.631 883.467L586.399 888.714C587.942 893.399 590.215 900.218 593.133 909.028C598.969 926.789 607.387 952.463 617.881 984.338C638.785 1048.34 667.825 1137.23 700.374 1236.87L700.682 1237.82H678.235L678.039 1237.34C676.496 1233.25 674.896 1229.12 673.325 1224.97C615.664 1073.23 565.86 942.194 542.88 881.755V881.334H543.329L573.857 881.503H581.629C583.2 881.783 584.014 881.839 584.014 881.839Z" fill="#263238"/>
<path d="M356.345 881.839L240.659 1237.29H261.703L397.255 881.839H356.345Z" fill="#E0E0E0"/>
<path d="M356.346 881.839C356.346 881.839 357.216 881.839 358.955 881.839H366.728L397.255 881.671H397.704L397.536 882.092C374.584 942.53 324.78 1073.56 267.119 1225.31L262.377 1237.68L262.209 1238.16H239.762L240.07 1237.2L322.591 984.674L347.339 909.365C350.145 900.554 352.53 893.736 354.073 889.05L355.841 883.803C356.234 882.625 356.458 882.064 356.458 882.064C356.458 882.064 356.29 882.709 355.925 883.916L354.241 889.275C352.726 893.989 350.51 900.891 347.676 909.786C341.924 927.603 333.646 953.361 323.321 985.376C302.557 1049.29 273.769 1138.1 241.473 1237.74L240.772 1236.78H261.816L261.142 1237.23L265.856 1224.86C323.882 1073.34 373.967 942.334 397.059 881.952L397.368 882.372L366.98 882.204H359.152L356.346 881.839Z" fill="#263238"/>
<path d="M546.079 889.64C545.445 890.178 544.77 890.666 544.059 891.099L538.111 895.027L516.197 909.393C497.706 921.57 472.201 938.462 444.17 957.261L372.396 1005.66L350.622 1020.28L344.702 1024.04C344.033 1024.54 343.319 1024.97 342.569 1025.33C343.187 1024.78 343.843 1024.27 344.533 1023.82L350.314 1019.69L371.835 1004.71C390.045 992.138 415.326 974.882 443.384 956.083C471.443 937.283 497.005 920.504 515.664 908.551C524.979 902.603 532.499 897.805 537.83 894.522L543.919 890.818C544.608 890.371 545.33 889.977 546.079 889.64Z" fill="#263238"/>
<path d="M324.135 502.906C324.135 502.906 287.883 506.638 282.608 528.468C277.333 550.297 260.161 820.278 282.608 858.522C305.055 896.767 594.06 891.435 614.122 886.188C634.184 880.941 643.64 867.922 641.591 852.013C639.543 836.104 442.739 816.378 442.739 816.378L454.748 534.612C454.748 534.612 383.984 498.978 324.135 502.906Z" fill="#263238"/>
<path d="M641.759 858.831H640.889H638.308L628.403 859.084C619.789 859.308 607.331 859.42 591.927 859.392C561.062 859.392 518.553 858.326 471.667 854.959C448.238 853.247 425.931 851.087 405.701 848.786C385.47 846.485 367.288 843.96 352.081 841.575C344.449 840.453 337.602 839.246 331.57 838.236C325.537 837.226 320.346 836.3 316.109 835.43L306.373 833.55L303.848 833.045L303.006 832.821C303.295 832.783 303.587 832.783 303.876 832.821L306.429 833.185L316.222 834.785C320.458 835.514 325.649 836.384 331.71 837.282C337.771 838.18 344.617 839.358 352.221 840.397C367.457 842.669 385.639 844.998 405.841 847.299C426.043 849.6 448.35 851.648 471.779 853.36C518.637 856.727 561.146 857.877 591.927 858.214C607.303 858.382 619.761 858.41 628.403 858.382H640.917L641.759 858.831Z" fill="#455A64"/>
<path d="M599.334 1029.32C599.11 1029.65 553.318 997.469 497.088 957.486C440.859 917.502 395.432 884.757 395.656 884.533C395.881 884.308 441.672 916.379 497.93 956.391C554.188 996.403 599.559 1028.98 599.334 1029.32Z" fill="#263238"/>
<path d="M349.337 260.243L326.188 219.474C340.485 196.26 345.582 168.539 340.478 141.758C335.373 114.977 320.436 91.0745 298.603 74.7479C276.769 58.4213 249.618 50.8518 222.487 53.5274C195.356 56.203 170.207 68.9302 151.983 89.2071C133.759 109.484 123.779 135.844 124.004 163.106C124.229 190.368 134.643 216.56 153.199 236.533C171.755 256.507 197.111 268.817 224.282 271.044C251.454 273.272 278.476 265.255 300.037 248.57L349.337 260.243Z" fill="white"/>
<path d="M349.752 260.507L300.313 249.283H299.639L300.06 248.722L300.677 249.339C285.479 261.214 267.402 268.844 248.292 271.45C242.569 272.263 236.784 272.564 231.008 272.348C228.033 272.179 225.003 272.095 221.945 271.843L212.713 270.468C185.205 265.07 160.785 249.399 144.418 226.64C135.329 214.087 129.025 199.737 125.928 184.552C122.784 168.445 123.225 151.843 127.218 135.926C131.352 119.313 139.383 103.923 150.647 91.032C162.084 77.7998 176.513 67.4878 192.736 60.9531C208.296 54.8085 225.039 52.2386 241.726 53.4333C257.485 54.5203 272.812 59.0609 286.62 66.7332C311.436 80.4605 330.037 103.189 338.585 130.23C341.953 141.773 343.552 153.759 343.327 165.78C342.732 184.956 337.089 203.636 326.969 219.934V219.485L349.752 260.479C348.237 257.897 341.11 245.58 326.239 219.906V219.709V219.485C336.142 203.263 341.609 184.724 342.092 165.724C342.275 153.856 340.648 142.029 337.266 130.651C328.819 103.92 310.455 81.4385 285.947 67.8275C272.323 60.2895 257.206 55.8445 241.67 54.8082C225.238 53.6417 208.755 56.1828 193.437 62.2438C177.472 68.6867 163.275 78.8444 152.022 91.8738C140.926 104.569 133.019 119.729 128.958 136.094C124.998 151.759 124.548 168.104 127.639 183.963C130.639 198.986 136.819 213.193 145.765 225.63C161.875 248.137 185.956 263.659 213.106 269.037L222.225 270.44C225.256 270.692 228.23 270.776 231.176 270.973C236.885 271.202 242.603 270.93 248.264 270.159C267.198 267.66 285.14 260.218 300.285 248.582L303.091 246.477L300.986 249.283L300.734 248.61L349.752 260.507Z" fill="#263238"/>
<path d="M217.754 169.232H224.657L239.696 190.22V203.997C239.696 203.997 250.358 204.642 249.124 186.629C247.889 168.615 249.124 173.189 249.124 173.189C249.124 173.189 271.767 173.189 273.647 171.112C275.022 169.709 275.639 147.206 275.864 135.029C276.021 132.086 275.185 129.175 273.491 126.764C271.797 124.352 269.342 122.579 266.52 121.729C265.725 121.507 264.904 121.394 264.079 121.392C258.467 121.392 229.595 125.994 229.595 125.994H217.67L217.754 169.232Z" fill="#F97063"/>
<path d="M198 173.02L202.265 125.854H214.078V172.066L198 173.02Z" fill="#F97063"/>
<path d="M786.262 741.91C786.262 741.91 851.19 741.91 853.855 802.405C856.521 862.899 664.852 1182.04 664.852 1182.04L604.161 1153.22L734.297 843.539L451.914 815.761L459.911 744.716L786.262 741.91Z" fill="#FFBE9D"/>
<path d="M677.675 1163.63L675.795 1167.93C675.795 1167.93 735.279 1229.09 729.948 1243.18L586.54 1178.64L609.969 1131.79C626.832 1151.29 648.662 1162.45 677.675 1163.63Z" fill="#455A64"/>
<g opacity="0.6">
<path d="M617.629 1153.62C616.06 1153.42 614.474 1153.8 613.171 1154.7C611.867 1155.59 610.938 1156.94 610.558 1158.47C610.299 1160.03 610.649 1161.63 611.537 1162.94C612.424 1164.26 613.782 1165.17 615.328 1165.51C616.989 1165.72 618.667 1165.3 620.04 1164.34C621.412 1163.38 622.382 1161.95 622.764 1160.32C622.873 1158.67 622.334 1157.04 621.26 1155.77C620.186 1154.51 618.662 1153.72 617.012 1153.56" fill="white"/>
</g>
<g opacity="0.6">
<path d="M586.54 1178.67L592.152 1167.45L727.535 1233.42C727.535 1233.42 732.67 1239.03 729.92 1243.24L586.54 1178.67Z" fill="white"/>
</g>
<path d="M676.103 1168.54C675.767 1169.22 672.119 1167.98 667.686 1168.68C663.252 1169.39 660.054 1171.49 659.521 1170.93C658.988 1170.37 661.878 1166.78 667.293 1166.02C672.708 1165.26 676.552 1167.95 676.103 1168.54Z" fill="#263238"/>
<path d="M688.365 1181.53C688.225 1182.26 684.633 1182.1 680.929 1184C677.226 1185.91 675.121 1188.72 674.448 1188.38C673.775 1188.04 675.093 1183.86 679.751 1181.59C684.409 1179.32 688.646 1180.86 688.365 1181.53Z" fill="#263238"/>
<path d="M688.814 1203.36C688.113 1203.36 688.814 1199.3 692.209 1196.27C695.604 1193.23 699.701 1193.21 699.729 1193.91C699.757 1194.61 696.923 1195.76 694.117 1198.29C691.311 1200.81 689.544 1203.62 688.814 1203.36Z" fill="#263238"/>
<path d="M663.421 513.821L674.953 549.091L612.073 554.001L604.75 535.117L663.421 513.821Z" fill="#FFBE9D"/>
<path d="M841.959 560.09C843.165 562.503 846.308 562.895 848.721 564.158C850.969 565.445 852.81 567.337 854.035 569.619C855.26 571.901 855.82 574.481 855.651 577.065C855.247 582.234 853.539 587.215 850.685 591.543C849.808 593.302 848.529 594.831 846.953 596.005C846.154 596.56 845.204 596.857 844.231 596.857C843.258 596.857 842.309 596.56 841.51 596.005C839.658 594.462 839.882 591.6 840.275 589.215C841.762 580.264 839.826 568.956 841.931 560.118" fill="#FFBE9D"/>
<path d="M423.771 117.856C423.238 113.921 424.198 109.93 426.463 106.668C428.727 103.406 432.131 101.111 436.004 100.235L505.422 56.0707C531.881 50.1222 565.215 94.3147 569.957 120.971C574.748 150.268 576.628 179.968 575.568 209.636C573.66 255.26 543.75 260.142 543.75 260.142L566.197 411.855L458.03 345.16L423.771 117.856Z" fill="#FFBE9D"/>
<path d="M555.535 158.822C555.72 160.314 555.317 161.819 554.411 163.019C553.504 164.218 552.166 165.018 550.68 165.247C549.218 165.518 547.709 165.197 546.483 164.355C545.257 163.513 544.415 162.219 544.143 160.758C543.957 159.266 544.361 157.76 545.267 156.561C546.173 155.361 547.511 154.562 548.997 154.332C550.459 154.062 551.969 154.383 553.195 155.224C554.42 156.066 555.262 157.36 555.535 158.822Z" fill="#263238"/>
<path d="M564.457 142.435C563.896 143.053 559.295 142.968 553.486 145.241C547.678 147.514 543.834 150.544 543.105 150.376C542.375 150.208 543.105 149.394 544.872 147.991C547.31 146 550.072 144.443 553.038 143.389C555.867 142.3 558.872 141.739 561.904 141.734C563.924 141.678 564.738 142.155 564.457 142.435Z" fill="#263238"/>
<path d="M498.071 161.599C498.249 163.094 497.839 164.6 496.928 165.799C496.017 166.997 494.677 167.795 493.189 168.025C491.731 168.287 490.228 167.963 489.009 167.122C487.79 166.281 486.952 164.991 486.679 163.536C486.486 162.042 486.887 160.533 487.794 159.332C488.702 158.13 490.044 157.333 491.533 157.11C492.996 156.84 494.505 157.16 495.731 158.002C496.957 158.844 497.798 160.138 498.071 161.599Z" fill="#263238"/>
<path d="M504.104 154.192C503.262 154.529 498.941 151.947 492.235 150.965C485.529 149.983 480.282 150.965 479.636 150.516C478.991 150.067 480.282 149.59 482.442 149.057C485.808 148.389 489.266 148.322 492.656 148.861C495.94 149.31 499.11 150.377 501.999 152.003C503.991 153.154 504.637 154.052 504.104 154.192Z" fill="#263238"/>
<path d="M531.489 192.352C534.62 190.935 537.921 189.925 541.309 189.35C542.853 189.013 544.312 188.536 544.452 187.413C544.403 185.769 543.844 184.181 542.853 182.868C540.982 179.127 538.962 175.301 536.792 171.392C528.374 155.034 521.977 141.509 522.763 141.173C523.548 140.836 530.843 153.827 539.317 170.185L545.181 181.746C546.4 183.539 546.947 185.705 546.725 187.862C546.559 188.445 546.263 188.982 545.86 189.434C545.456 189.886 544.956 190.241 544.396 190.472C543.548 190.804 542.662 191.03 541.758 191.145C538.399 191.974 534.949 192.38 531.489 192.352Z" fill="#263238"/>
<path d="M543.722 260.254C522.764 263.353 501.357 260.434 481.993 251.836C481.993 251.836 500.428 283.374 544.761 273.947L543.722 260.254Z" fill="#EB996E"/>
<path d="M532.19 207.475C530.681 205.51 528.752 203.907 526.542 202.786C524.333 201.664 521.9 201.052 519.423 200.994C517.991 201.024 516.602 201.488 515.44 202.324C514.277 203.161 513.396 204.331 512.914 205.68C512.429 207.422 512.372 209.255 512.749 211.023C513.125 212.792 513.923 214.443 515.074 215.837C516.205 217.312 517.743 218.424 519.497 219.037C521.252 219.65 523.147 219.738 524.951 219.288C527.878 218.081 530.372 216.017 532.106 213.368C532.735 212.693 533.188 211.874 533.425 210.983C533.527 210.421 533.505 209.843 533.36 209.29C533.214 208.737 532.949 208.223 532.583 207.784" fill="#EB996E"/>
<path d="M513.783 198.749C514.793 198.553 515.579 205.259 521.864 209.356C528.149 213.452 535.22 211.881 535.388 212.807C535.388 213.228 533.957 214.294 530.927 214.743C527.009 215.253 523.036 214.369 519.704 212.246C516.504 210.189 514.23 206.969 513.362 203.267C512.773 200.377 513.334 198.749 513.783 198.749Z" fill="#263238"/>
<path d="M506.067 126.61C505.478 128.294 499.249 127.592 492.038 128.602C484.827 129.613 478.878 131.661 477.868 130.174C477.419 129.444 478.429 127.845 480.674 126.161C483.812 124.089 487.381 122.76 491.111 122.273C494.84 121.787 498.63 122.157 502.195 123.355C504.945 124.618 506.32 125.797 506.067 126.61Z" fill="#263238"/>
<path d="M564.794 128.602C563.587 130.146 558.144 129.304 551.775 129.949C545.405 130.595 540.13 132.222 538.727 130.875C538.082 130.23 538.727 128.715 541 127.143C544.089 125.164 547.612 123.961 551.266 123.639C554.921 123.316 558.6 123.883 561.988 125.292C564.401 126.498 565.299 127.845 564.794 128.602Z" fill="#263238"/>
<path d="M393.327 234.468C394.449 214.125 397.704 149.001 410.836 113.479C423.967 77.9564 442.458 62.0471 461.482 54.5554C468.667 51.4854 476.523 50.3218 484.289 51.1771C492.055 52.0324 499.47 54.8777 505.815 59.4376C515.579 66.3401 521.247 89.0677 521.247 89.0677C521.247 89.0677 475.09 105.005 462.324 133.962C447.537 167.071 444.899 183.177 444.899 183.177L440.915 200.826C440.915 200.826 449.585 277.538 453.485 293.419L390.914 353.914C392.962 333.936 392.205 254.783 393.327 234.468Z" fill="#263238"/>
<path d="M522.622 89.1799C522.622 89.1799 549.362 83.1473 562.859 112.581C568.975 125.909 575.036 166.257 575.036 166.257C575.036 166.257 577.309 133.288 573.773 115.359C570.238 97.4291 558.594 75.5433 543.274 64.4601C527.953 53.3769 516.337 49.1962 492.375 53.405C499.59 55.2092 506.141 59.0346 511.259 64.4321C514.878 68.6689 516.674 72.4288 522.622 89.1799Z" fill="#263238"/>
<path d="M445.405 185.365C443.777 175.489 432.217 170.101 424.192 176.078C419.787 179.333 416.813 185.225 418.44 195.719C422.817 223.778 449.95 213.508 449.866 212.723C449.782 211.937 447.313 196.897 445.405 185.365Z" fill="#FFBE9D"/>
<path d="M439.681 203.435C439.681 203.435 439.26 203.856 438.502 204.361C437.41 205.025 436.108 205.255 434.855 205.006C431.74 204.389 428.541 200.068 427.615 195.073C427.167 192.689 427.263 190.233 427.896 187.89C428.011 186.974 428.35 186.1 428.884 185.347C429.417 184.593 430.128 183.982 430.954 183.569C431.494 183.343 432.095 183.308 432.657 183.472C433.219 183.635 433.707 183.987 434.041 184.467C434.546 185.197 434.434 185.758 434.602 185.786C434.77 185.814 435.135 185.225 434.602 184.102C434.34 183.435 433.854 182.879 433.227 182.531C432.365 182.074 431.357 181.974 430.421 182.251C429.307 182.659 428.315 183.345 427.54 184.244C426.764 185.142 426.23 186.223 425.988 187.385C425.183 189.983 425.028 192.739 425.539 195.41C426.577 201.022 430.281 205.848 434.518 206.381C435.299 206.48 436.093 206.403 436.841 206.156C437.588 205.908 438.271 205.496 438.839 204.95C439.737 204.108 439.793 203.463 439.681 203.435Z" fill="#EB996E"/>
<path d="M472.509 51.469C472.509 51.6934 476.381 51.1322 482.554 51.2445C486.166 51.3154 489.744 51.9497 493.16 53.1244C497.309 54.6587 501.121 56.9838 504.384 59.9708C510.422 65.3676 515.128 72.0905 518.132 79.6119C520.433 85.2236 520.938 89.208 521.275 89.1518C521.234 88.2523 521.103 87.3592 520.882 86.4863C518.645 75.974 513.099 66.455 505.057 59.3254C501.692 56.2078 497.731 53.8027 493.413 52.2546C489.904 51.0809 486.225 50.5024 482.526 50.543C480.049 50.542 477.575 50.7013 475.118 51.02C474.237 51.0972 473.365 51.2473 472.509 51.469Z" fill="#455A64"/>
<path d="M421.751 208.626C421.762 208.467 421.762 208.308 421.751 208.149L421.358 206.886C421.162 206.297 420.966 205.596 420.713 204.81L419.956 202.004C418.426 195.87 417.783 189.549 418.048 183.233C418.404 173.864 420.707 164.671 424.81 156.24C430.054 146.033 437.535 137.142 446.696 130.23C451.397 126.602 456.316 123.266 461.426 120.241C466.365 117.267 471.331 114.797 475.933 112.048C483.98 107.138 491.635 101.613 498.829 95.5211C504.973 90.3303 509.715 85.869 512.858 82.7264C514.457 81.1551 515.664 79.9205 516.478 79.0507L517.404 78.0686C517.6 77.8442 517.712 77.7319 517.684 77.7039L517.347 77.9844L516.337 78.9104L512.634 82.53C509.351 85.5884 504.553 89.9655 498.352 95.0442C491.132 101.035 483.479 106.484 475.456 111.346C470.91 114.152 465.888 116.481 460.921 119.483C455.761 122.507 450.803 125.862 446.078 129.528C436.763 136.506 429.163 145.517 423.856 155.875C419.74 164.424 417.483 173.748 417.234 183.233C417.041 189.602 417.788 195.965 419.45 202.116L420.292 204.922C420.601 205.708 420.853 206.381 421.05 206.97L421.555 208.233C421.667 208.486 421.723 208.626 421.751 208.626Z" fill="#455A64"/>
<path d="M414.035 198.749C414.035 198.749 414.035 198.581 414.035 198.3L413.867 196.954C413.867 195.775 413.418 194.148 413.193 191.819C412.532 185.499 412.429 179.133 412.885 172.795C413.57 163.408 415.456 154.148 418.496 145.241C422.295 134.363 427.838 124.175 434.911 115.078C442.194 106.088 450.693 98.1554 460.164 91.5089C468.581 85.2237 476.999 80.2854 483.705 75.8521C490.411 71.4188 495.995 68.0237 499.727 65.4423C501.606 64.2077 503.009 63.1695 503.963 62.4681L505.058 61.6824L505.422 61.3738C505.422 61.3738 505.254 61.3738 505.002 61.5983L503.851 62.2997L499.502 65.1056C495.742 67.5467 490.187 70.9979 483.312 75.2067C476.438 79.4155 468.245 84.4661 459.603 90.7513C450.112 97.4055 441.61 105.369 434.35 114.405C427.136 123.589 421.495 133.904 417.655 144.933C414.579 153.926 412.692 163.284 412.043 172.767C411.653 179.133 411.869 185.522 412.688 191.847C412.969 194.092 413.362 195.803 413.558 196.982C413.558 197.515 413.755 197.964 413.839 198.3C413.923 198.637 414.007 198.749 414.035 198.749Z" fill="#455A64"/>
<path d="M563.84 306.803C563.84 306.803 600.008 321.506 606.938 340.334C613.869 359.161 666.451 514.635 666.451 514.635L605.423 538.036L577.589 410.088L563.84 306.803Z" fill="#455A64"/>
<path d="M376.857 748.308C376.857 748.308 750.038 731.164 773.467 737.337C796.896 743.51 810.897 755.322 815.555 783.409C820.213 811.496 892.155 1183.61 892.155 1183.61L826.722 1202.86C826.722 1202.86 734.914 993.26 731.014 958.187C727.114 923.114 714.179 851.227 714.179 851.227C714.179 851.227 572.314 853.556 467.851 851.227C363.389 848.898 377.418 752.208 377.418 752.208L376.857 748.308Z" fill="#FFBE9D"/>
<path d="M825.909 1204.54L825.432 1203.42C821.672 1194.83 733.511 993.232 729.639 958.327C726.048 926.144 714.74 862.086 713.056 852.63C699.027 852.854 566.113 854.819 467.879 852.63C435.415 851.9 410.976 842.052 395.179 823.393C371.273 795.138 375.538 755.575 376.071 752.236L375.201 746.989H376.772C392.036 746.287 750.487 729.901 773.832 736.074C800.038 743.005 812.525 756.669 816.958 783.241C821.559 810.963 892.716 1179.71 893.558 1183.44L893.783 1184.68L825.909 1204.54ZM715.385 849.796L715.61 850.975C715.75 851.676 728.573 923.31 732.445 958.019C736.121 991.156 820.241 1184.48 827.536 1201.15L890.584 1182.63C885.982 1158.81 818.697 810.57 814.208 783.634C809.999 758.381 798.102 745.305 773.13 738.74C751.02 732.875 404.972 748.476 378.512 749.682L378.933 752.236V752.432C378.933 752.853 373.321 793.23 397.396 821.625C412.66 839.639 436.397 849.123 467.991 849.852C571.219 852.153 712.832 849.852 714.263 849.852L715.385 849.796Z" fill="#EB996E"/>
<path d="M402.054 547.042L411.453 605.18C411.453 605.18 370.628 682.538 366.026 749.037C363.838 780.631 381.963 845.335 381.963 845.335C381.963 845.335 525.736 861.132 603.291 859.111L686.036 855.492L700.626 726.225L607.752 712.813L609.155 536.661C609.155 536.661 625.99 490.279 627.281 476.559C630.255 447.602 629.021 418.309 600.092 380.766L563.84 306.803L551.747 301.192L557.499 390.783L453.289 291.764L400.51 310.704L385.555 381.271L402.054 547.042Z" fill="#455A64"/>
<g opacity="0.3">
<path d="M582.695 734.222C575.933 735.401 527.139 736.102 520.377 737.28C519.226 737.633 518.016 737.748 516.82 737.617C515.623 737.487 514.466 737.115 513.418 736.523C512.574 735.724 511.989 734.689 511.738 733.554C511.488 732.418 511.585 731.234 512.015 730.154C512.91 727.981 514.315 726.056 516.112 724.542C527.925 713.318 543.273 706.837 558.2 700.495C562.97 698.503 568.133 696.455 573.127 697.69C575.576 698.499 577.791 699.893 579.58 701.751C581.37 703.609 582.68 705.874 583.397 708.352C584.82 713.299 585.408 718.448 585.137 723.588" fill="black"/>
</g>
<g opacity="0.3">
<path d="M405.898 587.587C423.322 583.519 434.265 566.347 441.336 549.904C448.407 533.462 454.243 515.308 468.104 503.972C478.261 495.555 491.87 491.851 500.652 482.086C504.826 477.303 507.595 471.458 508.649 465.197C509.704 458.937 509.005 452.507 506.629 446.62C504.103 440.616 499.025 434.948 492.599 434.611C485.023 434.218 479.131 440.784 474.501 446.817C453.326 474.557 433.358 503.177 414.596 532.676C404.523 548.53 394.478 567.778 401.493 585.202" fill="black"/>
</g>
<path d="M406.01 319.963C406.01 319.963 376.52 329.335 365.857 347.825C355.195 366.316 337.518 456.104 333.253 480.29C328.988 504.477 308.365 604.001 333.253 619.658C358.141 635.315 390.858 611.241 399.388 596.903C407.918 582.565 442.738 508.013 442.738 508.013L411.453 481.722C411.453 481.722 417.065 410.621 415.016 395.665C412.968 380.71 406.01 319.963 406.01 319.963Z" fill="#FFBE9D"/>
<path d="M313.528 504.561L381.964 509.023L413.221 472.322L421.863 414.521L419.562 303.941C419.562 303.941 358.478 318.841 345.263 365.278C335.47 399.594 313.528 504.561 313.528 504.561Z" fill="#455A64"/>
<path d="M434.63 373.78C430.702 373.247 425.679 377.876 429.018 389.044C431.824 398.359 437.099 407.422 436.706 412.613C436.313 417.804 434.293 428.606 434.293 434.218C434.049 439.705 433.515 445.174 432.694 450.604L386.116 506.722L426.437 542.3L458.339 492.187C458.339 492.187 467.964 493.787 473.547 487.389L481.965 477.765C481.965 477.765 503.57 469.769 499.165 458.124C499.165 458.124 505.562 452.035 499.754 442.271C499.754 442.271 502.784 432.114 498.379 426.137C498.379 426.137 497.986 412.529 494.367 410.116C490.747 407.703 453.317 407.31 453.317 407.31C451.278 401.088 448.928 394.973 446.274 388.987C442.178 382.225 440.101 374.509 434.63 373.78Z" fill="#FFBE9D"/>
<path d="M450.568 428.971C450.568 429.111 449.585 428.578 448.716 427.26C447.582 425.483 447.087 423.373 447.312 421.277C447.536 419.181 448.466 417.224 449.95 415.727C451.073 414.633 452.027 414.296 452.111 414.437C450.442 416.457 449.296 418.856 448.772 421.423C448.775 424.045 449.389 426.629 450.568 428.971Z" fill="#EB996E"/>
<path d="M496.808 425.127C491.165 426.772 485.36 427.798 479.495 428.186C473.68 429.031 467.789 429.229 461.931 428.775C467.697 427.771 473.514 427.087 479.355 426.727C485.137 425.86 490.964 425.326 496.808 425.127Z" fill="#EB996E"/>
<path d="M500.119 441.177C495.469 443.065 490.559 444.238 485.557 444.656C480.625 445.569 475.584 445.739 470.602 445.161C470.602 444.74 477.223 444.319 485.36 443.197C493.498 442.075 500.035 440.784 500.119 441.177Z" fill="#EB996E"/>
<path d="M499.305 457.647C492.045 459.874 484.414 460.627 476.858 459.864C480.55 459.056 484.306 458.577 488.082 458.433C491.793 457.846 495.549 457.583 499.305 457.647Z" fill="#EB996E"/>
<path d="M463.951 462.698C463.951 462.866 463.165 462.698 462.211 462.165C460.954 461.308 460.071 460.003 459.742 458.517C459.382 457.048 459.582 455.498 460.303 454.168C460.864 453.186 461.482 452.793 461.622 452.905C461.762 453.018 460.472 455.346 461.145 458.18C461.818 461.014 464.147 462.333 463.951 462.698Z" fill="#EB996E"/>
<path d="M454.748 449.342C454.748 449.482 453.822 449.005 452.952 447.799C451.836 446.205 451.194 444.327 451.101 442.383C450.985 440.434 451.412 438.492 452.335 436.771C453.093 435.481 453.822 434.92 453.963 435.032C453.104 437.353 452.631 439.798 452.56 442.271C452.918 444.727 453.656 447.113 454.748 449.342Z" fill="#EB996E"/>
<path d="M487.801 475.352C485.766 476.431 483.531 477.08 481.235 477.26C479.012 477.9 476.679 478.062 474.389 477.737C476.419 476.647 478.656 475.996 480.954 475.829C483.174 475.173 485.511 475.01 487.801 475.352Z" fill="#EB996E"/>
<path d="M469.759 407.562C469.759 407.983 464.148 407.983 457.049 408.685C449.95 409.386 444.478 410.48 444.366 410.088C448.343 408.403 452.593 407.452 456.908 407.282C461.175 406.614 465.526 406.709 469.759 407.562Z" fill="#EB996E"/>
<path d="M592.965 542.441H824.899C828.991 542.441 832.917 544.067 835.811 546.961C838.705 549.855 840.331 553.78 840.331 557.873V722.269H577.589V557.845C577.596 553.767 579.218 549.857 582.099 546.971C584.98 544.084 588.887 542.455 592.965 542.441Z" fill="#E0E0E0"/>
<path d="M840.331 734.222H531.685C531.685 731.082 532.932 728.07 535.153 725.849C537.373 723.629 540.385 722.381 543.525 722.381H840.331V734.222Z" fill="#E0E0E0"/>
<path d="M830.623 554.001H585.558V722.381H830.623V554.001Z" fill="white"/>
<path d="M830.595 722.269C830.595 722.269 830.595 721.203 830.595 719.183C830.595 717.162 830.595 714.132 830.595 710.26C830.595 702.432 830.595 690.984 830.426 676.337C830.426 647.044 830.258 605.04 830.118 553.889L830.707 554.478H585.67L586.4 553.748C586.4 613.878 586.4 670.978 586.4 722.101L585.754 721.427L762.272 721.764L812.778 721.961H826.218H829.669H830.875H829.753H826.358H813.058L762.805 722.129L585.838 722.466H585.165V722.269C585.165 671.118 585.165 614.019 585.165 553.917V553.187H585.895H830.932H831.521V553.917C831.521 605.208 831.296 647.352 831.212 676.73C831.212 691.32 831.212 702.712 831.212 710.4C831.212 714.244 831.212 717.191 831.212 719.211C831.212 721.231 830.595 722.269 830.595 722.269Z" fill="#263238"/>
<path d="M839.04 722.269C839.04 722.69 772.793 722.999 691.086 722.999C609.379 722.999 543.104 722.69 543.104 722.269C543.104 721.848 609.351 721.54 691.086 721.54C772.821 721.54 839.04 721.989 839.04 722.269Z" fill="#263238"/>
<path d="M708.395 702.789C743.959 702.789 772.79 673.959 772.79 638.395C772.79 602.83 743.959 574 708.395 574C672.831 574 644 602.83 644 638.395C644 673.959 672.831 702.789 708.395 702.789Z" fill="#F97063"/>
<g clip-path="url(#clip0_584_8925)">
<path d="M736 615.64L730.36 610L708 632.36L685.64 610L680 615.64L702.36 638L680 660.36L685.64 666L708 643.64L730.36 666L736 660.36L713.64 638L736 615.64Z" fill="white"/>
</g>
<path d="M432.75 450.604C433.058 450.857 413.726 474.202 389.567 502.71C365.409 531.217 345.571 554.113 345.262 553.917C344.954 553.72 364.286 530.347 388.445 501.812C412.603 473.276 432.441 450.352 432.75 450.604Z" fill="#EB996E"/>
<path d="M429.411 414.437C428.78 422.577 427.665 430.672 426.072 438.68C424.967 446.774 423.374 454.795 421.302 462.698C421.931 454.548 423.046 446.444 424.641 438.427C425.764 430.344 427.356 422.334 429.411 414.437Z" fill="#263238"/>
<path d="M609.155 536.66C609.255 536.087 609.406 535.524 609.604 534.977L611.119 530.263C612.466 526.195 614.458 520.302 616.731 512.979C619.445 504.423 621.711 495.732 623.521 486.94C625.782 476.206 626.789 465.246 626.523 454.28C625.509 434.314 619.902 414.85 610.137 397.405C607.237 392.093 604.053 386.941 600.597 381.973C599.419 380.205 598.408 378.886 597.791 377.96C597.43 377.499 597.12 377.001 596.865 376.473C597.294 376.861 597.679 377.294 598.016 377.764C598.745 378.662 599.839 379.924 601.102 381.664C604.749 386.527 608.085 391.616 611.091 396.9C615.557 404.766 619.232 413.056 622.062 421.648C625.582 432.172 627.613 443.137 628.095 454.224C628.378 465.309 627.322 476.388 624.952 487.221C623.063 496.036 620.684 504.738 617.825 513.288C615.412 520.583 613.28 526.447 611.764 530.459C611.035 532.33 610.446 533.873 609.997 535.089C609.781 535.645 609.498 536.173 609.155 536.66Z" fill="#263238"/>
<path d="M549.53 449.286C549.645 450.593 549.645 451.907 549.53 453.214C549.526 454.754 549.414 456.291 549.194 457.815C548.991 459.851 548.682 461.874 548.268 463.876C547.819 466.305 547.219 468.704 546.472 471.059C545.681 473.792 544.745 476.48 543.666 479.112C541.076 485.05 537.859 490.693 534.07 495.947C530.186 501.191 525.735 505.99 520.798 510.257C518.635 512.106 516.368 513.829 514.008 515.42C511.989 516.854 509.881 518.157 507.695 519.32C505.883 520.368 504.009 521.305 502.083 522.126C500.704 522.798 499.279 523.37 497.818 523.838C496.604 524.338 495.345 524.723 494.058 524.988C493.918 524.679 499.305 523.024 507.05 518.507C509.168 517.289 511.219 515.959 513.194 514.522C515.383 513.063 517.487 511.211 519.788 509.331C529.456 500.825 537.122 490.285 542.235 478.467C543.305 475.898 544.242 473.276 545.041 470.61C545.816 468.291 546.463 465.93 546.977 463.539C549.306 454.897 549.25 449.286 549.53 449.286Z" fill="#263238"/>
<path d="M626.664 474.791C626.504 474.637 626.372 474.456 626.271 474.258L625.289 472.546C624.363 471.003 623.101 468.899 621.501 466.289C619.902 463.68 617.405 460.481 614.795 456.834C612.186 453.186 608.875 449.202 605.367 444.74C590.945 427.119 569.649 403.971 545.238 379.251C520.826 354.531 497.903 332.982 481.095 317.522L469.647 307.281C466.28 304.306 463.362 301.669 460.921 299.649L455.309 294.907L453.878 293.644C453.694 293.513 453.533 293.352 453.401 293.167C453.602 293.266 453.791 293.388 453.963 293.532C454.383 293.84 454.888 294.205 455.478 294.682L461.258 299.2L470.152 306.663C473.604 309.637 477.476 313.033 481.741 316.764C498.772 331.916 521.752 353.437 546.276 378.129C570.799 402.821 591.927 426.165 606.153 443.983C609.632 448.5 612.775 452.569 615.469 456.216L621.978 465.868C623.465 468.674 624.784 470.695 625.542 472.294L626.44 473.977C626.627 474.52 626.701 474.791 626.664 474.791Z" fill="#263238"/>
<path d="M572.173 604.591C571.658 604.771 571.119 604.875 570.574 604.899L566 605.545C562.016 606.078 556.208 606.695 549.165 607.341C534.827 608.631 514.934 609.669 493.048 609.417C471.162 609.164 451.184 607.565 436.93 605.938C429.775 605.124 423.995 604.338 420.095 603.693L415.522 602.963C414.985 602.905 414.458 602.782 413.95 602.599C414.491 602.531 415.037 602.531 415.578 602.599L420.179 603.076C424.164 603.553 429.972 604.17 437.014 604.843C451.296 606.218 471.134 607.649 493.132 607.902C515.13 608.154 534.911 607.256 549.249 606.246C556.404 605.741 562.213 605.292 566.085 604.928L570.686 604.563C571.182 604.52 571.68 604.53 572.173 604.591Z" fill="#263238"/>
<path d="M693.696 542.244C693.696 542.244 739.656 524.315 744.006 522.884C748.355 521.453 788.535 518.31 788.535 518.31L840.331 536.913C840.331 536.913 840.808 547.547 828.715 546.116C818.053 544.316 807.54 541.727 797.261 538.372L789.994 542.693L693.696 542.244Z" fill="#FFBE9D"/>
<path d="M837.834 549.063C839.041 551.504 842.183 551.868 844.596 553.159C846.829 554.463 848.657 556.358 849.88 558.636C851.103 560.914 851.673 563.485 851.527 566.066C851.123 571.226 849.414 576.198 846.56 580.516C845.684 582.26 844.417 583.777 842.857 584.95C842.058 585.505 841.108 585.802 840.135 585.802C839.162 585.802 838.212 585.505 837.413 584.95C836.647 584.016 836.131 582.903 835.915 581.715C835.699 580.526 835.79 579.303 836.179 578.159C837.666 569.209 835.73 557.873 837.834 549.034" fill="#FFBE9D"/>
<path d="M889.911 1169.72L891.482 1174.1C891.482 1174.1 976.781 1177.44 982.617 1191.3L834.243 1243.43L818.895 1193.35C844.568 1195.82 868.053 1188.86 889.911 1169.72Z" fill="#455A64"/>
<g opacity="0.6">
<path d="M839.49 1203.84C838.212 1204.78 837.325 1206.16 836.999 1207.71C836.673 1209.27 836.93 1210.88 837.722 1212.26C838.615 1213.59 839.992 1214.53 841.563 1214.87C843.133 1215.21 844.774 1214.93 846.14 1214.08C847.493 1213.09 848.429 1211.63 848.766 1209.99C849.103 1208.34 848.817 1206.63 847.963 1205.19C846.893 1203.92 845.377 1203.12 843.73 1202.95C842.083 1202.78 840.434 1203.25 839.125 1204.26" fill="white"/>
</g>
<g opacity="0.6">
<path d="M834.242 1243.43L830.566 1231.39L974.115 1185.83C974.115 1185.83 981.719 1186.39 982.533 1191.44L834.242 1243.43Z" fill="white"/>
</g>
<path d="M892.156 1174.35C892.38 1175.08 888.873 1176.68 886.123 1180.27C883.374 1183.86 882.56 1187.57 881.802 1187.51C881.045 1187.45 880.624 1182.88 884.019 1178.62C887.414 1174.35 892.072 1173.62 892.156 1174.35Z" fill="#263238"/>
<path d="M909.973 1175.31C910.394 1175.95 907.672 1178.28 906.297 1182.21C904.922 1186.14 905.343 1189.64 904.614 1189.87C903.884 1190.09 901.976 1186.14 903.8 1181.28C905.624 1176.43 909.72 1174.63 909.973 1175.31Z" fill="#263238"/>
<path d="M925.349 1190.85C924.76 1191.24 922.543 1188.04 922.936 1183.36C923.329 1178.67 926.247 1175.98 926.752 1176.46C927.257 1176.93 925.938 1179.82 925.602 1183.61C925.265 1187.4 926.051 1190.51 925.349 1190.85Z" fill="#263238"/>
<defs>
<clipPath id="clip0_584_8925">
<rect width="96" height="96" fill="white" transform="translate(660 590)"/>
</clipPath>
</defs>
</svg>
