<svg width="325" height="218" viewBox="0 0 325 218" fill="none" xmlns="http://www.w3.org/2000/svg">
<path d="M300.439 14.6221H116.203V138.017H300.439V14.6221Z" fill="#FAFAFA"/>
<path d="M300.439 14.6221H116.203V26.9464H300.439V14.6221Z" fill="#EBEBEB"/>
<path d="M124.187 20.7872C124.212 21.0901 124.145 21.3937 123.995 21.6581C123.846 21.9226 123.619 22.1357 123.346 22.2696C123.074 22.4035 122.767 22.452 122.466 22.4087C122.165 22.3654 121.884 22.2323 121.66 22.0269C121.436 21.8215 121.279 21.5533 121.21 21.2573C121.14 20.9613 121.162 20.6513 121.272 20.3678C121.381 20.0843 121.574 19.8405 121.825 19.6682C122.075 19.4959 122.372 19.4032 122.676 19.4022C122.866 19.3927 123.056 19.4211 123.236 19.4858C123.415 19.5505 123.58 19.6502 123.72 19.779C123.861 19.9078 123.975 20.0633 124.055 20.2364C124.135 20.4094 124.179 20.5967 124.187 20.7872Z" fill="#FAFAFA"/>
<path d="M128.985 20.7872C129.011 21.0901 128.944 21.3937 128.794 21.6581C128.644 21.9226 128.418 22.1357 128.145 22.2696C127.872 22.4035 127.565 22.452 127.265 22.4087C126.964 22.3654 126.683 22.2323 126.459 22.0269C126.235 21.8215 126.078 21.5533 126.008 21.2573C125.939 20.9613 125.961 20.6513 126.071 20.3678C126.18 20.0843 126.373 19.8405 126.623 19.6682C126.874 19.4959 127.17 19.4032 127.474 19.4022C127.665 19.3927 127.855 19.4211 128.035 19.4858C128.214 19.5505 128.379 19.6502 128.519 19.779C128.66 19.9078 128.773 20.0633 128.853 20.2364C128.933 20.4094 128.978 20.5967 128.985 20.7872Z" fill="#FAFAFA"/>
<path d="M133.796 20.7872C133.821 21.0901 133.755 21.3937 133.605 21.6581C133.455 21.9226 133.229 22.1357 132.956 22.2696C132.683 22.4035 132.376 22.452 132.075 22.4087C131.774 22.3654 131.493 22.2323 131.269 22.0269C131.045 21.8215 130.888 21.5533 130.819 21.2573C130.75 20.9613 130.771 20.6513 130.881 20.3678C130.991 20.0843 131.183 19.8405 131.434 19.6682C131.684 19.4959 131.981 19.4032 132.285 19.4022C132.475 19.3927 132.666 19.4211 132.845 19.4858C133.025 19.5505 133.189 19.6502 133.33 19.779C133.47 19.9078 133.584 20.0633 133.664 20.2364C133.744 20.4094 133.789 20.5967 133.796 20.7872Z" fill="#FAFAFA"/>
<path d="M284.375 154.108C274.745 147.385 272.565 134.899 272.942 123.678C273.008 121.804 272.801 119.83 273.693 118.183C274.584 116.536 276.664 115.418 278.342 116.209C279.732 116.863 280.356 118.48 281.117 119.82C282.156 121.604 283.679 123.058 285.508 124.015C286.702 124.635 288.178 125.023 289.356 124.363C290.973 123.471 291.164 121.24 291.149 119.377C291.129 115.901 291.107 112.428 291.084 108.956C291.084 107.093 291.084 105.194 291.648 103.416C292.212 101.638 293.506 100.006 295.279 99.5126C297.052 99.019 299.243 100.016 299.621 101.86C299.691 102.632 299.707 103.407 299.671 104.181C299.727 104.952 300.084 105.808 300.819 106.025C301.555 106.241 302.33 105.713 302.864 105.169C304.788 103.29 306.093 100.862 307.312 98.4549C308.53 96.0475 309.714 93.5746 311.462 91.5247C313.209 89.4748 315.622 87.848 318.286 87.6969C320.95 87.5459 323.801 89.2079 324.476 91.8118C325.151 94.4157 323.62 97.1052 321.958 99.2306C319.481 102.383 316.563 105.163 313.295 107.485C312.711 107.898 312.071 108.352 311.849 109.042C311.441 110.286 312.62 111.52 313.864 111.928C315.254 112.386 316.76 112.245 318.216 112.431C319.671 112.618 321.238 113.242 321.792 114.617C322.552 116.521 320.96 118.515 319.394 119.825C316.254 122.443 312.686 124.501 308.848 125.909C307.478 126.413 306.037 126.851 304.929 127.813C303.821 128.775 303.161 130.452 303.826 131.766C304.491 133.081 306.209 133.499 307.644 133.232C309.079 132.965 310.364 132.184 311.734 131.671C314.292 130.704 317.601 130.88 319.243 133.091C320.321 134.547 320.412 136.571 319.868 138.309C319.243 140.017 318.282 141.582 317.042 142.912C312.942 147.727 307.684 151.605 301.746 153.66C295.808 155.715 290.303 156.279 284.4 154.118" fill="#71DF87"/>
<path d="M284.229 162.443C284.741 157.239 285.753 152.097 287.25 147.087C289.113 140.973 291.326 134.971 293.878 129.112L295.858 124.488C296.513 122.977 297.157 121.466 297.872 120.036C299.269 117.292 300.816 114.627 302.506 112.053C304.103 109.585 305.704 107.299 307.22 105.173C308.736 103.048 310.197 101.104 311.602 99.3811C313.815 96.6462 316.242 94.0913 318.86 91.7407C319.781 90.9148 320.517 90.2902 321.02 89.8772L321.594 89.4088L321.796 89.2578C321.742 89.3247 321.681 89.3855 321.615 89.4391L321.061 89.9427C320.557 90.3708 319.857 91.0105 318.95 91.8516C316.382 94.2273 313.995 96.7913 311.808 99.5222C310.423 101.25 308.983 103.209 307.472 105.334C305.961 107.46 304.375 109.751 302.788 112.219C301.118 114.788 299.589 117.446 298.21 120.182C297.495 121.607 296.855 123.093 296.195 124.614L294.216 129.238C291.67 135.086 289.454 141.072 287.578 147.168C286.066 152.151 285.024 157.266 284.465 162.443" fill="#263238"/>
<path d="M297.999 120.016C297.913 119.757 297.852 119.491 297.818 119.22C297.722 118.717 297.606 117.956 297.475 117.029C297.208 115.171 296.931 112.597 296.639 109.757C296.347 106.916 296.035 104.353 295.743 102.509C295.602 101.587 295.476 100.837 295.385 100.323C295.322 100.059 295.286 99.789 295.279 99.5175C295.388 99.7678 295.467 100.03 295.516 100.298C295.647 100.802 295.808 101.547 295.979 102.469C296.332 104.307 296.684 106.876 296.987 109.721C297.289 112.567 297.526 115.06 297.717 116.994C297.813 117.871 297.893 118.611 297.954 119.2C298 119.469 298.016 119.743 297.999 120.016Z" fill="#263238"/>
<path d="M321.958 115.539C321.642 115.602 321.322 115.639 321.001 115.649C320.386 115.705 319.49 115.78 318.402 115.906C316.206 116.143 313.189 116.576 309.875 117.201C306.561 117.825 303.594 118.53 301.459 119.094C300.391 119.371 299.53 119.598 298.941 119.784C298.636 119.89 298.323 119.968 298.004 120.016C298.29 119.867 298.591 119.745 298.9 119.654C299.485 119.452 300.336 119.15 301.419 118.858C303.539 118.228 306.516 117.493 309.835 116.843C312.667 116.3 315.524 115.902 318.397 115.649C319.5 115.554 320.411 115.513 321.016 115.503C321.33 115.485 321.645 115.497 321.958 115.539Z" fill="#263238"/>
<path d="M287.568 146.634C287.568 146.634 287.498 146.538 287.402 146.342C287.306 146.146 287.155 145.838 286.994 145.476C286.642 144.72 286.158 143.617 285.579 142.242C284.426 139.502 282.95 135.659 281.373 131.399C279.797 127.138 278.351 123.285 277.264 120.525L275.959 117.251L275.607 116.36C275.56 116.257 275.526 116.148 275.506 116.037C275.572 116.127 275.626 116.225 275.667 116.329C275.778 116.566 275.914 116.833 276.08 117.196C276.433 117.951 276.911 119.054 277.49 120.429C278.644 123.174 280.124 127.012 281.696 131.278C283.267 135.544 284.718 139.387 285.806 142.152L287.115 145.42L287.463 146.312C287.512 146.414 287.548 146.522 287.568 146.634Z" fill="#263238"/>
<path d="M319.399 136.375C319.299 136.432 319.193 136.476 319.082 136.506L318.16 136.813L314.75 137.921C311.87 138.853 307.911 140.188 303.539 141.668C299.167 143.149 295.189 144.448 292.288 145.32C290.837 145.758 289.664 146.1 288.843 146.327L287.901 146.574C287.793 146.61 287.682 146.632 287.568 146.639C287.667 146.583 287.772 146.539 287.881 146.508L288.807 146.201L292.217 145.093C295.093 144.161 299.052 142.827 303.428 141.346C307.805 139.865 311.779 138.566 314.68 137.689C316.125 137.251 317.304 136.909 318.12 136.682L319.062 136.435C319.171 136.4 319.284 136.38 319.399 136.375Z" fill="#263238"/>
<path d="M73.2556 72.9749C73.2556 73.0857 72.4548 73.1714 71.4677 73.1714C70.4805 73.1714 69.6797 73.0857 69.6797 72.9749C69.6797 72.8641 70.4805 72.7785 71.4677 72.7785C72.4548 72.7785 73.2556 72.8692 73.2556 72.9749Z" fill="#263238"/>
<path d="M75.1495 68.1144C75.2604 68.1144 75.351 68.9253 75.351 69.9276C75.351 70.9298 75.2604 71.7407 75.1495 71.7407C75.0387 71.7407 74.9531 70.9298 74.9531 69.9276C74.9531 68.9253 75.0438 68.1144 75.1495 68.1144Z" fill="#263238"/>
<path d="M77.1738 72.8587C77.1738 72.7479 77.9696 72.6623 78.9568 72.6623C79.9439 72.6623 80.7447 72.7479 80.7447 72.8587C80.7447 72.9695 79.9439 73.0551 78.9568 73.0551C77.9696 73.0551 77.1738 72.9695 77.1738 72.8587Z" fill="#263238"/>
<path d="M75.2765 77.7192C75.1657 77.7192 75.0801 76.9084 75.0801 75.9061C75.0801 74.9038 75.1657 74.093 75.2765 74.093C75.3873 74.093 75.4729 74.9038 75.4729 75.9061C75.4729 76.9084 75.3873 77.7192 75.2765 77.7192Z" fill="#263238"/>
<path d="M78.1604 75.6344C78.0798 75.7049 77.7272 75.4229 77.3747 74.9998C77.0221 74.5767 76.8055 74.1839 76.871 74.1134C76.9365 74.0429 77.3092 74.33 77.6567 74.748C78.0042 75.166 78.246 75.5639 78.1604 75.6344Z" fill="#263238"/>
<path d="M77.996 70.1238C78.0766 70.1994 77.8399 70.562 77.4924 70.9297C77.1449 71.2973 76.7722 71.529 76.6916 71.4333C76.611 71.3376 76.8477 70.9951 77.1952 70.6275C77.5428 70.2598 77.9205 70.0483 77.996 70.1238Z" fill="#263238"/>
<path d="M73.9014 71.5293C73.8309 71.6098 73.4935 71.4436 73.146 71.1566C72.7984 70.8695 72.5768 70.5673 72.6423 70.4817C72.7078 70.396 73.0503 70.5622 73.3927 70.8544C73.7352 71.1465 73.9719 71.4436 73.9014 71.5293Z" fill="#263238"/>
<path d="M73.7396 73.9566C73.8202 74.0321 73.6187 74.3847 73.2863 74.7473C72.9539 75.1099 72.6215 75.3416 72.5409 75.251C72.4603 75.1603 72.6668 74.8229 72.9942 74.4602C73.3216 74.0976 73.659 73.881 73.7396 73.9566Z" fill="#263238"/>
<path d="M2.0146 126.608C1.69162 126.721 1.34751 126.761 1.0073 126.724C0.667097 126.762 0.322867 126.722 0 126.608C0.324201 126.501 0.667478 126.463 1.0073 126.498C1.34712 126.464 1.69031 126.501 2.0146 126.608Z" fill="#263238"/>
<path d="M3.0729 123.854C3.22061 124.531 3.22061 125.232 3.0729 125.909C2.91841 125.232 2.91841 124.53 3.0729 123.854Z" fill="#263238"/>
<path d="M4.23633 126.543C4.56075 126.437 4.90381 126.399 5.24363 126.432C5.58345 126.398 5.92673 126.436 6.25093 126.543C5.92807 126.657 5.58384 126.696 5.24363 126.659C4.90343 126.695 4.55942 126.656 4.23633 126.543Z" fill="#263238"/>
<path d="M3.16304 129.303C3.05149 128.979 3.01196 128.636 3.0472 128.295C3.00921 127.947 3.04877 127.594 3.16304 127.263C3.2713 127.596 3.30904 127.947 3.27384 128.295C3.3064 128.635 3.26869 128.978 3.16304 129.303Z" fill="#263238"/>
<path d="M4.8 128.12C4.75467 128.16 4.55321 127.999 4.35175 127.762C4.15029 127.525 4.02941 127.299 4.07978 127.258C4.13014 127.218 4.32656 127.379 4.52803 127.616C4.72949 127.853 4.84533 128.079 4.8 128.12Z" fill="#263238"/>
<path d="M4.70406 124.992C4.74939 125.032 4.61844 125.238 4.41194 125.45C4.20545 125.661 3.99895 125.787 3.95866 125.747C3.91837 125.707 4.04428 125.5 4.25077 125.289C4.45727 125.077 4.65873 124.946 4.70406 124.992Z" fill="#263238"/>
<path d="M2.38263 125.787C2.34234 125.838 2.15095 125.742 1.95453 125.576C1.75811 125.409 1.62716 125.243 1.66745 125.193C1.70774 125.143 1.89913 125.243 2.09555 125.404C2.29198 125.566 2.41789 125.742 2.38263 125.787Z" fill="#263238"/>
<path d="M2.28657 127.187C2.33693 127.228 2.2211 127.429 2.02971 127.636C1.83832 127.842 1.65701 127.973 1.61168 127.933C1.56635 127.893 1.67715 127.691 1.86854 127.485C2.05993 127.278 2.24124 127.127 2.28657 127.187Z" fill="#263238"/>
<path d="M77.9848 117.618L78.1007 117.9C78.2017 118.142 78.3499 118.362 78.5366 118.546C78.7234 118.73 78.9451 118.876 79.1886 118.973L79.4908 119.099L79.1986 119.215C78.9535 119.316 78.7308 119.465 78.5432 119.652C78.3557 119.84 78.207 120.063 78.1057 120.308L78.0251 120.514L77.8992 120.257C77.679 119.789 77.2825 119.427 76.7962 119.25L76.5293 119.154L76.8768 118.983C77.3089 118.773 77.6519 118.416 77.8438 117.976L77.9848 117.618Z" fill="#263238"/>
<path d="M23.7915 81.7023L23.9073 81.9844C24.0082 82.2257 24.1558 82.4448 24.3416 82.6289C24.5275 82.813 24.7479 82.9585 24.9902 83.0572L25.2924 83.178L25.0053 83.2989C24.759 83.3982 24.5352 83.5462 24.3474 83.734C24.1596 83.9218 24.0117 84.1455 23.9124 84.3918L23.8267 84.5983L23.7059 84.3415C23.5965 84.109 23.4423 83.9003 23.2522 83.7275C23.062 83.5546 22.8397 83.421 22.5978 83.3342L22.3359 83.2385L22.6784 83.0672C23.1121 82.8597 23.4558 82.5018 23.6454 82.0599L23.7915 81.7023Z" fill="#263238"/>
<path d="M278.701 38.5H90.889C86.8362 38.5 83.5508 41.7854 83.5508 45.8382V165.063C83.5508 169.115 86.8362 172.401 90.889 172.401H278.701C282.753 172.401 286.039 169.115 286.039 165.063V45.8382C286.039 41.7854 282.753 38.5 278.701 38.5Z" fill="#263238"/>
<path d="M75.0955 162.499H294.461V165.254C294.461 167.632 293.516 169.912 291.835 171.593C290.154 173.275 287.873 174.219 285.496 174.219H84.0353C81.6576 174.219 79.3774 173.275 77.6961 171.593C76.0148 169.912 75.0703 167.632 75.0703 165.254V162.499H75.0955Z" fill="#263238"/>
<path d="M280.036 43.8242H88.9863V156.904H280.036V43.8242Z" fill="#455A64"/>
<path d="M164.83 162.499L167.555 166.83H205.858L208.386 162.499H164.83Z" fill="#455A64"/>
<path d="M274.844 47.6516H94.5669C93.6573 47.6516 92.9199 48.3889 92.9199 49.2985V154.894C92.9199 155.804 93.6573 156.541 94.5669 156.541H274.844C275.753 156.541 276.491 155.804 276.491 154.894V49.2985C276.491 48.3889 275.753 47.6516 274.844 47.6516Z" fill="#EBEBEB"/>
<path d="M276.491 55.6289H92.9199V156.54H276.491V55.6289Z" fill="#FAFAFA"/>
<path d="M107.978 51.8564C107.978 52.1473 107.892 52.4316 107.731 52.6735C107.569 52.9153 107.339 53.1038 107.071 53.2151C106.802 53.3264 106.506 53.3556 106.221 53.2988C105.936 53.2421 105.674 53.102 105.468 52.8963C105.262 52.6906 105.122 52.4286 105.065 52.1433C105.009 51.858 105.038 51.5623 105.149 51.2936C105.26 51.0249 105.449 50.7952 105.691 50.6336C105.933 50.472 106.217 50.3857 106.508 50.3857C106.898 50.3857 107.272 50.5407 107.548 50.8165C107.823 51.0923 107.978 51.4664 107.978 51.8564Z" fill="#263238"/>
<path d="M99.0894 51.8564C99.0885 52.1461 99.0017 52.4289 98.84 52.6693C98.6784 52.9096 98.4491 53.0967 98.1812 53.2069C97.9133 53.317 97.6188 53.3453 97.3348 53.2882C97.0509 53.2311 96.7902 53.0911 96.5857 52.8859C96.3812 52.6808 96.2421 52.4196 96.186 52.1354C96.1299 51.8513 96.1592 51.5569 96.2703 51.2893C96.3813 51.0218 96.5692 50.7932 96.8101 50.6324C97.051 50.4716 97.3342 50.3857 97.6238 50.3857C97.8167 50.3857 98.0077 50.4238 98.1859 50.4978C98.364 50.5718 98.5258 50.6802 98.662 50.8168C98.7981 50.9534 98.906 51.1156 98.9793 51.294C99.0527 51.4724 99.0901 51.6635 99.0894 51.8564Z" fill="#263238"/>
<path d="M103.355 51.8564C103.354 52.1461 103.267 52.4289 103.106 52.6693C102.944 52.9096 102.715 53.0967 102.447 53.2069C102.179 53.317 101.884 53.3453 101.6 53.2882C101.316 53.2311 101.056 53.0911 100.851 52.8859C100.647 52.6808 100.508 52.4196 100.452 52.1354C100.395 51.8513 100.425 51.5569 100.536 51.2893C100.647 51.0218 100.835 50.7932 101.076 50.6324C101.317 50.4716 101.6 50.3857 101.889 50.3857C102.082 50.3857 102.273 50.4238 102.451 50.4978C102.63 50.5718 102.791 50.6802 102.928 50.8168C103.064 50.9534 103.172 51.1156 103.245 51.294C103.318 51.4724 103.356 51.6635 103.355 51.8564Z" fill="#263238"/>
<path d="M284.296 162.499C284.296 162.575 239.355 162.63 183.928 162.63C128.502 162.63 83.5508 162.575 83.5508 162.499C83.5508 162.424 128.482 162.368 183.928 162.368C239.375 162.368 284.296 162.444 284.296 162.499Z" fill="#455A64"/>
<path d="M147.531 106.463H105.643V109.263H147.531V106.463Z" fill="#E0E0E0"/>
<path d="M201.639 67.5557H159.75V70.356H201.639V67.5557Z" fill="#E0E0E0"/>
<path d="M263.965 77.9913C263.965 78.0618 240.636 78.1223 211.872 78.1223C183.109 78.1223 159.77 78.0618 159.77 77.9913C159.77 77.9208 183.094 77.8604 211.872 77.8604C240.651 77.8604 263.965 77.9208 263.965 77.9913Z" fill="#E0E0E0"/>
<path d="M263.965 84.1104C263.965 84.1809 240.636 84.2414 211.872 84.2414C183.109 84.2414 159.77 84.1809 159.77 84.1104C159.77 84.0399 183.094 83.9795 211.872 83.9795C240.651 83.9795 263.965 84.0399 263.965 84.1104Z" fill="#E0E0E0"/>
<path d="M263.965 90.2296C263.965 90.3001 240.636 90.3605 211.872 90.3605C183.109 90.3605 159.77 90.3001 159.77 90.2296C159.77 90.1591 183.094 90.0986 211.872 90.0986C240.651 90.0986 263.965 90.154 263.965 90.2296Z" fill="#E0E0E0"/>
<path d="M263.965 96.3487C263.965 96.4192 240.636 96.4797 211.872 96.4797C183.109 96.4797 159.77 96.4192 159.77 96.3487C159.77 96.2782 183.094 96.2178 211.872 96.2178C240.651 96.2178 263.965 96.2732 263.965 96.3487Z" fill="#E0E0E0"/>
<path d="M263.965 102.469C263.965 102.539 240.636 102.6 211.872 102.6C183.109 102.6 159.77 102.539 159.77 102.469C159.77 102.398 183.094 102.338 211.872 102.338C240.651 102.338 263.965 102.393 263.965 102.469Z" fill="#E0E0E0"/>
<path d="M200.425 108.588C200.425 108.658 191.319 108.719 180.087 108.719C168.856 108.719 159.75 108.658 159.75 108.588C159.75 108.517 168.856 108.457 180.087 108.457C191.319 108.457 200.425 108.512 200.425 108.588Z" fill="#E0E0E0"/>
<path d="M263.184 120.464C263.184 120.534 247.848 120.595 228.936 120.595C210.024 120.595 194.688 120.534 194.688 120.464C194.688 120.393 210.019 120.333 228.936 120.333C247.853 120.333 263.184 120.388 263.184 120.464Z" fill="#E0E0E0"/>
<path d="M263.184 126.956C263.184 127.032 247.848 127.087 228.936 127.087C210.024 127.087 194.688 127.032 194.688 126.956C194.688 126.881 210.019 126.825 228.936 126.825C247.853 126.825 263.184 126.886 263.184 126.956Z" fill="#E0E0E0"/>
<path d="M263.184 133.453C263.184 133.524 247.848 133.584 228.936 133.584C210.024 133.584 194.688 133.524 194.688 133.453C194.688 133.383 210.019 133.322 228.936 133.322C247.853 133.322 263.184 133.383 263.184 133.453Z" fill="#E0E0E0"/>
<path d="M263.184 139.95C263.184 140.021 247.848 140.081 228.936 140.081C210.024 140.081 194.688 140.021 194.688 139.95C194.688 139.88 210.019 139.819 228.936 139.819C247.853 139.819 263.184 139.875 263.184 139.95Z" fill="#E0E0E0"/>
<path d="M147.621 119.84C147.621 119.915 138.48 119.971 127.208 119.971C115.936 119.971 106.795 119.915 106.795 119.84C106.795 119.764 115.931 119.709 127.208 119.709C138.485 119.709 147.621 119.769 147.621 119.84Z" fill="#E0E0E0"/>
<path d="M147.621 124.942C147.621 125.012 138.48 125.073 127.208 125.073C115.936 125.073 106.795 125.012 106.795 124.942C106.795 124.871 115.931 124.811 127.208 124.811C138.485 124.811 147.621 124.871 147.621 124.942Z" fill="#E0E0E0"/>
<path d="M147.621 130.044C147.621 130.115 138.48 130.175 127.208 130.175C115.936 130.175 106.795 130.115 106.795 130.044C106.795 129.974 115.931 129.913 127.208 129.913C138.485 129.913 147.621 129.968 147.621 130.044Z" fill="#E0E0E0"/>
<path d="M147.622 135.146C147.622 135.216 138.481 135.277 127.209 135.277C115.937 135.277 106.826 135.216 106.826 135.146C106.826 135.075 115.962 135.015 127.239 135.015C138.516 135.015 147.622 135.07 147.622 135.146Z" fill="#E0E0E0"/>
<path d="M147.621 140.242C147.621 140.318 138.48 140.378 127.208 140.378C115.936 140.378 106.795 140.318 106.795 140.242C106.795 140.167 115.931 140.111 127.208 140.111C138.485 140.111 147.621 140.172 147.621 140.242Z" fill="#E0E0E0"/>
<path d="M189.445 117.361H159.725V146.115H189.445V117.361Z" fill="#F5F5F5"/>
<path d="M162.031 143.658L170.251 128.86L176.975 138.319L181.064 133.298L187.143 143.658H162.031Z" fill="#EBEBEB"/>
<path d="M179.855 125.984C179.855 126.408 179.73 126.822 179.495 127.174C179.259 127.526 178.925 127.8 178.534 127.962C178.143 128.124 177.712 128.166 177.297 128.084C176.882 128.001 176.501 127.797 176.201 127.498C175.902 127.199 175.698 126.817 175.615 126.402C175.533 125.987 175.575 125.556 175.737 125.165C175.899 124.774 176.174 124.44 176.526 124.205C176.878 123.969 177.291 123.844 177.715 123.844C177.996 123.843 178.275 123.898 178.535 124.005C178.795 124.113 179.031 124.27 179.23 124.469C179.429 124.668 179.586 124.904 179.694 125.164C179.801 125.424 179.856 125.703 179.855 125.984Z" fill="#EBEBEB"/>
<path d="M187.143 143.739C187.139 143.698 187.139 143.658 187.143 143.618C187.143 143.532 187.143 143.421 187.143 143.285C187.143 142.978 187.143 142.545 187.143 141.991C187.143 140.848 187.143 139.201 187.112 137.105C187.112 132.905 187.077 126.927 187.052 119.745L187.173 119.865H162.061C162.025 119.896 162.328 119.599 162.202 119.729V122.978C162.202 124.056 162.202 125.124 162.202 126.181V132.376C162.202 136.405 162.202 140.208 162.202 143.713L162.081 143.587L180.237 143.653L185.36 143.683H186.714H187.067H187.193H187.082H186.745H185.41L180.313 143.718L162.081 143.779H161.955V143.658C161.955 140.132 161.955 136.345 161.955 132.321C161.955 130.306 161.955 128.236 161.955 126.126V119.755C161.824 119.876 162.126 119.578 162.096 119.609H187.208H187.329V119.729C187.329 126.942 187.279 132.95 187.268 137.171C187.268 139.251 187.268 140.893 187.233 142.026C187.233 142.57 187.233 142.993 187.233 143.295C187.233 143.431 187.233 143.537 187.233 143.618C187.207 143.661 187.176 143.701 187.143 143.739Z" fill="#EBEBEB"/>
<path d="M146.744 62.7715H106.432V101.769H146.744V62.7715Z" fill="#F5F5F5"/>
<path d="M109.561 98.4348L120.711 78.3643L129.833 91.1923L135.373 84.3779L143.617 98.4348H109.561Z" fill="#E0E0E0"/>
<path d="M133.716 74.4606C133.716 75.0344 133.546 75.5953 133.227 76.0723C132.908 76.5494 132.455 76.9212 131.925 77.1408C131.395 77.3604 130.812 77.4178 130.249 77.3059C129.686 77.194 129.169 76.9177 128.764 76.5119C128.358 76.1062 128.082 75.5893 127.97 75.0266C127.858 74.4638 127.915 73.8805 128.135 73.3504C128.354 72.8203 128.726 72.3673 129.203 72.0485C129.68 71.7297 130.241 71.5596 130.815 71.5596C131.584 71.5596 132.322 71.8652 132.866 72.4093C133.41 72.9533 133.716 73.6912 133.716 74.4606Z" fill="#E0E0E0"/>
<path d="M143.617 98.5409C143.617 98.5409 143.617 98.4855 143.617 98.3848C143.617 98.284 143.617 98.1178 143.617 97.9264C143.617 97.5134 143.617 96.9191 143.617 96.1737C143.617 94.6275 143.592 92.3913 143.572 89.5507C143.572 83.8544 143.521 75.7406 143.486 66L143.652 66.1662H109.595L109.787 65.9798V70.3969C109.787 71.8574 109.787 73.3029 109.787 74.7383C109.787 77.6041 109.787 80.4094 109.787 83.1392C109.787 88.6038 109.787 93.7663 109.787 98.5157L109.621 98.3495L134.244 98.4351L141.19 98.4804H143.033H143.537H143.703C143.654 98.489 143.605 98.489 143.557 98.4804H143.093H141.285L134.375 98.5258L109.646 98.6114H109.475V98.4402C109.475 93.6907 109.475 88.5283 109.475 83.0637C109.475 80.3339 109.475 77.5235 109.475 74.6628V66.005L109.671 65.8086L143.728 65.8338H143.894V65.9949C143.859 75.7809 143.829 83.9249 143.809 89.6666C143.809 92.487 143.778 94.7031 143.768 96.2493C143.768 96.9896 143.768 97.5688 143.768 97.9718C143.768 98.1581 143.768 98.2991 143.768 98.4099C143.725 98.461 143.674 98.5051 143.617 98.5409Z" fill="#E0E0E0"/>
<path d="M204.946 91.8364L200.917 91.781L201.068 80.8114C201.066 78.8848 200.685 76.9774 199.945 75.1981C199.206 73.4189 198.124 71.8026 196.76 70.4416C195.396 69.0807 193.778 68.0017 191.997 67.2662C190.216 66.5307 188.308 66.1532 186.381 66.1552C184.455 66.1572 182.547 66.5386 180.768 67.2778C178.989 68.0169 177.373 69.0993 176.012 70.463C173.263 73.2173 171.721 76.9506 171.725 80.8417L171.574 91.8364L167.545 91.781L167.696 80.8114C167.7 75.8517 169.674 71.0968 173.184 67.5926C176.694 64.0884 181.452 62.122 186.412 62.126C191.371 62.13 196.126 64.1041 199.631 67.6139C203.135 71.1238 205.101 75.882 205.097 80.8417L204.946 91.8364Z" fill="#263238"/>
<path d="M205.318 86.4922H167.907C162.82 86.4922 158.695 90.6164 158.695 95.704V131.831C158.695 136.918 162.82 141.043 167.907 141.043H205.318C210.406 141.043 214.53 136.918 214.53 131.831V95.704C214.53 90.6164 210.406 86.4922 205.318 86.4922Z" fill="#71DF87"/>
<g opacity="0.3">
<path d="M192.172 110.89C192.175 109.919 191.925 108.964 191.445 108.121C190.966 107.277 190.274 106.573 189.438 106.079C188.602 105.585 187.652 105.318 186.681 105.305C185.711 105.292 184.754 105.533 183.905 106.004C183.056 106.475 182.346 107.16 181.844 107.991C181.341 108.822 181.065 109.769 181.043 110.74C181.02 111.71 181.251 112.67 181.714 113.523C182.177 114.376 182.854 115.094 183.68 115.604L182.255 122.197H191.381C191.381 122.197 190.374 118.052 189.709 115.498C190.465 114.99 191.085 114.304 191.514 113.501C191.943 112.697 192.169 111.801 192.172 110.89Z" fill="black"/>
</g>
<g opacity="0.2">
<path d="M162.266 124.503C161.903 124.503 161.762 118.132 161.908 110.29C162.054 102.449 162.498 96.0925 162.86 96.1026C163.223 96.1126 163.364 102.474 163.218 110.316C163.072 118.157 162.629 124.508 162.266 124.503Z" fill="white"/>
</g>
<g opacity="0.2">
<path d="M162.307 130.815C161.944 130.815 161.647 130.2 161.637 129.429C161.627 128.659 161.909 128.034 162.272 128.029C162.634 128.024 162.936 128.644 162.946 129.414C162.957 130.185 162.669 130.809 162.307 130.815Z" fill="white"/>
</g>
<g opacity="0.2">
<path d="M179.824 123.103C179.537 123.007 180.217 120.106 181.4 116.248L181.551 116.883C181.013 116.349 180.454 115.79 179.869 115.17C178.966 114.14 178.434 112.837 178.358 111.469C178.297 110.369 178.556 109.276 179.104 108.321C179.451 107.69 179.934 107.145 180.519 106.724C180.932 106.437 181.209 106.362 181.254 106.432C181.385 106.588 180.534 107.263 179.935 108.729C179.559 109.645 179.445 110.648 179.604 111.626C179.763 112.604 180.19 113.519 180.836 114.269L182.458 115.981L182.725 116.268L182.604 116.621C181.28 120.454 180.111 123.194 179.824 123.103Z" fill="white"/>
</g>
<g opacity="0.2">
<path d="M202.87 90.28C202.87 90.4613 200.639 90.6124 197.038 90.7031C193.437 90.7937 188.476 90.829 182.935 90.7887C180.185 90.7887 177.567 90.7282 175.184 90.6779C172.802 90.6275 170.651 90.4815 168.934 90.6779C167.571 90.7766 166.256 91.2203 165.111 91.9672C164.31 92.5162 163.983 92.9745 163.892 92.9141C163.802 92.8537 164.018 92.3047 164.789 91.5744C165.924 90.5869 167.326 89.9562 168.818 89.7612C169.818 89.606 170.828 89.5269 171.84 89.5245L175.225 89.4893C177.607 89.4893 180.226 89.4893 182.976 89.4893C188.476 89.5295 193.452 89.6454 197.053 89.7915C200.654 89.9375 202.87 90.0987 202.87 90.28Z" fill="white"/>
</g>
<path d="M14.4504 206.846L14.0928 208.185C14.0928 208.185 9.2426 216.078 9.81676 216.838C10.2088 217.328 10.7407 217.687 11.3418 217.867C11.9428 218.047 12.5844 218.039 13.1812 217.845C14.8684 217.422 21.99 210.658 21.99 210.658L22.398 209.575L14.4504 206.846Z" fill="#71DF87"/>
<g opacity="0.3">
<path d="M10.3013 215.025C10.3013 215.025 12.4016 214.098 13.6154 216.813C13.6154 216.813 14.5219 216.47 17.0402 214.365C19.5585 212.26 21.9911 210.195 21.9911 210.195C21.9911 210.195 22.253 209.983 22.1774 210.195C22.1019 210.406 21.9911 210.764 21.9911 210.764L17.1309 215.05C17.1309 215.05 14.2197 217.568 13.4895 217.749C12.7592 217.931 12.0188 218.193 11.0921 217.78C10.4987 217.561 10.0059 217.133 9.70703 216.576C9.70703 216.455 10.3013 215.025 10.3013 215.025Z" fill="black"/>
</g>
<path d="M13.8982 217.699C13.868 217.699 13.8176 217.432 13.6413 217.029C13.4136 216.505 13.0678 216.04 12.631 215.672C12.1942 215.303 11.6781 215.04 11.1231 214.904C10.695 214.803 10.418 214.798 10.418 214.773C10.6572 214.737 10.9012 214.755 11.1332 214.823C11.7212 214.931 12.2712 215.19 12.7297 215.574C13.181 215.96 13.5275 216.453 13.737 217.009C13.8344 217.227 13.8891 217.461 13.8982 217.699Z" fill="#263238"/>
<path d="M22.3982 209.848C22.3657 209.89 22.3286 209.929 22.2874 209.964L21.9449 210.266L20.7009 211.364L16.4854 214.929C15.7298 215.612 14.9177 216.228 14.0578 216.773C13.334 217.222 12.4832 217.422 11.6352 217.342C11.0571 217.28 10.5207 217.012 10.1242 216.587C9.98252 216.442 9.87119 216.271 9.79688 216.083C9.90482 216.262 10.0296 216.431 10.1696 216.587C10.5713 216.961 11.0876 217.19 11.6352 217.236C12.4537 217.292 13.2686 217.085 13.9621 216.647C14.8112 216.106 15.6147 215.496 16.3645 214.824C18.0014 213.464 19.4771 212.23 20.6103 211.298L21.9047 210.241L22.2673 209.958C22.3055 209.916 22.3496 209.878 22.3982 209.848Z" fill="#263238"/>
<path d="M14.7131 213.166C14.397 213.011 14.0967 212.825 13.8166 212.612C13.5088 212.439 13.2171 212.238 12.9453 212.013C13.292 212.102 13.6174 212.259 13.9023 212.476C14.2156 212.65 14.4912 212.885 14.7131 213.166Z" fill="#263238"/>
<path d="M15.757 212.033C15.3769 211.912 15.0079 211.759 14.654 211.575C14.2793 211.442 13.9184 211.274 13.5762 211.071C13.9756 211.124 14.3626 211.247 14.7195 211.434C15.0965 211.574 15.4472 211.777 15.757 212.033Z" fill="#263238"/>
<path d="M16.7229 211.061C16.6876 211.096 16.2494 210.709 15.6148 210.401C14.9802 210.094 14.4061 209.968 14.4161 209.898C14.8599 209.897 15.296 210.013 15.6803 210.235C16.0929 210.417 16.4519 210.701 16.7229 211.061Z" fill="#263238"/>
<path d="M17.2816 209.903C17.2816 209.939 16.8485 209.641 16.2743 209.4C15.7002 209.158 15.2166 209.042 15.2267 208.997C15.614 208.988 15.9971 209.078 16.3398 209.259C16.7056 209.386 17.0308 209.608 17.2816 209.903Z" fill="#263238"/>
<path d="M17.0395 208.805C16.8147 208.709 16.6097 208.572 16.4351 208.402C16.2378 208.232 16.0558 208.044 15.8911 207.843C15.7908 207.723 15.6983 207.597 15.6141 207.465C15.5602 207.395 15.5177 207.317 15.4882 207.233C15.4679 207.182 15.4619 207.127 15.4708 207.073C15.4797 207.018 15.5031 206.968 15.5386 206.926C15.6137 206.863 15.7057 206.823 15.8033 206.811C15.9008 206.8 15.9996 206.817 16.0875 206.86C16.2398 206.924 16.3771 207.018 16.4905 207.137C16.6746 207.337 16.8016 207.582 16.8581 207.848C16.8982 208.021 16.9151 208.199 16.9085 208.376C16.9085 208.502 16.9085 208.573 16.8783 208.573C16.8481 208.573 16.8783 208.291 16.7524 207.878C16.6846 207.638 16.5582 207.418 16.3847 207.238C16.284 207.137 16.1641 207.056 16.0321 207.002C15.9757 206.968 15.9113 206.951 15.8458 206.951C15.7803 206.951 15.7159 206.968 15.6594 207.002C15.5789 207.082 15.6594 207.228 15.74 207.354C15.8206 207.48 15.9163 207.611 16.0019 207.727C16.1564 207.928 16.3247 208.118 16.5056 208.296C16.8279 208.628 17.0495 208.779 17.0395 208.805Z" fill="#263238"/>
<path d="M16.9345 208.669C16.9345 208.669 16.9345 208.594 16.9849 208.473C17.0591 208.306 17.1576 208.152 17.277 208.014C17.5587 207.679 17.9395 207.441 18.3649 207.334C18.4578 207.314 18.554 207.314 18.6469 207.334C18.7026 207.347 18.7536 207.375 18.7945 207.415C18.8353 207.455 18.8644 207.506 18.8786 207.561C18.8831 207.656 18.8664 207.75 18.8298 207.837C18.7932 207.924 18.7376 208.002 18.6671 208.065C18.5614 208.188 18.4394 208.297 18.3044 208.387C18.0768 208.539 17.8191 208.64 17.549 208.684C17.3672 208.715 17.1817 208.715 17 208.684C16.8741 208.684 16.8086 208.634 16.8086 208.624C17.048 208.629 17.2875 208.612 17.5238 208.573C17.7737 208.516 18.0098 208.41 18.2188 208.261C18.3437 208.177 18.4556 208.075 18.5512 207.959C18.605 207.912 18.648 207.854 18.6775 207.789C18.7071 207.723 18.7224 207.653 18.7225 207.581C18.7225 207.465 18.5412 207.44 18.3951 207.47C18.2503 207.504 18.1099 207.555 17.9771 207.622C17.7458 207.733 17.5361 207.885 17.3576 208.07C17.2012 208.258 17.0598 208.459 16.9345 208.669Z" fill="#263238"/>
<path d="M21.0194 209.217C20.7927 209.16 20.5541 209.173 20.3344 209.253C19.8141 209.477 19.3834 209.869 19.1106 210.366C18.8363 210.863 18.7236 211.433 18.7882 211.998C18.8386 212.431 18.9544 212.683 18.9293 212.693C18.7914 212.49 18.7049 212.256 18.6774 212.013C18.5775 211.421 18.6824 210.814 18.9746 210.29C19.2609 209.76 19.7324 209.353 20.2992 209.147C20.4151 209.096 20.5424 209.075 20.6686 209.087C20.7948 209.1 20.9156 209.145 21.0194 209.217Z" fill="#263238"/>
<path d="M18.143 212.396C17.9094 212.702 17.6329 212.971 17.3221 213.197C17.0479 213.467 16.7377 213.698 16.4004 213.882C16.634 213.577 16.9105 213.307 17.2213 213.081C17.4966 212.813 17.8066 212.583 18.143 212.396Z" fill="#263238"/>
<path d="M19.1047 211.882C19.15 211.882 19.2054 211.983 19.2356 212.114C19.2659 212.244 19.2356 212.36 19.2356 212.375C19.2356 212.391 19.1349 212.29 19.1047 212.144C19.0745 211.998 19.0644 211.887 19.1047 211.882Z" fill="#263238"/>
<path d="M19.2306 210.89C19.2709 210.89 19.281 211.026 19.2306 211.152C19.1803 211.278 19.1349 211.384 19.0946 211.379C19.0544 211.374 19.0443 211.258 19.0946 211.117C19.145 210.976 19.1903 210.875 19.2306 210.89Z" fill="#263238"/>
<path d="M19.7593 210.044C19.7946 210.08 19.7593 210.175 19.6586 210.286C19.5579 210.397 19.4823 210.457 19.4471 210.437C19.4118 210.417 19.4471 210.301 19.5377 210.185C19.6284 210.069 19.7341 210.014 19.7593 210.044Z" fill="#263238"/>
<path d="M20.6168 209.52C20.6168 209.56 20.5413 209.641 20.4204 209.701C20.2995 209.762 20.1837 209.772 20.1585 209.737C20.1333 209.701 20.224 209.621 20.3549 209.555C20.4859 209.49 20.6017 209.48 20.6168 209.52Z" fill="#263238"/>
<path d="M21.6073 209.404C21.6073 209.449 21.4865 209.484 21.3555 209.484C21.2246 209.484 21.1087 209.449 21.1037 209.409C21.0986 209.368 21.2094 209.328 21.3555 209.328C21.5016 209.328 21.6124 209.358 21.6073 209.404Z" fill="#263238"/>
<path d="M81.3565 81.8594C81.0442 82.2371 80.601 86.2361 80.601 86.2361C80.601 86.2361 73.2225 98.8274 72.195 99.0037C71.1676 99.1799 66.6901 90.2653 66.6901 90.2653L62.0918 94.501C62.0918 94.501 64.4892 105.753 71.9835 107.682C75.5091 108.593 81.6939 97.3718 85.8138 88.0392C85.8843 87.8881 88.0147 82.8113 88.0147 82.8113L81.3565 81.8594Z" fill="#A56959"/>
<path d="M87.9343 83.2494C87.9343 83.2494 87.9343 83.3048 87.9091 83.3753C87.7178 83.9797 86.5745 86.4677 86.2219 86.4426C85.8694 86.4174 85.0534 85.8382 85.1391 85.4806C85.2247 85.123 86.6752 82.3882 86.6752 82.3882C86.6752 82.3882 86.927 81.9701 87.7228 82.1917C88.2164 82.3328 87.9343 83.2494 87.9343 83.2494Z" fill="#A56959"/>
<path d="M86.8267 81.6828C86.8267 81.6828 86.8267 81.7382 86.8267 81.8138C86.6353 82.4131 85.492 84.9062 85.1395 84.876C84.7869 84.8458 83.971 84.2716 84.0617 83.914C84.1523 83.5564 85.5726 80.8266 85.5726 80.8266C85.5726 80.8266 85.8295 80.4086 86.6202 80.6302C87.1088 80.7662 86.8267 81.6828 86.8267 81.6828Z" fill="#A56959"/>
<path d="M85.5526 80.5857C85.5526 80.5857 85.5526 80.6411 85.5526 80.7117C85.3612 81.316 84.2179 83.8091 83.8654 83.7789C83.5128 83.7487 82.7019 83.1745 82.7875 82.8169C82.8732 82.4593 84.2985 79.7295 84.2985 79.7295C84.2985 79.7295 84.5554 79.3115 85.3511 79.5281C85.8346 79.6691 85.5526 80.5857 85.5526 80.5857Z" fill="#A56959"/>
<path d="M84.2763 79.517C84.2835 79.5587 84.2835 79.6012 84.2763 79.6429C84.0799 80.2473 82.9417 82.7404 82.5891 82.7101C82.2366 82.6799 81.4206 82.1057 81.5063 81.7482C81.5919 81.3906 83.0172 78.6557 83.0172 78.6557C83.0172 78.6557 83.2741 78.2377 84.0698 78.4593C84.5533 78.6003 84.2763 79.517 84.2763 79.517Z" fill="#A56959"/>
<path d="M85.4512 84.741C85.7217 84.3832 85.942 83.99 86.1059 83.5725C86.3266 83.1883 86.496 82.7769 86.6096 82.3486C86.3461 82.711 86.1263 83.1032 85.9548 83.5171C85.7376 83.903 85.5685 84.314 85.4512 84.741Z" fill="#7C4435"/>
<path d="M83.9707 84.1006C84.3234 83.5703 84.6268 83.009 84.8773 82.4235C85.1792 81.8645 85.4303 81.2796 85.6277 80.6758C85.2751 81.206 84.9716 81.7674 84.7211 82.3529C84.4192 82.9119 84.1681 83.4968 83.9707 84.1006Z" fill="#7C4435"/>
<g opacity="0.78">
<path d="M82.5254 83.3146C82.8752 82.7835 83.1769 82.2222 83.4269 81.6374C83.7314 81.0797 83.9826 80.4946 84.1774 79.8897C83.8276 80.42 83.5242 80.9794 83.2708 81.5619C82.9695 82.1222 82.72 82.7089 82.5254 83.3146Z" fill="#7C4435"/>
</g>
<path d="M81.3662 86.8103L80.8625 84.6043C80.6414 83.6383 80.802 82.6242 81.3108 81.7738L81.7036 81.1241L86.5236 83.5618C86.5236 83.5618 85.3199 85.1281 84.1061 84.2064L84.9925 86.1102L81.3662 86.8103Z" fill="#A56959"/>
<path d="M84.5638 86.2819C84.5335 86.2819 84.5638 86.025 84.5184 85.5969C84.426 85.0036 84.1175 84.4654 83.6521 84.086L83.1888 83.7133L83.7529 83.8946L85.007 84.3025H84.9767C85.2497 84.35 85.5306 84.3189 85.7865 84.2128C86.0425 84.1066 86.263 83.9299 86.4222 83.7032C86.4469 83.6689 86.4672 83.6317 86.4827 83.5924L86.5481 83.7536C85.1581 83.124 83.909 82.5347 83.0226 82.0563C82.5344 81.8209 82.072 81.5357 81.6426 81.2051C82.1425 81.4027 82.6302 81.6297 83.1032 81.885C83.9946 82.3182 85.2487 82.8923 86.6287 83.5068L86.7395 83.5571L86.6992 83.673C86.6765 83.727 86.6495 83.7792 86.6187 83.8291C86.44 84.1226 86.1636 84.3438 85.838 84.4536C85.5428 84.551 85.2294 84.5802 84.9213 84.5393L83.6824 84.1061L83.7831 83.9198C84.277 84.3409 84.5847 84.94 84.6393 85.5868C84.6761 85.8211 84.65 86.061 84.5638 86.2819Z" fill="#7C4435"/>
<path d="M85.8336 84.1462C85.8839 84.1462 85.7933 84.4182 85.8336 84.7758C85.8479 84.8689 85.8903 84.9554 85.9551 85.0238C86.0199 85.0922 86.104 85.1392 86.1962 85.1586C86.3181 85.1549 86.4369 85.1189 86.5405 85.0543C86.644 84.9897 86.7285 84.8988 86.7855 84.7909C87.1078 84.2873 87.4301 83.8189 87.6266 83.4764C87.823 83.1339 87.9287 82.9123 87.964 82.9224C87.9993 82.9324 87.964 83.1843 87.7928 83.562C87.5607 84.0377 87.2965 84.4971 87.002 84.937C86.9185 85.08 86.7973 85.1974 86.6516 85.2765C86.506 85.3555 86.3415 85.3931 86.176 85.3852C86.0399 85.3524 85.9177 85.2772 85.8271 85.1703C85.7366 85.0635 85.6824 84.9306 85.6724 84.7909C85.6568 84.6194 85.6827 84.4466 85.7479 84.2873C85.7832 84.1966 85.8184 84.1412 85.8336 84.1462Z" fill="#7C4435"/>
<path d="M64.9116 116.345C64.9116 116.345 60.8069 106.236 60.827 106.045L61.8897 102.283L62.3178 100.107L63.7079 101.724L70.4921 94.6321C70.618 94.8034 67.4198 90.1597 64.1813 85.6168C61.925 82.4538 59.4823 81.7588 58.0569 81.6581C57.464 81.4765 56.8552 81.3517 56.2387 81.2854L44.5641 81.1846C42.0161 81.209 39.5543 82.1108 37.5936 83.7381C37.0547 84.1814 32.5822 90.1295 29.5352 96.0121L38.9232 102.786L40.4694 100.067V100.122C40.6004 101.044 41.1594 103.733 41.3407 104.655C41.9099 107.49 42.0912 110.905 40.7061 113.247C39.6538 115.87 38.7558 118.552 38.0166 121.28H66.8255C66.8255 121.28 65.8988 118.777 64.9116 116.345Z" fill="#455A64"/>
<path d="M41.7343 112.119L40.727 111.324V111.233L40.6867 111.283L34.1745 106.035L36.9698 101.427L30.2208 96.4961C30.2511 96.8235 23.9605 106.151 24.8116 107.984C26.0154 110.573 34.1896 115.751 37.5339 117.79C36.6232 117.909 35.7214 118.087 34.8343 118.324C33.9831 118.601 36.7582 119.332 37.4331 119.478C37.695 119.528 38.2339 119.11 38.8081 118.556L38.9642 118.647L39.1455 118.224C39.7602 117.591 40.3323 116.918 40.858 116.209C40.999 115.992 40.9939 115.01 40.9385 113.973L41.7343 112.119Z" fill="#A56959"/>
<path d="M77.8418 209.586L77.8015 208.634L68.1465 208.911L68.2321 212.054H68.8264C71.4857 212.119 82.3444 212.215 84.1022 211.666C86.0614 211.077 77.8418 209.586 77.8418 209.586Z" fill="#71DF87"/>
<g opacity="0.3">
<path d="M71.7129 211.892C71.5413 211.126 71.0814 210.455 70.4285 210.018C69.7656 209.562 68.9633 209.354 68.1621 209.429L68.2377 211.947L71.7129 211.892Z" fill="black"/>
</g>
<g opacity="0.3">
<path d="M81.8593 210.447C81.8593 210.447 84.7452 211.137 84.3775 211.586C84.0099 212.034 73.0806 212.306 68.2305 212.054V211.857L81.0333 211.621C81.0333 211.621 81.3002 210.483 81.8593 210.447Z" fill="black"/>
</g>
<path d="M68.0898 211.851H68.251H68.7547H70.5023C71.9831 211.851 74.0279 211.851 76.2742 211.796C78.5205 211.741 80.5703 211.645 82.041 211.559L83.7887 211.443L84.2621 211.408H83.7584L82.0108 211.489C80.5401 211.554 78.4852 211.635 76.249 211.695C74.0128 211.756 71.9529 211.771 70.4772 211.781H68.7295H68.256L68.0898 211.851Z" fill="#263238"/>
<path d="M81.0484 211.761C81.1158 211.488 81.2173 211.224 81.3506 210.976C81.5176 210.742 81.7101 210.527 81.9248 210.336C81.6383 210.446 81.3995 210.652 81.2499 210.92C81.1616 211.04 81.0983 211.176 81.0637 211.32C81.0291 211.465 81.0239 211.615 81.0484 211.761Z" fill="#263238"/>
<path d="M78.1683 210.497C78.1985 210.497 78.3294 210.356 78.4604 210.144C78.5913 209.933 78.682 209.751 78.6568 209.736C78.6316 209.721 78.4956 209.882 78.3647 210.089C78.2337 210.295 78.1431 210.482 78.1683 210.497Z" fill="#263238"/>
<path d="M77.3775 210.135C77.4026 210.135 77.5487 210.059 77.7099 209.913C77.871 209.767 77.9869 209.641 77.9617 209.616C77.9365 209.591 77.7955 209.692 77.6293 209.838C77.4631 209.984 77.3573 210.115 77.3775 210.135Z" fill="#263238"/>
<path d="M76.8633 209.283C77.026 209.334 77.1977 209.35 77.3669 209.328C77.5372 209.344 77.7088 209.323 77.8706 209.268C77.7078 209.217 77.5361 209.202 77.3669 209.223C77.1966 209.204 77.0242 209.224 76.8633 209.283Z" fill="#263238"/>
<path d="M76.6719 208.715C77.0316 208.881 77.4422 208.899 77.8152 208.765C77.6268 208.737 77.4361 208.728 77.246 208.74C77.0557 208.715 76.8636 208.707 76.6719 208.715Z" fill="#263238"/>
<path d="M78.4707 209.707C78.6755 209.744 78.8854 209.744 79.0902 209.707C79.3128 209.677 79.532 209.627 79.7449 209.556C79.8748 209.518 79.9999 209.466 80.1176 209.399C80.1533 209.381 80.1847 209.355 80.2099 209.324C80.235 209.293 80.2534 209.257 80.2637 209.218C80.2708 209.175 80.265 209.13 80.2471 209.09C80.2292 209.05 80.2 209.015 80.163 208.991C79.9253 208.889 79.6603 208.867 79.4091 208.93C79.1578 208.993 78.9342 209.136 78.7729 209.339C78.6779 209.45 78.6121 209.584 78.5815 209.727C78.5815 209.822 78.5815 209.883 78.5815 209.883C78.6377 209.7 78.7283 209.529 78.8484 209.379C78.9825 209.224 79.1568 209.109 79.3521 209.047C79.5936 208.964 79.8571 208.973 80.0925 209.072C80.1932 209.138 80.1579 209.248 80.0522 209.309C79.9423 209.371 79.8257 209.42 79.7046 209.455C79.5 209.53 79.2894 209.587 79.0751 209.626C78.7074 209.681 78.4707 209.692 78.4707 209.707Z" fill="#263238"/>
<path d="M78.6227 209.732C78.6595 209.673 78.6839 209.607 78.6943 209.539C78.7047 209.47 78.7009 209.401 78.6831 209.334C78.658 209.182 78.5957 209.038 78.5018 208.916C78.4468 208.832 78.3721 208.763 78.2843 208.715C78.1966 208.666 78.0983 208.64 77.9981 208.639C77.9686 208.644 77.9405 208.655 77.9153 208.672C77.8902 208.688 77.8685 208.709 77.8517 208.734C77.8348 208.759 77.823 208.787 77.817 208.816C77.8111 208.846 77.811 208.876 77.8168 208.906C77.8351 208.998 77.8729 209.086 77.9276 209.162C78.0141 209.287 78.1156 209.4 78.2298 209.5C78.3299 209.603 78.4547 209.68 78.5924 209.722C78.5924 209.722 78.4665 209.626 78.2902 209.445C78.189 209.341 78.0979 209.228 78.0183 209.107C77.9327 208.991 77.8672 208.775 78.0183 208.744C78.1694 208.714 78.3356 208.865 78.4313 208.976C78.5198 209.083 78.5834 209.209 78.6176 209.344C78.6338 209.472 78.6355 209.603 78.6227 209.732Z" fill="#263238"/>
<path d="M68.2109 209.404C68.2109 209.404 68.4829 209.374 68.9211 209.404C69.4828 209.448 70.023 209.639 70.4874 209.958C70.9344 210.269 71.2837 210.7 71.4947 211.202C71.6509 211.58 71.6761 211.837 71.6962 211.837C71.7163 211.837 71.6962 211.771 71.6962 211.656C71.6773 211.483 71.6367 211.314 71.5753 211.152C71.3809 210.623 71.0294 210.166 70.568 209.842C70.0864 209.511 69.5203 209.324 68.9362 209.303C68.7604 209.286 68.5832 209.286 68.4074 209.303C68.3364 209.325 68.2699 209.359 68.2109 209.404Z" fill="#263238"/>
<path d="M72.8945 210.991C73.8277 211.129 74.7773 211.112 75.7049 210.94C75.7049 210.91 75.0753 210.94 74.2997 210.971C73.5241 211.001 72.8996 210.955 72.8945 210.991Z" fill="#263238"/>
<path d="M71.0117 211.036C71.0117 211.036 71.0671 211.157 71.1376 211.288C71.2081 211.419 71.2434 211.539 71.2736 211.539C71.3038 211.539 71.3189 211.393 71.2384 211.242C71.1578 211.091 71.0319 211.011 71.0117 211.036Z" fill="#263238"/>
<path d="M70.2754 210.23C70.2754 210.255 70.3207 210.346 70.4215 210.436C70.5222 210.527 70.6229 210.583 70.6481 210.562C70.6733 210.542 70.6028 210.452 70.502 210.356C70.4013 210.26 70.3006 210.21 70.2754 210.23Z" fill="#263238"/>
<path d="M69.2485 209.883C69.2485 209.913 69.3845 209.908 69.5255 209.953C69.6666 209.999 69.7723 210.064 69.7975 210.039C69.8227 210.014 69.7371 209.898 69.5608 209.847C69.3845 209.797 69.2385 209.858 69.2485 209.883Z" fill="#263238"/>
<path d="M68.5488 209.727C68.5488 209.752 68.5942 209.797 68.6747 209.827C68.7553 209.858 68.8258 209.853 68.8409 209.827C68.8561 209.802 68.7906 209.757 68.71 209.727C68.6294 209.697 68.5488 209.697 68.5488 209.727Z" fill="#263238"/>
<path d="M49.5509 57.4624C48.9862 56.9861 48.2861 56.6993 47.5496 56.6423C46.8131 56.5854 46.0773 56.7612 45.4461 57.1451C44.8266 57.543 44.3381 58.1524 43.6682 58.4445C42.5552 58.9481 41.2457 58.5553 40.0419 58.7467C39.153 58.9178 38.3532 59.398 37.7844 60.1023C37.2157 60.8066 36.9145 61.6895 36.9344 62.5946C36.9848 63.5616 37.3978 64.6092 36.9344 65.4503C36.5214 66.1957 35.5897 66.4576 34.9198 66.9915C34.372 67.4699 34.0262 68.1385 33.9523 68.8621C33.8785 69.5858 34.0821 70.3104 34.5219 70.8897C34.9228 71.2703 35.3012 71.6739 35.6551 72.0985C36.1286 72.8388 36.0631 73.7857 36.184 74.652C36.3048 75.5183 36.8035 76.5054 37.6949 76.5608C38.4051 76.6062 39.0346 76.0169 39.7397 76.0572C40.747 76.1378 41.1349 77.3264 41.709 78.1373C42.0788 78.6456 42.5778 79.0457 43.1543 79.2964C43.7308 79.547 44.3638 79.6389 44.9878 79.5626C45.8893 79.4417 46.7808 78.9683 47.6571 79.1899C48.7652 79.4719 49.43 80.7663 50.5582 80.9275C51.3993 81.0484 52.1799 80.4893 52.8045 79.9202C53.429 79.3511 54.0636 78.6862 54.8996 78.5351C55.9069 78.3538 56.874 78.9632 57.8863 79.1043C58.5439 79.1811 59.2096 79.0637 59.8012 78.7666C60.3928 78.4694 60.8845 78.0055 61.2154 77.4322C61.7694 76.4248 61.7695 75.1859 62.2882 74.1584C62.6974 73.5036 63.1465 72.8745 63.633 72.2748C63.8786 71.9753 64.0518 71.6231 64.1392 71.2458C64.2265 70.8684 64.2256 70.476 64.1366 70.099C63.9553 69.5953 63.5121 69.1773 63.2955 68.6686C62.9732 67.9031 63.2099 67.0368 63.2955 66.2108C63.3811 65.3848 63.2099 64.3825 62.4544 64.0401C62.1231 63.9562 61.7982 63.8485 61.4824 63.7177C60.8931 63.3551 60.9233 62.514 60.8729 61.824C60.8558 61.3164 60.717 60.8204 60.4681 60.3778C60.2191 59.9351 59.8674 59.5588 59.4426 59.2806C58.5612 58.7769 57.2567 59.0287 56.8135 59.9353" fill="#263238"/>
<path d="M43.915 66.7502C43.4605 65.9207 43.191 65.0026 43.1252 64.0591C43.0594 63.1155 43.1989 62.1689 43.5339 61.2844C43.869 60.3999 44.3917 59.5985 45.0661 58.9353C45.7405 58.2721 46.5505 57.7629 47.4406 57.4427C48.7165 57.0361 50.0591 56.8805 51.3942 56.9844C52.5391 56.9777 53.6728 57.2093 54.7234 57.6643C55.2456 57.8974 55.7048 58.2515 56.0631 58.6972C56.4213 59.143 56.6682 59.6677 56.7833 60.2279" fill="#71DF87"/>
<path d="M50.2004 87.1379C50.8212 87.1858 51.4452 87.1079 52.0351 86.9087C52.625 86.7096 53.1686 86.3933 53.6333 85.979C54.098 85.5646 54.4742 85.0606 54.7394 84.4973C55.0046 83.934 55.1532 83.3229 55.1765 82.7008C55.2722 80.1825 55.3578 77.634 55.3578 77.634C55.3578 77.634 59.1755 77.2815 59.4525 73.5041C59.7295 69.7267 59.6036 61.0035 59.6036 61.0035C57.5109 59.9496 55.1748 59.4734 52.8365 59.6239C50.4982 59.7744 48.2425 60.5462 46.3022 61.8597L45.7129 62.2576L45.9295 82.5748C45.9424 83.7316 46.388 84.8415 47.1785 85.6861C47.969 86.5307 49.0471 87.0486 50.2004 87.1379Z" fill="#A56959"/>
<path d="M57.8057 67.6514C57.7288 67.5747 57.6764 67.4769 57.6552 67.3703C57.6339 67.2638 57.6447 67.1534 57.6862 67.053C57.7277 66.9526 57.7981 66.8668 57.8884 66.8065C57.9787 66.7461 58.0849 66.7139 58.1935 66.7139C58.3021 66.7139 58.4083 66.7461 58.4986 66.8065C58.5889 66.8668 58.6593 66.9526 58.7008 67.053C58.7423 67.1534 58.7531 67.2638 58.7319 67.3703C58.7106 67.4769 58.6582 67.5747 58.5813 67.6514C58.4784 67.7541 58.3389 67.8118 58.1935 67.8118C58.0481 67.8118 57.9086 67.7541 57.8057 67.6514Z" fill="#263238"/>
<path d="M59.275 67.0116C59.2146 67.0771 58.857 66.7699 58.3382 66.7346C57.8195 66.6993 57.4266 66.9461 57.3712 66.8756C57.3158 66.8051 57.4115 66.7296 57.5827 66.6137C57.8136 66.4688 58.0846 66.4015 58.3564 66.4214C58.6282 66.4413 58.8865 66.5475 59.0937 66.7245C59.2599 66.8655 59.3052 66.9864 59.275 67.0116Z" fill="#263238"/>
<path d="M52.8705 66.9413C52.9349 66.9803 52.9905 67.0321 53.0339 67.0934C53.0774 67.1548 53.1078 67.2244 53.1233 67.298C53.1387 67.3716 53.1389 67.4476 53.1237 67.5213C53.1086 67.5949 53.0785 67.6647 53.0352 67.7263C52.992 67.7878 52.9366 67.8398 52.8725 67.879C52.8083 67.9183 52.7368 67.9439 52.6623 67.9544C52.5878 67.9649 52.512 67.9599 52.4395 67.9398C52.3671 67.9198 52.2995 67.885 52.241 67.8378C52.1767 67.7988 52.121 67.747 52.0776 67.6857C52.0341 67.6243 52.0037 67.5546 51.9883 67.481C51.9728 67.4074 51.9727 67.3315 51.9878 67.2578C52.0029 67.1841 52.0331 67.1144 52.0763 67.0528C52.1195 66.9913 52.1749 66.9393 52.239 66.9C52.3032 66.8608 52.3747 66.8351 52.4492 66.8247C52.5237 66.8142 52.5995 66.8192 52.672 66.8392C52.7445 66.8593 52.812 66.894 52.8705 66.9413Z" fill="#263238"/>
<path d="M53.6003 67.1329C53.477 67.0162 53.3279 66.9303 53.1651 66.8821C53.0023 66.834 52.8305 66.825 52.6635 66.8559C52.1599 66.8105 51.7469 67.0674 51.6915 66.9969C51.6361 66.9264 51.7318 66.8508 51.9081 66.735C52.1387 66.5876 52.4107 66.5187 52.6837 66.5386C52.9585 66.559 53.2197 66.6666 53.4291 66.8458C53.5802 66.9868 53.6305 67.1077 53.6003 67.1329Z" fill="#263238"/>
<path d="M55.454 71.1771C55.7287 71.0878 56.0165 71.0453 56.3052 71.0512C56.4462 71.0512 56.552 71.021 56.5671 70.9454C56.5795 70.81 56.5533 70.6738 56.4916 70.5526C56.3808 70.2 56.2649 69.8424 56.144 69.4697C55.8119 68.5503 55.5707 67.6006 55.4238 66.6342C55.5044 66.609 55.9275 67.8379 56.4311 69.3791L56.7535 70.472C56.8316 70.6515 56.8458 70.8524 56.7938 71.0411C56.7717 71.0919 56.7377 71.1367 56.6948 71.1718C56.6519 71.2068 56.6012 71.2311 56.547 71.2426C56.4685 71.2541 56.3887 71.2541 56.3103 71.2426C56.0232 71.2699 55.7336 71.2478 55.454 71.1771Z" fill="#263238"/>
<path d="M55.3674 77.5832C53.621 77.508 51.9363 76.9155 50.5273 75.8809C50.5273 75.8809 51.5346 78.6711 55.3171 78.5603L55.3674 77.5832Z" fill="#7C4435"/>
<path d="M49.1636 59.6989C49.2541 60.4781 49.5994 61.2057 50.1458 61.7685C50.6922 62.3314 51.4093 62.698 52.1855 62.8115C53.1122 62.9223 54.1195 62.6654 54.9556 63.0834C55.5192 63.4558 55.9994 63.9412 56.3658 64.5088C56.5508 64.7917 56.7972 65.0292 57.0867 65.2036C57.3762 65.378 57.7014 65.4848 58.0379 65.5161C58.3608 65.4775 58.6783 65.4032 58.9848 65.2945C59.1387 65.241 59.3025 65.2224 59.4645 65.2398C59.6264 65.2572 59.7825 65.3103 59.9216 65.3952C60.4004 64.2854 60.5926 63.0731 60.4806 61.8696C60.4177 61.2711 60.1894 60.702 59.821 60.226C59.4527 59.7501 58.9591 59.3862 58.3955 59.1751C57.6451 58.9485 56.8342 59.0945 56.0636 58.9585C55.4341 58.8125 54.8251 58.5892 54.2505 58.2937C53.2978 57.7793 52.2176 57.5486 51.1379 57.6289C50.0701 57.7901 49.0427 58.6664 49.0729 59.7442" fill="#263238"/>
<path d="M45.9802 70.0342C47.3501 71.1372 49.0021 68.2865 49.7324 66.5086C50.4006 64.6751 50.7597 62.7433 50.7951 60.7922C50.8976 60.1594 50.7802 59.5106 50.4627 58.9538C50.0698 58.42 49.8935 59.0747 49.4554 58.5761C48.6143 57.599 47.063 58.1278 46.2975 58.4602C45.0232 59.0092 44.2275 60.4346 43.9756 61.88C43.8011 63.3399 43.8538 64.818 44.1318 66.2618C44.2275 66.9266 44.3232 67.5914 44.4138 68.2764C44.4458 68.7485 44.5817 69.2077 44.8117 69.6212C44.9206 69.8194 45.0961 69.9727 45.3073 70.0539C45.5184 70.135 45.7514 70.1387 45.9651 70.0644" fill="#263238"/>
<path d="M45.9296 66.9266C45.9284 66.7794 45.8708 66.6383 45.7686 66.5324C45.6665 66.4265 45.5276 66.3639 45.3806 66.3574C44.6755 66.3574 43.5221 66.6193 43.4163 68.5634C43.2652 71.3436 45.9346 70.6485 45.9346 70.578C45.9346 70.5075 45.9346 68.0094 45.9296 66.9266Z" fill="#A56959"/>
<path d="M45.3349 69.4795C45.3349 69.4795 45.2845 69.5097 45.1989 69.5399C45.0822 69.5849 44.953 69.5849 44.8363 69.5399C44.6615 69.4166 44.5226 69.249 44.4341 69.0542C44.3456 68.8595 44.3106 68.6446 44.3326 68.4319C44.3374 68.1935 44.3959 67.9594 44.5039 67.7469C44.5355 67.6613 44.5873 67.5847 44.6548 67.5233C44.7223 67.462 44.8035 67.4177 44.8917 67.3943C44.9482 67.3832 45.0069 67.3922 45.0575 67.4198C45.1081 67.4474 45.1474 67.4919 45.1687 67.5454C45.1989 67.626 45.1687 67.6764 45.1939 67.6865C45.2191 67.6965 45.2594 67.6411 45.2392 67.5253C45.2303 67.4553 45.1963 67.3909 45.1435 67.344C45.0691 67.2813 44.9738 67.249 44.8766 67.2533C44.7615 67.27 44.6525 67.3158 44.56 67.3863C44.4675 67.4568 44.3944 67.5497 44.3477 67.6562C44.2182 67.8913 44.1458 68.1536 44.1362 68.4218C44.1096 68.6683 44.156 68.9171 44.2698 69.1374C44.3835 69.3577 44.5595 69.5397 44.7759 69.6608C44.849 69.6885 44.9275 69.6989 45.0053 69.691C45.0831 69.6831 45.158 69.6573 45.2241 69.6154C45.3248 69.5449 45.345 69.4845 45.3349 69.4795Z" fill="#7C4435"/>
<path d="M54.1196 71.847C54.0232 72.0131 53.9951 72.2101 54.0412 72.3965C54.0874 72.5829 54.2041 72.7441 54.3668 72.846C54.5296 72.948 54.7255 72.9827 54.9134 72.9429C55.1012 72.9031 55.2662 72.7919 55.3736 72.6327C55.4312 72.5543 55.4727 72.4654 55.4959 72.3709C55.5191 72.2765 55.5234 72.1784 55.5087 72.0823C55.4939 71.9862 55.4604 71.894 55.41 71.8108C55.3596 71.7276 55.2934 71.6552 55.215 71.5977C55.1366 71.5401 55.0477 71.4986 54.9532 71.4754C54.8588 71.4523 54.7607 71.4479 54.6646 71.4627C54.5685 71.4774 54.4763 71.5109 54.3931 71.5613C54.31 71.6117 54.2375 71.678 54.18 71.7563" fill="#7C4435"/>
<path d="M55.8505 72.3858C55.6626 72.4631 55.4606 72.4999 55.2575 72.4938C55.0544 72.4878 54.8549 72.4389 54.672 72.3506C54.0323 72.1239 53.6647 71.6757 53.7402 71.6304C53.8158 71.585 54.1834 71.9023 54.7475 72.0987C55.3116 72.2952 55.8455 72.2901 55.8505 72.3858Z" fill="#263238"/>
<path d="M48.7645 57.5231C47.732 57.3821 47.0017 56.3748 46.8254 55.3524C46.7277 54.3158 46.8513 53.2703 47.1881 52.2852C48.0366 52.8753 48.6502 53.7455 48.921 54.743C49.1917 55.7405 49.1025 56.8015 48.6688 57.7397" fill="#71DF87"/>
<path d="M48.7536 57.3673C48.653 56.9841 48.6824 56.5783 48.8374 56.2137C48.9924 55.849 49.2641 55.5462 49.6099 55.3527C50.3031 54.9803 51.0972 54.8391 51.8763 54.9498C51.9453 54.952 52.0127 54.971 52.0727 55.0052C52.1071 55.0347 52.1352 55.0709 52.1551 55.1116C52.175 55.1523 52.1864 55.1966 52.1886 55.2419C52.2161 55.6267 52.1276 56.0109 51.9346 56.3448C51.7416 56.6788 51.4528 56.9473 51.1057 57.1155C50.4044 57.4345 49.6449 57.606 48.8745 57.6191C48.7564 57.6396 48.6349 57.6292 48.522 57.5889C48.4941 57.5778 48.4686 57.5613 48.4472 57.5403C48.4257 57.5194 48.4086 57.4943 48.3969 57.4667C48.3852 57.439 48.379 57.4093 48.3789 57.3793C48.3788 57.3493 48.3846 57.3195 48.3961 57.2918" fill="#71DF87"/>
<path d="M62.5054 62.3582C62.5054 62.3582 62.5054 62.3028 62.4399 62.2273C62.3985 62.1741 62.3469 62.1297 62.2881 62.0968C62.2293 62.064 62.1644 62.0432 62.0974 62.0359C61.9946 62.0086 61.8853 62.0216 61.7918 62.0721C61.6982 62.1227 61.6274 62.2069 61.5938 62.3078C61.5635 62.4383 61.5778 62.5752 61.6344 62.6966C61.691 62.818 61.7866 62.917 61.906 62.9777C62.0592 63.0338 62.2267 63.0369 62.3819 62.9867C62.5371 62.9365 62.671 62.8358 62.7623 62.7007C62.8658 62.5368 62.9269 62.3497 62.9401 62.1562C62.9533 61.9628 62.9181 61.7691 62.8378 61.5927C62.6522 61.1718 62.3244 60.8296 61.9119 60.6261C61.4994 60.4226 61.0284 60.3707 60.5814 60.4796L60.4304 60.5249L59.7303 60.7465L60.3044 60.2983C60.4711 60.1519 60.5914 59.9599 60.6505 59.7461C60.7095 59.5322 60.7048 59.3058 60.6368 59.0945C60.5674 58.8942 60.454 58.712 60.305 58.5613C60.156 58.4105 59.9751 58.295 59.7756 58.2232C59.4212 58.1079 59.045 58.0761 58.6763 58.1303C58.3076 58.1845 57.9564 58.3232 57.6502 58.5355C57.3782 58.7017 57.1465 58.8981 56.9098 59.0391C56.7102 59.1645 56.4806 59.234 56.245 59.2406C55.8421 59.2406 55.691 59.0291 55.7061 59.0291C55.8687 59.1193 56.0549 59.1579 56.24 59.1399C56.4544 59.1173 56.6593 59.0392 56.8343 58.9132C57.0458 58.7772 57.2674 58.5707 57.5545 58.3844C57.8617 58.1777 58.2026 58.026 58.5618 57.9361C58.9887 57.827 59.4387 57.8516 59.8511 58.0067C60.0843 58.0875 60.296 58.2201 60.4705 58.3946C60.645 58.5691 60.7776 58.7808 60.8585 59.014C60.9501 59.2781 60.9598 59.5637 60.8861 59.8334C60.8124 60.1031 60.6588 60.3442 60.4455 60.5249L60.3195 60.2983L60.4958 60.2429C61.0034 60.1179 61.5388 60.1781 62.006 60.4126C62.4731 60.6471 62.8413 61.0405 63.0443 61.5221C63.1368 61.7367 63.1734 61.9713 63.1505 62.2039C63.1276 62.4364 63.046 62.6594 62.9133 62.8518C62.7905 63.022 62.6129 63.1449 62.4103 63.1999C62.2077 63.2549 61.9924 63.2387 61.8003 63.154C61.6469 63.0719 61.5265 62.9393 61.4595 62.7787C61.3925 62.6182 61.383 62.4394 61.4326 62.2726C61.4578 62.2046 61.4974 62.1428 61.5487 62.0915C61.6 62.0402 61.6618 62.0006 61.7298 61.9754C61.8393 61.9352 61.958 61.9265 62.0723 61.9503C62.1502 61.9628 62.224 61.9935 62.2879 62.0399C62.3518 62.0863 62.4038 62.147 62.4399 62.2172C62.5406 62.3028 62.5054 62.3582 62.5054 62.3582Z" fill="#263238"/>
<path d="M34.8542 66.846C34.9451 66.8227 35.0404 66.8227 35.1312 66.846C35.3502 66.9137 35.5434 67.0462 35.6855 67.2261C35.8276 67.4059 35.9118 67.6246 35.927 67.8533C35.9333 67.9723 35.9161 68.0914 35.8764 68.2037C35.8366 68.3161 35.7751 68.4195 35.6953 68.508C35.5082 68.7098 35.2575 68.8413 34.9852 68.8807C34.8319 68.9062 34.6749 68.8978 34.5252 68.856C34.3755 68.8142 34.2368 68.7402 34.1189 68.639C33.8967 68.3842 33.7491 68.0731 33.6922 67.7399C33.6354 67.4067 33.6715 67.0643 33.7966 66.7503C33.9216 66.3783 34.126 66.0379 34.3956 65.7527C34.6652 65.4674 34.9935 65.2442 35.3579 65.0983C35.7457 64.9472 36.1537 64.8868 36.5364 64.7709C36.7265 64.7251 36.9052 64.6412 37.0619 64.5244C37.2186 64.4075 37.35 64.2601 37.448 64.091C37.6175 63.7137 37.6667 63.2935 37.5891 62.8873C37.5127 62.4506 37.3946 62.0222 37.2365 61.608C37.0752 61.17 36.9834 60.7095 36.9645 60.2431C36.9707 59.768 37.1497 59.3114 37.4682 58.9588C37.7692 58.6257 38.156 58.3817 38.5863 58.2537C38.9939 58.1392 39.4205 58.1083 39.8404 58.163C40.6664 58.2486 41.3513 58.6667 42.0061 58.7624C42.3204 58.8246 42.6465 58.7803 42.9328 58.6365C43.1956 58.4863 43.4307 58.2921 43.6278 58.0623C43.959 57.6237 44.3774 57.2584 44.8567 56.9895C45.2375 56.814 45.6586 56.7444 46.0756 56.7881C46.3371 56.8127 46.5916 56.8861 46.826 57.0046C46.8865 57.0351 46.9453 57.0687 47.0023 57.1054L47.0527 57.1507C46.7426 57.008 46.4105 56.9194 46.0705 56.8888C45.674 56.8633 45.2778 56.9433 44.9222 57.1205C44.4675 57.394 44.0734 57.7573 43.7638 58.1882C43.5552 58.4373 43.3067 58.65 43.0285 58.8178C42.7046 58.9848 42.3349 59.0414 41.9759 58.9789C41.2405 58.8681 40.5807 58.4753 39.8152 58.4048C39.4247 58.34 39.0243 58.3722 38.6493 58.4987C38.2742 58.6252 37.9361 58.842 37.6646 59.13C37.3937 59.4393 37.245 59.837 37.2466 60.2481C37.2621 60.6857 37.3489 61.1178 37.5034 61.5274C37.6677 61.9559 37.7892 62.3996 37.8661 62.852C37.951 63.3121 37.8912 63.7872 37.6948 64.2119C37.5814 64.4101 37.4286 64.5829 37.2458 64.7198C37.0631 64.8566 36.8542 64.9546 36.6321 65.0076C36.2191 65.1336 35.8162 65.189 35.4636 65.3199C35.1295 65.4541 34.828 65.6584 34.5795 65.9191C34.331 66.1797 34.1413 66.4907 34.0232 66.8309C33.8956 67.1114 33.8483 67.4219 33.8865 67.7278C33.9248 68.0336 34.047 68.3229 34.2398 68.5634C34.4361 68.7165 34.6822 68.7914 34.9305 68.7737C35.1788 68.756 35.4118 68.647 35.5845 68.4677C35.7113 68.3251 35.7874 68.1446 35.8011 67.9542C35.8148 67.7639 35.7652 67.5744 35.6601 67.4151C35.5454 67.1853 35.3499 67.006 35.1111 66.9115C34.9499 66.8561 34.8542 66.856 34.8542 66.846Z" fill="#263238"/>
<path d="M50.8813 69.5153C50.8668 69.523 50.851 69.5276 50.8346 69.529C50.8183 69.5304 50.8019 69.5284 50.7863 69.5232C50.7708 69.518 50.7564 69.5097 50.7442 69.4989C50.732 69.488 50.7221 69.4747 50.7151 69.4599C50.707 69.4292 50.7108 69.3965 50.7258 69.3685C50.7407 69.3405 50.7657 69.3191 50.7957 69.3088C50.8253 69.2958 50.8587 69.2943 50.8894 69.3046C50.9201 69.3148 50.9459 69.336 50.9619 69.3642C50.97 69.3949 50.9662 69.4275 50.9512 69.4555C50.9363 69.4835 50.9113 69.5049 50.8813 69.5153Z" fill="#263238"/>
<path d="M51.8726 69.4347C51.8544 69.4368 51.8359 69.4351 51.8182 69.4299C51.8006 69.4246 51.7843 69.4158 51.7702 69.4041C51.756 69.3923 51.7444 69.3778 51.7361 69.3614C51.7277 69.345 51.7228 69.3271 51.7215 69.3088C51.7179 69.2906 51.7178 69.2719 51.7214 69.2537C51.725 69.2354 51.7321 69.2181 51.7424 69.2027C51.7527 69.1872 51.766 69.174 51.7814 69.1637C51.7968 69.1534 51.8141 69.1462 51.8323 69.1426C51.8666 69.1454 51.8988 69.1599 51.9237 69.1835C51.9486 69.2071 51.9648 69.2385 51.9694 69.2725C51.9741 69.3065 51.9671 69.3411 51.9495 69.3706C51.9319 69.4001 51.9048 69.4227 51.8726 69.4347Z" fill="#263238"/>
<path d="M52.7741 69.641C52.7361 69.6303 52.7036 69.6057 52.6831 69.5721C52.6625 69.5385 52.6554 69.4983 52.6633 69.4597C52.6633 69.364 52.7438 69.2985 52.8144 69.3086C52.8523 69.3192 52.8848 69.3438 52.9054 69.3775C52.9259 69.4111 52.933 69.4513 52.9252 69.4899C52.9228 69.5292 52.9061 69.5662 52.8782 69.5941C52.8504 69.6219 52.8134 69.6386 52.7741 69.641Z" fill="#263238"/>
<path d="M51.7052 70.2606C51.7775 70.2606 51.8361 70.2042 51.8361 70.1347C51.8361 70.0652 51.7775 70.0088 51.7052 70.0088C51.6328 70.0088 51.5742 70.0652 51.5742 70.1347C51.5742 70.2042 51.6328 70.2606 51.7052 70.2606Z" fill="#263238"/>
<path d="M57.9723 69.7717C57.9438 69.7783 57.9139 69.7763 57.8866 69.7658C57.8592 69.7553 57.8357 69.7368 57.819 69.7127C57.8023 69.6886 57.7932 69.6601 57.793 69.6308C57.7927 69.6015 57.8013 69.5728 57.8175 69.5484C57.8337 69.5241 57.8569 69.5051 57.8841 69.4941C57.9112 69.4831 57.9411 69.4805 57.9697 69.4867C57.9983 69.4928 58.0245 69.5074 58.0447 69.5286C58.0649 69.5498 58.0783 69.5766 58.0831 69.6055C58.0892 69.6421 58.0811 69.6796 58.0606 69.7105C58.04 69.7413 58.0084 69.7632 57.9723 69.7717Z" fill="#263238"/>
<path d="M58.6407 69.8021C58.5702 69.8021 58.545 69.6762 58.5803 69.5755C58.6155 69.4747 58.6961 69.4093 58.7666 69.4294C58.8371 69.4496 58.8623 69.5553 58.8271 69.6611C58.7918 69.7669 58.7112 69.8273 58.6407 69.8021Z" fill="#263238"/>
<path d="M58.309 70.7139C58.2909 70.7104 58.2737 70.7032 58.2585 70.6928C58.2433 70.6824 58.2304 70.6691 58.2205 70.6535C58.2106 70.638 58.204 70.6206 58.201 70.6024C58.198 70.5842 58.1988 70.5656 58.2032 70.5477C58.2051 70.5298 58.2105 70.5125 58.2191 70.4967C58.2278 70.4809 58.2395 70.467 58.2535 70.4557C58.2676 70.4445 58.2837 70.4361 58.301 70.4312C58.3183 70.4262 58.3364 70.4248 58.3543 70.4269C58.3722 70.4298 58.3893 70.4364 58.4045 70.4463C58.4197 70.4562 58.4326 70.4691 58.4426 70.4842C58.4525 70.4994 58.4592 70.5164 58.4622 70.5343C58.4652 70.5522 58.4645 70.5705 58.4601 70.588C58.4563 70.6246 58.4383 70.6582 58.4101 70.6817C58.3819 70.7052 58.3456 70.7168 58.309 70.7139Z" fill="#263238"/>
<path d="M78.5108 208.916L67.1485 126.589L66.8312 121.276L38.4001 119.926L37.2114 124.403C33.2225 138.465 13.0664 206.463 13.0664 206.463L22.9128 209.571L52.2253 131.656L65.8692 208.78L78.5108 208.916Z" fill="#263238"/>
<path d="M65.3804 120.48C65.3048 120.48 65.2343 120.324 65.2142 120.117C65.194 119.911 65.2142 119.735 65.3048 119.73C65.3955 119.725 65.4509 119.886 65.471 120.092C65.4912 120.299 65.4509 120.475 65.3804 120.48Z" fill="#455A64"/>
<path d="M65.6779 123.476C65.6074 123.476 65.5117 123.154 65.4714 122.741C65.4311 122.328 65.4714 121.986 65.5268 121.981C65.5822 121.975 65.693 122.303 65.7333 122.716C65.7736 123.129 65.7484 123.471 65.6779 123.476Z" fill="#455A64"/>
<path d="M65.9899 126.473C65.9144 126.473 65.8237 126.151 65.7784 125.738C65.7331 125.325 65.7784 124.982 65.8288 124.972C65.8791 124.962 65.995 125.294 66.0403 125.707C66.0856 126.12 66.0605 126.463 65.9899 126.473Z" fill="#455A64"/>
<path d="M66.3123 129.465C66.2368 129.465 66.1461 129.142 66.1008 128.729C66.0555 128.316 66.1008 127.974 66.1461 127.969C66.1915 127.964 66.3174 128.291 66.3577 128.704C66.398 129.117 66.3829 129.455 66.3123 129.465Z" fill="#455A64"/>
<path d="M66.6452 132.456C66.5747 132.456 66.479 132.134 66.4337 131.721C66.3884 131.308 66.4035 130.97 66.479 130.96C66.5546 130.95 66.6452 131.283 66.6906 131.696C66.7359 132.109 66.7157 132.446 66.6452 132.456Z" fill="#455A64"/>
<path d="M66.9922 135.448C66.9166 135.448 66.8209 135.126 66.7706 134.713C66.7202 134.3 66.7454 133.962 66.8159 133.952C66.8864 133.942 66.9871 134.27 67.0325 134.683C67.0778 135.096 67.0627 135.438 66.9922 135.448Z" fill="#455A64"/>
<path d="M67.3453 138.44C67.2748 138.44 67.174 138.118 67.1237 137.705C67.0733 137.292 67.0935 136.949 67.164 136.944C67.2345 136.939 67.3352 137.262 67.3856 137.675C67.4359 138.088 67.4158 138.43 67.3453 138.44Z" fill="#455A64"/>
<path d="M67.708 141.427C67.6375 141.427 67.5367 141.109 67.4864 140.696C67.436 140.283 67.4511 139.941 67.5267 139.931C67.6022 139.921 67.6979 140.248 67.7483 140.661C67.7986 141.074 67.7785 141.417 67.708 141.427Z" fill="#455A64"/>
<path d="M68.0802 144.413C68.0047 144.413 67.9039 144.095 67.8536 143.682C67.8032 143.269 67.8183 142.927 67.8939 142.922C67.9694 142.917 68.0651 143.239 68.1155 143.652C68.1658 144.065 68.1507 144.403 68.0802 144.413Z" fill="#455A64"/>
<path d="M68.4575 147.399C68.3819 147.399 68.2812 147.082 68.2308 146.669C68.1805 146.256 68.1956 145.919 68.2661 145.908C68.3366 145.898 68.4373 146.226 68.4927 146.639C68.5481 147.052 68.5481 147.389 68.4575 147.399Z" fill="#455A64"/>
<path d="M68.84 150.387C68.7695 150.387 68.6688 150.069 68.6134 149.656C68.558 149.243 68.5731 148.906 68.6486 148.896C68.7242 148.886 68.8199 149.213 68.8753 149.626C68.9307 150.039 68.9105 150.356 68.84 150.387Z" fill="#455A64"/>
<path d="M69.2287 153.379C69.1582 153.379 69.0574 153.061 69.002 152.648C68.9466 152.235 68.9617 151.893 69.0373 151.888C69.1128 151.883 69.2085 152.2 69.2639 152.613C69.3193 153.026 69.3042 153.379 69.2287 153.379Z" fill="#455A64"/>
<path d="M69.6266 156.359C69.5511 156.359 69.4504 156.042 69.395 155.629C69.3396 155.216 69.3547 154.874 69.4252 154.864C69.4957 154.853 69.6015 155.181 69.6569 155.594C69.7123 156.007 69.6971 156.349 69.6266 156.359Z" fill="#455A64"/>
<path d="M70.0231 159.342C69.9476 159.342 69.8468 159.024 69.7914 158.611C69.736 158.198 69.7511 157.861 69.8217 157.851C69.8922 157.841 69.9979 158.168 70.0533 158.581C70.1087 158.994 70.0936 159.332 70.0231 159.342Z" fill="#455A64"/>
<path d="M70.4218 162.328C70.3513 162.328 70.2505 162.011 70.1901 161.598C70.1296 161.185 70.1498 160.842 70.2203 160.832C70.2908 160.822 70.3966 161.149 70.452 161.562C70.5074 161.975 70.4923 162.318 70.4218 162.328Z" fill="#455A64"/>
<path d="M70.8259 165.309C70.7553 165.309 70.6496 164.992 70.5942 164.579C70.5388 164.166 70.5539 163.829 70.6244 163.819C70.6949 163.809 70.8007 164.136 70.8561 164.544C70.9115 164.952 70.9014 165.299 70.8259 165.309Z" fill="#455A64"/>
<path d="M71.2324 168.291C71.1569 168.291 71.0562 167.979 71.0008 167.566C70.9454 167.153 70.9554 166.81 71.0008 166.8C71.0461 166.79 71.177 167.117 71.2324 167.53C71.2878 167.943 71.303 168.286 71.2324 168.291Z" fill="#455A64"/>
<path d="M71.6455 171.272C71.575 171.272 71.4693 170.955 71.4088 170.547C71.3484 170.139 71.3585 169.792 71.4088 169.781C71.4592 169.771 71.5851 170.099 71.6405 170.507C71.6959 170.915 71.7161 171.262 71.6455 171.272Z" fill="#455A64"/>
<path d="M72.0731 174.249C72.0026 174.249 71.8969 173.932 71.8364 173.524C71.776 173.116 71.781 172.773 71.8364 172.758C71.8918 172.743 72.0177 173.076 72.0782 173.484C72.1386 173.892 72.1537 174.239 72.0731 174.249Z" fill="#455A64"/>
<path d="M72.5333 177.221C72.4628 177.221 72.3519 176.909 72.2915 176.496C72.2311 176.083 72.2361 175.746 72.2915 175.736C72.3469 175.726 72.4678 176.048 72.5333 176.461C72.5987 176.874 72.6038 177.211 72.5333 177.221Z" fill="#455A64"/>
<path d="M72.9805 180.198C72.91 180.198 72.8042 179.886 72.7388 179.473C72.6733 179.06 72.6834 178.722 72.7388 178.712C72.7942 178.702 72.915 179.024 72.9805 179.437C73.046 179.85 73.0812 180.188 72.9805 180.198Z" fill="#455A64"/>
<path d="M73.4336 183.169C73.3631 183.169 73.2523 182.856 73.1919 182.448C73.1315 182.04 73.1365 181.693 73.1919 181.683C73.2473 181.673 73.3732 181.995 73.4336 182.408C73.4941 182.821 73.5042 183.159 73.4336 183.169Z" fill="#455A64"/>
<path d="M73.8881 186.146C73.8125 186.146 73.7068 185.828 73.6413 185.42C73.5758 185.012 73.5909 184.67 73.6413 184.655C73.6916 184.64 73.8226 184.972 73.883 185.38C73.9435 185.788 73.9586 186.115 73.8881 186.146Z" fill="#455A64"/>
<path d="M74.341 189.137C74.2655 189.137 74.1597 188.825 74.0942 188.412C74.0288 187.999 74.0388 187.662 74.0942 187.652C74.1496 187.642 74.2705 187.964 74.336 188.377C74.4015 188.79 74.4115 189.107 74.341 189.137Z" fill="#455A64"/>
<path d="M74.7891 192.098C74.7186 192.098 74.6128 191.781 74.5474 191.373C74.4819 190.965 74.492 190.618 74.5474 190.608C74.6028 190.598 74.7287 190.92 74.7941 191.333C74.8596 191.746 74.8647 192.083 74.7891 192.098Z" fill="#455A64"/>
<path d="M75.2422 195.076C75.1717 195.076 75.066 194.759 75.0005 194.351C74.935 193.943 74.9451 193.595 75.0005 193.585C75.0559 193.575 75.1818 193.897 75.2473 194.31C75.3128 194.723 75.3178 195.061 75.2422 195.076Z" fill="#455A64"/>
<path d="M75.6954 198.052C75.6249 198.052 75.5141 197.734 75.4536 197.326C75.3932 196.918 75.3982 196.571 75.4536 196.561C75.509 196.551 75.6349 196.873 75.6954 197.286C75.7558 197.699 75.7659 198.042 75.6954 198.052Z" fill="#455A64"/>
<path d="M76.1478 201.028C76.0723 201.028 75.9665 200.716 75.901 200.303C75.8356 199.89 75.8507 199.547 75.901 199.537C75.9514 199.527 76.0824 199.855 76.1428 200.263C76.2032 200.671 76.2183 201.018 76.1478 201.028Z" fill="#455A64"/>
<path d="M76.6075 204.006C76.5319 204.006 76.4262 203.693 76.3657 203.28C76.3053 202.867 76.3103 202.53 76.3657 202.52C76.4211 202.51 76.547 202.832 76.6075 203.245C76.6679 203.658 76.6679 203.995 76.6075 204.006Z" fill="#455A64"/>
<path d="M77.0392 206.987C76.9687 206.987 76.8579 206.675 76.7975 206.262C76.7371 205.849 76.7471 205.506 76.7975 205.496C76.8479 205.486 76.9738 205.809 77.0392 206.222C77.1047 206.635 77.1098 206.977 77.0392 206.987Z" fill="#455A64"/>
<path d="M77.3628 209.243C77.2923 209.243 77.2117 209.092 77.1815 208.885C77.1513 208.679 77.1815 208.503 77.257 208.493C77.3326 208.483 77.4132 208.644 77.4434 208.85C77.4736 209.057 77.4333 209.233 77.3628 209.243Z" fill="#455A64"/>
<path d="M22.2134 207.42C22.2839 207.42 22.2889 207.621 22.2134 207.818C22.1378 208.014 22.0472 208.16 21.9767 208.14C21.9062 208.12 21.9011 207.939 21.9767 207.742C22.0522 207.546 22.1479 207.4 22.2134 207.42Z" fill="#455A64"/>
<path d="M23.149 204.504C23.2145 204.529 23.149 204.872 23.0382 205.274C22.9274 205.677 22.7511 205.985 22.6806 205.964C22.6101 205.944 22.6806 205.597 22.7914 205.194C22.9022 204.791 23.0785 204.484 23.149 204.504Z" fill="#455A64"/>
<path d="M24.0914 201.598C24.162 201.598 24.0914 201.961 23.9806 202.364C23.8698 202.767 23.6885 203.074 23.618 203.049C23.5475 203.023 23.618 202.686 23.7338 202.283C23.8497 201.88 24.026 201.573 24.0914 201.598Z" fill="#455A64"/>
<path d="M25.0533 198.707C25.1238 198.707 25.0533 199.069 24.9374 199.472C24.8216 199.875 24.6403 200.177 24.5748 200.157C24.5093 200.137 24.5748 199.789 24.6907 199.392C24.8065 198.994 24.9878 198.666 25.0533 198.707Z" fill="#455A64"/>
<path d="M26.0301 195.791C26.1006 195.791 26.03 196.153 25.9092 196.556C25.7883 196.959 25.607 197.261 25.5415 197.236C25.476 197.211 25.5415 196.873 25.6624 196.47C25.7833 196.068 25.9595 195.765 26.0301 195.791Z" fill="#455A64"/>
<path d="M27.0175 192.89C27.088 192.915 27.0175 193.257 26.8966 193.66C26.7758 194.063 26.5894 194.365 26.5239 194.34C26.4585 194.315 26.5239 193.972 26.6448 193.575C26.7657 193.177 26.952 192.869 27.0175 192.89Z" fill="#455A64"/>
<path d="M28.0198 189.998C28.0903 190.024 28.0198 190.366 27.8939 190.764C27.768 191.162 27.5867 191.469 27.5161 191.444C27.4456 191.419 27.5161 191.076 27.6471 190.678C27.778 190.28 27.9543 189.973 28.0198 189.998Z" fill="#455A64"/>
<path d="M29.0363 187.123C29.1018 187.123 29.0363 187.49 28.9054 187.888C28.7744 188.286 28.5931 188.593 28.5276 188.568C28.4622 188.543 28.5276 188.201 28.6586 187.803C28.7895 187.405 28.9658 187.088 29.0363 187.123Z" fill="#455A64"/>
<path d="M30.0591 184.222C30.1296 184.247 30.0591 184.589 29.9281 184.987C29.7972 185.385 29.6158 185.692 29.5453 185.667C29.4748 185.642 29.5453 185.299 29.6813 184.902C29.8173 184.504 29.9936 184.202 30.0591 184.222Z" fill="#455A64"/>
<path d="M31.0973 181.34C31.1678 181.366 31.0973 181.708 30.9613 182.106C30.8253 182.504 30.6491 182.806 30.5785 182.781C30.508 182.756 30.5785 182.413 30.7145 182.015C30.8505 181.617 31.0318 181.315 31.0973 181.34Z" fill="#455A64"/>
<path d="M32.1451 178.464C32.2156 178.49 32.1451 178.827 32.0041 179.225C31.863 179.623 31.6868 179.925 31.6213 179.9C31.5558 179.875 31.6213 179.532 31.7573 179.139C31.8933 178.746 32.0796 178.439 32.1451 178.464Z" fill="#455A64"/>
<path d="M33.2028 175.589C33.2682 175.589 33.2028 175.957 33.0617 176.35C32.9207 176.743 32.7394 177.05 32.6739 177.025C32.6085 177 32.6739 176.657 32.815 176.259C32.956 175.861 33.1323 175.564 33.2028 175.589Z" fill="#455A64"/>
<path d="M34.2646 172.713C34.3351 172.739 34.2646 173.081 34.1235 173.479C33.9825 173.877 33.8012 174.174 33.7307 174.149C33.6602 174.124 33.7307 173.786 33.8768 173.388C34.0228 172.99 34.1991 172.688 34.2646 172.713Z" fill="#455A64"/>
<path d="M35.3386 169.847C35.4091 169.872 35.3386 170.21 35.1925 170.608C35.0465 171.006 34.8702 171.303 34.8047 171.278C34.7392 171.252 34.8047 170.91 34.9508 170.517C35.0968 170.124 35.2731 169.822 35.3386 169.847Z" fill="#455A64"/>
<path d="M36.421 166.977C36.4865 167.002 36.421 167.344 36.275 167.742C36.1289 168.14 35.9476 168.437 35.8771 168.412C35.8066 168.387 35.8771 168.044 36.0282 167.646C36.1793 167.249 36.3505 166.977 36.421 166.977Z" fill="#455A64"/>
<path d="M37.5088 164.116C37.5743 164.142 37.5088 164.479 37.3577 164.877C37.2066 165.275 37.0303 165.572 36.9649 165.547C36.8994 165.522 36.9649 165.179 37.1109 164.781C37.257 164.383 37.4383 164.086 37.5088 164.116Z" fill="#455A64"/>
<path d="M38.6018 161.25C38.6673 161.276 38.6018 161.618 38.4508 162.016C38.2997 162.414 38.1234 162.706 38.0529 162.681C37.9824 162.656 38.0529 162.313 38.204 161.92C38.3551 161.527 38.5313 161.225 38.6018 161.25Z" fill="#455A64"/>
<path d="M39.6993 158.414C39.7648 158.439 39.6993 158.782 39.5482 159.18C39.3971 159.578 39.2158 159.87 39.1503 159.845C39.0848 159.819 39.1503 159.477 39.3014 159.084C39.4525 158.691 39.6338 158.364 39.6993 158.414Z" fill="#455A64"/>
<path d="M40.8021 155.534C40.8676 155.559 40.8021 155.901 40.651 156.294C40.4999 156.687 40.3186 156.989 40.2481 156.959C40.1776 156.929 40.2481 156.597 40.4042 156.199C40.5603 155.801 40.7366 155.509 40.8021 155.534Z" fill="#455A64"/>
<path d="M41.9113 152.672C41.9767 152.703 41.9113 153.04 41.7551 153.438C41.599 153.836 41.4227 154.128 41.3573 154.103C41.2918 154.078 41.3573 153.735 41.5134 153.342C41.6695 152.949 41.8559 152.647 41.9113 152.672Z" fill="#455A64"/>
<path d="M43.0187 149.822C43.0892 149.848 43.0187 150.185 42.8626 150.583C42.7064 150.981 42.5301 151.273 42.4647 151.248C42.3992 151.223 42.4647 150.88 42.6208 150.487C42.7769 150.094 42.9532 149.792 43.0187 149.822Z" fill="#455A64"/>
<path d="M44.132 146.966C44.2025 146.992 44.132 147.334 43.9758 147.727C43.8197 148.12 43.6434 148.417 43.578 148.392C43.5125 148.366 43.578 148.024 43.7341 147.631C43.8902 147.238 44.0665 146.941 44.132 146.966Z" fill="#455A64"/>
<path d="M45.2503 144.111C45.3158 144.141 45.2503 144.479 45.0942 144.876C44.938 145.274 44.7567 145.566 44.6912 145.541C44.6258 145.516 44.6912 145.174 44.8474 144.781C45.0035 144.388 45.1798 144.086 45.2503 144.111Z" fill="#455A64"/>
<path d="M46.3891 141.26C46.4596 141.29 46.3891 141.628 46.2329 142.021C46.0768 142.414 45.9005 142.716 45.83 142.686C45.7595 142.655 45.83 142.318 45.9912 141.925C46.1524 141.532 46.2984 141.235 46.3891 141.26Z" fill="#455A64"/>
<path d="M47.5313 138.429C47.5968 138.459 47.5313 138.797 47.355 139.185C47.1787 139.573 47.0025 139.87 46.937 139.839C46.8715 139.809 46.937 139.477 47.1133 139.084C47.2895 138.691 47.4658 138.404 47.5313 138.429Z" fill="#455A64"/>
<path d="M48.847 135.665C48.9124 135.7 48.8117 136.033 48.6253 136.41C48.439 136.788 48.2325 137.065 48.167 137.035C48.1015 137.005 48.1972 136.672 48.3886 136.295C48.58 135.917 48.7815 135.63 48.847 135.665Z" fill="#455A64"/>
<path d="M50.4725 133.076C50.5279 133.121 50.3818 133.433 50.1451 133.781C49.9084 134.128 49.6415 134.37 49.6012 134.335C49.5609 134.3 49.6868 133.982 49.9285 133.63C50.1703 133.277 50.4171 133.03 50.4725 133.076Z" fill="#455A64"/>
<path d="M52.2249 131.656C52.2249 131.726 52.109 131.827 51.9378 131.918C51.7666 132.008 51.6003 132.059 51.555 132.003C51.5097 131.948 51.6205 131.792 51.8169 131.686C52.0133 131.58 52.2047 131.585 52.2249 131.656Z" fill="#455A64"/>
<path d="M47.6217 88.5076L29.6061 88.004H11.238C10.0588 88.0278 8.93735 88.5185 8.11962 89.3683C7.3019 90.2181 6.85476 91.3577 6.87635 92.5368V105.027C6.81468 113.658 8.87272 122.172 12.8698 129.822C16.2644 136.193 21.5175 142.751 29.6061 146.916C37.0451 144.126 42.5953 136.677 45.9899 130.296C49.987 122.646 52.045 114.132 51.9833 105.501V93.0354C52.0049 91.8568 51.5576 90.7177 50.7398 89.8687C49.9219 89.0197 48.8004 88.5301 47.6217 88.5076Z" fill="#71DF87"/>
<path d="M28.9867 117.664L22.3184 112.149L24.5646 109.429L28.5838 112.754L35.1564 105.214L37.8157 107.526L28.9867 117.664Z" fill="white"/>
<g opacity="0.3">
<path d="M47.6217 88.5076L29.6061 88.0039H11.238C10.0588 88.0277 8.93735 88.5184 8.11962 89.3682C7.3019 90.2181 6.85476 91.3576 6.87635 92.5368V105.027C6.81468 113.658 8.87272 122.172 12.8698 129.822C16.2644 136.193 21.5175 142.751 29.6061 146.916C37.0451 144.126 42.5953 136.677 45.9899 130.296C49.987 122.646 52.045 114.132 51.9833 105.501V93.0354C52.0049 91.8567 51.5576 90.7177 50.7398 89.8687C49.9219 89.0196 48.8004 88.5301 47.6217 88.5076ZM47.0274 106.417C47.076 113.245 45.4468 119.979 42.283 126.03C39.5986 131.066 35.6499 136.259 29.2485 139.558C22.8522 136.259 19.0496 131.071 16.3651 126.03C13.2087 119.977 11.5848 113.243 11.6358 106.417V96.5609C11.6196 95.6293 11.9729 94.7291 12.6184 94.0571C13.264 93.3852 14.1493 92.9961 15.0808 92.9749H43.5875C44.5199 92.9948 45.4065 93.3833 46.0531 94.0554C46.6997 94.7275 47.0537 95.6284 47.0375 96.5609L47.0274 106.417Z" fill="black"/>
</g>
</svg>
