<svg width="24" height="25" viewBox="0 0 24 25" fill="none" xmlns="http://www.w3.org/2000/svg">
<path d="M12.1601 11.4301C12.0601 11.4201 11.9401 11.4201 11.8301 11.4301C9.45006 11.3501 7.56006 9.40006 7.56006 7.00006C7.56006 4.55006 9.54006 2.56006 12.0001 2.56006C14.4501 2.56006 16.4401 4.55006 16.4401 7.00006C16.4301 9.40006 14.5401 11.3501 12.1601 11.4301Z" stroke="#B3B5BD" stroke-width="1.5" stroke-linecap="round" stroke-linejoin="round"/>
<path d="M7.16021 15.1201C4.74021 16.7401 4.74021 19.3801 7.16021 20.9901C9.91021 22.8301 14.4202 22.8301 17.1702 20.9901C19.5902 19.3701 19.5902 16.7301 17.1702 15.1201C14.4302 13.2901 9.92021 13.2901 7.16021 15.1201Z" stroke="#B3B5BD" stroke-width="1.5" stroke-linecap="round" stroke-linejoin="round"/>
</svg>
