<svg width="24" height="24" viewBox="0 0 24 24" fill="none" xmlns="http://www.w3.org/2000/svg">
<g clip-path="url(#clip0_76_34971)">
<path d="M17.9275 11.6958C16.7977 9.49146 14.561 8 12 8C9.43895 8 7.20166 9.4925 6.07249 11.696C6.02483 11.7903 6 11.8945 6 12.0001C6 12.1057 6.02483 12.2099 6.07249 12.3042C7.20228 14.5085 9.43895 16 12 16C14.561 16 16.7983 14.5075 17.9275 12.304C17.9751 12.2097 18 12.1055 18 11.9999C18 11.8943 17.9751 11.7901 17.9275 11.6958ZM12 15C11.4066 15 10.8266 14.8241 10.3333 14.4944C9.83993 14.1648 9.45541 13.6962 9.22835 13.148C9.00129 12.5999 8.94188 11.9967 9.05763 11.4147C9.17339 10.8328 9.45911 10.2982 9.87867 9.87868C10.2982 9.45912 10.8328 9.1734 11.4147 9.05764C11.9967 8.94189 12.5999 9.0013 13.148 9.22836C13.6962 9.45542 14.1648 9.83994 14.4944 10.3333C14.824 10.8266 15 11.4067 15 12C15.0002 12.394 14.9227 12.7842 14.772 13.1483C14.6213 13.5123 14.4004 13.8431 14.1217 14.1217C13.8431 14.4004 13.5123 14.6213 13.1483 14.772C12.7842 14.9227 12.394 15.0002 12 15ZM12 10C11.8215 10.0025 11.6441 10.0291 11.4727 10.079C11.614 10.271 11.6818 10.5073 11.6638 10.745C11.6458 10.9827 11.5433 11.2061 11.3747 11.3747C11.2061 11.5433 10.9827 11.6458 10.745 11.6638C10.5073 11.6818 10.271 11.614 10.0789 11.4727C9.96961 11.8755 9.98934 12.3025 10.1354 12.6935C10.2814 13.0846 10.5464 13.42 10.893 13.6525C11.2397 13.885 11.6505 14.003 12.0677 13.9898C12.4849 13.9767 12.8875 13.833 13.2187 13.579C13.55 13.3251 13.7933 12.9736 13.9143 12.5742C14.0354 12.1747 14.0281 11.7473 13.8936 11.3522C13.759 10.9571 13.504 10.6141 13.1643 10.3715C12.8246 10.129 12.4174 9.99902 12 10Z" fill="#60C8F1"/>
</g>
<rect x="0.5" y="0.5" width="23" height="23" rx="11.5" stroke="#60C8F1"/>
<defs>
<clipPath id="clip0_76_34971">
<rect width="12" height="12" fill="white" transform="translate(6 6)"/>
</clipPath>
</defs>
</svg>
